<svg width="16" height="16" viewBox="0 0 16 16" fill="none" xmlns="http://www.w3.org/2000/svg">
<path fill-rule="evenodd" clip-rule="evenodd" d="M1.68342 1.68342C2.121 1.24583 2.7145 1 3.33333 1H12.6667C13.2855 1 13.879 1.24583 14.3166 1.68342C14.7542 2.121 15 2.71449 15 3.33333V12.6667C15 13.2855 14.7542 13.879 14.3166 14.3166C13.879 14.7542 13.2855 15 12.6667 15H3.33333C2.71449 15 2.121 14.7542 1.68342 14.3166C1.24583 13.879 1 13.2855 1 12.6667V3.33333C1 2.7145 1.24583 2.121 1.68342 1.68342ZM3.33333 2.55556C3.12705 2.55556 2.92922 2.6375 2.78336 2.78336C2.6375 2.92922 2.55556 3.12705 2.55556 3.33333V12.6667C2.55556 12.8729 2.6375 13.0708 2.78336 13.2166C2.92922 13.3625 3.12705 13.4444 3.33333 13.4444H12.6667C12.8729 13.4444 13.0708 13.3625 13.2166 13.2166C13.3625 13.0708 13.4444 12.8729 13.4444 12.6667V3.33333C13.4444 3.12705 13.3625 2.92922 13.2166 2.78336C13.0708 2.6375 12.8729 2.55556 12.6667 2.55556H3.33333ZM8 4.11111C8.42956 4.11111 8.77778 4.45933 8.77778 4.88889V11.1111C8.77778 11.5407 8.42956 11.8889 8 11.8889C7.57045 11.8889 7.22222 11.5407 7.22222 11.1111V4.88889C7.22222 4.45933 7.57045 4.11111 8 4.11111ZM4.88889 6.44444C5.31844 6.44444 5.66667 6.79267 5.66667 7.22222V11.1111C5.66667 11.5407 5.31844 11.8889 4.88889 11.8889C4.45933 11.8889 4.11111 11.5407 4.11111 11.1111V7.22222C4.11111 6.79267 4.45933 6.44444 4.88889 6.44444ZM11.1111 8.77778C11.5407 8.77778 11.8889 9.126 11.8889 9.55556V11.1111C11.8889 11.5407 11.5407 11.8889 11.1111 11.8889C10.6816 11.8889 10.3333 11.5407 10.3333 11.1111V9.55556C10.3333 9.126 10.6816 8.77778 11.1111 8.77778Z" fill="white"/>
</svg>
