<svg width="16" height="16" viewBox="0 0 16 16" fill="none" xmlns="http://www.w3.org/2000/svg">
<g clip-path="url(#clip0_2154_1505)">
<path d="M4 15.3333C3.44444 15.3333 2.97222 15.1389 2.58333 14.75C2.19444 14.3611 2 13.8889 2 13.3333C2 12.7778 2.19444 12.3056 2.58333 11.9167C2.97222 11.5278 3.44444 11.3333 4 11.3333C4.15556 11.3333 4.3 11.35 4.43333 11.3833C4.56667 11.4167 4.69444 11.4611 4.81667 11.5167L5.76667 10.3333C5.45556 9.98889 5.23889 9.6 5.11667 9.16667C4.99444 8.73333 4.96667 8.3 5.03333 7.86667L3.68333 7.41667C3.49444 7.69444 3.25556 7.91667 2.96667 8.08333C2.67778 8.25 2.35556 8.33333 2 8.33333C1.44444 8.33333 0.972222 8.13889 0.583333 7.75C0.194444 7.36111 0 6.88889 0 6.33333C0 5.77778 0.194444 5.30556 0.583333 4.91667C0.972222 4.52778 1.44444 4.33333 2 4.33333C2.55556 4.33333 3.02778 4.52778 3.41667 4.91667C3.80556 5.30556 4 5.77778 4 6.33333V6.46667L5.35 6.93333C5.57222 6.53333 5.86944 6.19444 6.24167 5.91667C6.61389 5.63889 7.03333 5.46111 7.5 5.38333V3.93333C7.06667 3.81111 6.70833 3.575 6.425 3.225C6.14167 2.875 6 2.46667 6 2C6 1.44444 6.19444 0.972222 6.58333 0.583333C6.97222 0.194444 7.44444 0 8 0C8.55556 0 9.02778 0.194444 9.41667 0.583333C9.80556 0.972222 10 1.44444 10 2C10 2.46667 9.85556 2.875 9.56667 3.225C9.27778 3.575 8.92222 3.81111 8.5 3.93333V5.38333C8.96667 5.46111 9.38611 5.63889 9.75833 5.91667C10.1306 6.19444 10.4278 6.53333 10.65 6.93333L12 6.46667V6.33333C12 5.77778 12.1944 5.30556 12.5833 4.91667C12.9722 4.52778 13.4444 4.33333 14 4.33333C14.5556 4.33333 15.0278 4.52778 15.4167 4.91667C15.8056 5.30556 16 5.77778 16 6.33333C16 6.88889 15.8056 7.36111 15.4167 7.75C15.0278 8.13889 14.5556 8.33333 14 8.33333C13.6444 8.33333 13.3194 8.25 13.025 8.08333C12.7306 7.91667 12.4944 7.69444 12.3167 7.41667L10.9667 7.86667C11.0333 8.3 11.0056 8.73056 10.8833 9.15833C10.7611 9.58611 10.5444 9.97778 10.2333 10.3333L11.1833 11.5C11.3056 11.4444 11.4333 11.4028 11.5667 11.375C11.7 11.3472 11.8444 11.3333 12 11.3333C12.5556 11.3333 13.0278 11.5278 13.4167 11.9167C13.8056 12.3056 14 12.7778 14 13.3333C14 13.8889 13.8056 14.3611 13.4167 14.75C13.0278 15.1389 12.5556 15.3333 12 15.3333C11.4444 15.3333 10.9722 15.1389 10.5833 14.75C10.1944 14.3611 10 13.8889 10 13.3333C10 13.1111 10.0361 12.8972 10.1083 12.6917C10.1806 12.4861 10.2778 12.3 10.4 12.1333L9.45 10.95C8.99444 11.2056 8.50833 11.3333 7.99167 11.3333C7.475 11.3333 6.98889 11.2056 6.53333 10.95L5.6 12.1333C5.72222 12.3 5.81944 12.4861 5.89167 12.6917C5.96389 12.8972 6 13.1111 6 13.3333C6 13.8889 5.80556 14.3611 5.41667 14.75C5.02778 15.1389 4.55556 15.3333 4 15.3333ZM2 7C2.18889 7 2.34722 6.93611 2.475 6.80833C2.60278 6.68056 2.66667 6.52222 2.66667 6.33333C2.66667 6.14444 2.60278 5.98611 2.475 5.85833C2.34722 5.73056 2.18889 5.66667 2 5.66667C1.81111 5.66667 1.65278 5.73056 1.525 5.85833C1.39722 5.98611 1.33333 6.14444 1.33333 6.33333C1.33333 6.52222 1.39722 6.68056 1.525 6.80833C1.65278 6.93611 1.81111 7 2 7ZM4 14C4.18889 14 4.34722 13.9361 4.475 13.8083C4.60278 13.6806 4.66667 13.5222 4.66667 13.3333C4.66667 13.1444 4.60278 12.9861 4.475 12.8583C4.34722 12.7306 4.18889 12.6667 4 12.6667C3.81111 12.6667 3.65278 12.7306 3.525 12.8583C3.39722 12.9861 3.33333 13.1444 3.33333 13.3333C3.33333 13.5222 3.39722 13.6806 3.525 13.8083C3.65278 13.9361 3.81111 14 4 14ZM8 2.66667C8.18889 2.66667 8.34722 2.60278 8.475 2.475C8.60278 2.34722 8.66667 2.18889 8.66667 2C8.66667 1.81111 8.60278 1.65278 8.475 1.525C8.34722 1.39722 8.18889 1.33333 8 1.33333C7.81111 1.33333 7.65278 1.39722 7.525 1.525C7.39722 1.65278 7.33333 1.81111 7.33333 2C7.33333 2.18889 7.39722 2.34722 7.525 2.475C7.65278 2.60278 7.81111 2.66667 8 2.66667ZM8 10C8.46667 10 8.86111 9.83889 9.18333 9.51667C9.50556 9.19444 9.66667 8.8 9.66667 8.33333C9.66667 7.86667 9.50556 7.47222 9.18333 7.15C8.86111 6.82778 8.46667 6.66667 8 6.66667C7.53333 6.66667 7.13889 6.82778 6.81667 7.15C6.49444 7.47222 6.33333 7.86667 6.33333 8.33333C6.33333 8.8 6.49444 9.19444 6.81667 9.51667C7.13889 9.83889 7.53333 10 8 10ZM12 14C12.1889 14 12.3472 13.9361 12.475 13.8083C12.6028 13.6806 12.6667 13.5222 12.6667 13.3333C12.6667 13.1444 12.6028 12.9861 12.475 12.8583C12.3472 12.7306 12.1889 12.6667 12 12.6667C11.8111 12.6667 11.6528 12.7306 11.525 12.8583C11.3972 12.9861 11.3333 13.1444 11.3333 13.3333C11.3333 13.5222 11.3972 13.6806 11.525 13.8083C11.6528 13.9361 11.8111 14 12 14ZM14 7C14.1889 7 14.3472 6.93611 14.475 6.80833C14.6028 6.68056 14.6667 6.52222 14.6667 6.33333C14.6667 6.14444 14.6028 5.98611 14.475 5.85833C14.3472 5.73056 14.1889 5.66667 14 5.66667C13.8111 5.66667 13.6528 5.73056 13.525 5.85833C13.3972 5.98611 13.3333 6.14444 13.3333 6.33333C13.3333 6.52222 13.3972 6.68056 13.525 6.80833C13.6528 6.93611 13.8111 7 14 7Z" fill="white"/>
</g>
<defs>
<clipPath id="clip0_2154_1505">
<rect width="16" height="16" fill="white"/>
</clipPath>
</defs>
</svg>
