<svg width="16" height="16" viewBox="0 0 16 16" fill="none" xmlns="http://www.w3.org/2000/svg">
<path d="M14.44 1H1.56C1.25025 1 1 1.25025 1 1.56V14.44C1 14.7498 1.25025 15 1.56 15H14.44C14.7498 15 15 14.7498 15 14.44V1.56C15 1.25025 14.7498 1 14.44 1ZM13.74 13.74H2.26V2.26H13.74V13.74ZM4.99 10.9925V12.34C4.99 12.417 5.053 12.48 5.13 12.48H5.97C6.047 12.48 6.11 12.417 6.11 12.34V10.9925C5.93325 11.0503 5.746 11.08 5.55 11.08C5.354 11.08 5.16675 11.0485 4.99 10.9925ZM6.11 7.5275V3.66C6.11 3.583 6.047 3.52 5.97 3.52H5.13C5.053 3.52 4.99 3.583 4.99 3.66V7.5275C5.16675 7.46975 5.354 7.44 5.55 7.44C5.746 7.44 5.93325 7.4715 6.11 7.5275ZM4.99 10.9925C5.16675 11.0503 5.354 11.08 5.55 11.08C5.746 11.08 5.93325 11.0485 6.11 10.9925C6.8415 10.7563 7.37 10.0703 7.37 9.26C7.37 8.44975 6.8415 7.76375 6.11 7.5275C5.93325 7.46975 5.746 7.44 5.55 7.44C5.354 7.44 5.16675 7.4715 4.99 7.5275C4.2585 7.76375 3.73 8.44975 3.73 9.26C3.73 10.0703 4.2585 10.7563 4.99 10.9925ZM4.99175 8.96775C4.997 8.95725 5.004 8.94675 5.00925 8.93625V8.9345L5.03025 8.903C5.032 8.8995 5.03375 8.89775 5.0355 8.89425C5.04075 8.8855 5.04775 8.8785 5.053 8.86975C5.05475 8.868 5.0565 8.8645 5.05825 8.86275C5.067 8.85225 5.074 8.8435 5.08275 8.83475L5.088 8.8295L5.109 8.8085L5.116 8.8015C5.12475 8.79275 5.1335 8.78575 5.144 8.777C5.1545 8.76825 5.16325 8.76125 5.17375 8.75425C5.17725 8.7525 5.179 8.75075 5.1825 8.749C5.19125 8.74375 5.19825 8.73675 5.207 8.7315C5.20875 8.72975 5.21225 8.728 5.214 8.72625C5.2245 8.71925 5.235 8.714 5.24725 8.707C5.249 8.70525 5.2525 8.70525 5.25425 8.7035C5.263 8.69825 5.27175 8.69475 5.28225 8.6895L5.29275 8.68425C5.305 8.679 5.3155 8.67375 5.32775 8.67025C5.34 8.665 5.35225 8.6615 5.3645 8.658C5.368 8.65625 5.3715 8.65625 5.375 8.6545C5.3855 8.651 5.39425 8.64925 5.40475 8.6475C5.40825 8.6475 5.41 8.64575 5.4135 8.64575C5.42575 8.64225 5.43975 8.6405 5.452 8.63875C5.4555 8.63875 5.45725 8.63875 5.46075 8.637C5.47125 8.63525 5.48175 8.63525 5.49225 8.6335H5.50275C5.51675 8.6335 5.529 8.63175 5.543 8.63175C5.557 8.63175 5.56925 8.63175 5.58325 8.6335H5.59375C5.60425 8.6335 5.61475 8.63525 5.62525 8.637C5.62875 8.637 5.6305 8.637 5.634 8.63875C5.64625 8.6405 5.66025 8.64225 5.6725 8.64575C5.676 8.64575 5.67775 8.6475 5.68125 8.6475C5.69175 8.64925 5.70225 8.65275 5.711 8.6545C5.7145 8.65625 5.718 8.65625 5.7215 8.658C5.73375 8.6615 5.746 8.665 5.75825 8.67025C5.7705 8.67375 5.781 8.679 5.79325 8.68425L5.80375 8.6895C5.8125 8.693 5.823 8.69825 5.83175 8.7035C5.8335 8.70525 5.837 8.70525 5.83875 8.707C5.84925 8.71225 5.8615 8.71925 5.872 8.72625C5.87375 8.728 5.87725 8.72975 5.879 8.7315C5.88775 8.73675 5.8965 8.742 5.9035 8.749C5.907 8.75075 5.90875 8.7525 5.91225 8.75425C5.92275 8.76125 5.93325 8.77 5.942 8.777C5.95075 8.784 5.96125 8.79275 5.97 8.8015L5.977 8.8085L5.998 8.8295L6.00325 8.83475C6.012 8.8435 6.02075 8.854 6.02775 8.86275C6.0295 8.8645 6.03125 8.868 6.033 8.86975C6.04 8.87675 6.04525 8.8855 6.0505 8.89425C6.05225 8.89775 6.054 8.8995 6.05575 8.903L6.07675 8.9345C6.07675 8.9345 6.07675 8.93625 6.0785 8.93625C6.13685 9.03417 6.16768 9.14602 6.16775 9.26C6.16775 9.365 6.1415 9.46475 6.096 9.55225C6.09075 9.56275 6.08375 9.57325 6.0785 9.58375C6.0785 9.58375 6.0785 9.5855 6.07675 9.5855L6.05575 9.617C6.054 9.6205 6.05225 9.62225 6.0505 9.62575C6.04525 9.6345 6.03825 9.6415 6.033 9.65025C6.03125 9.652 6.0295 9.6555 6.02775 9.65725C6.019 9.66775 6.012 9.6765 6.00325 9.68525L5.998 9.6905L5.977 9.7115L5.97 9.7185C5.96125 9.72725 5.9525 9.73425 5.942 9.743C5.9315 9.75175 5.92275 9.75875 5.91225 9.76575C5.90875 9.7675 5.907 9.76925 5.9035 9.771C5.89475 9.77625 5.88775 9.78325 5.879 9.7885C5.87725 9.79025 5.87375 9.792 5.872 9.79375C5.8615 9.80075 5.851 9.806 5.83875 9.813C5.837 9.81475 5.8335 9.81475 5.83175 9.8165C5.823 9.82175 5.81425 9.82525 5.80375 9.8305L5.79325 9.83575C5.781 9.841 5.7705 9.84625 5.75825 9.84975C5.746 9.855 5.73375 9.8585 5.7215 9.862C5.718 9.86375 5.7145 9.86375 5.711 9.8655C5.7005 9.869 5.69175 9.87075 5.68125 9.8725C5.67775 9.8725 5.676 9.87425 5.6725 9.87425C5.66025 9.87775 5.64625 9.8795 5.634 9.88125C5.6305 9.88125 5.62875 9.88125 5.62525 9.883C5.61475 9.88475 5.60425 9.88475 5.59375 9.8865H5.58325C5.56925 9.8865 5.557 9.88825 5.543 9.88825C5.529 9.88825 5.51675 9.88825 5.50275 9.8865H5.49225C5.48175 9.8865 5.47125 9.88475 5.46075 9.883C5.45725 9.883 5.4555 9.883 5.452 9.88125C5.43975 9.8795 5.42575 9.87775 5.4135 9.87425C5.41 9.87425 5.40825 9.8725 5.40475 9.8725C5.39425 9.87075 5.38375 9.86725 5.375 9.8655C5.3715 9.86375 5.368 9.86375 5.3645 9.862C5.35225 9.8585 5.34 9.855 5.32775 9.84975C5.3155 9.84625 5.305 9.841 5.29275 9.83575L5.28225 9.8305C5.2735 9.827 5.263 9.82175 5.25425 9.8165C5.2525 9.81475 5.249 9.81475 5.24725 9.813C5.23675 9.80775 5.2245 9.80075 5.214 9.79375C5.21225 9.792 5.20875 9.79025 5.207 9.7885C5.19825 9.78325 5.1895 9.778 5.1825 9.771C5.179 9.76925 5.17725 9.7675 5.17375 9.76575C5.16325 9.75875 5.15275 9.75 5.144 9.743C5.13525 9.736 5.12475 9.72725 5.116 9.7185L5.109 9.7115L5.088 9.6905L5.08275 9.68525C5.074 9.6765 5.06525 9.666 5.05825 9.65725C5.0565 9.6555 5.05475 9.652 5.053 9.65025C5.046 9.64325 5.04075 9.6345 5.0355 9.62575C5.03375 9.62225 5.032 9.6205 5.03025 9.617L5.00925 9.5855V9.58375C5.00225 9.57325 4.997 9.56275 4.99175 9.55225C4.94625 9.46475 4.92 9.365 4.92 9.26C4.92 9.155 4.94625 9.05525 4.99175 8.96775ZM9.89 8.4725V12.34C9.89 12.417 9.953 12.48 10.03 12.48H10.87C10.947 12.48 11.01 12.417 11.01 12.34V8.4725C10.8333 8.53025 10.646 8.56 10.45 8.56C10.254 8.56 10.0668 8.5285 9.89 8.4725ZM11.01 5.0075V3.66C11.01 3.583 10.947 3.52 10.87 3.52H10.03C9.953 3.52 9.89 3.583 9.89 3.66V5.0075C10.0668 4.94975 10.254 4.92 10.45 4.92C10.646 4.92 10.8333 4.9515 11.01 5.0075ZM9.89 8.4725C10.0668 8.53025 10.254 8.56 10.45 8.56C10.646 8.56 10.8333 8.5285 11.01 8.4725C11.7415 8.23625 12.27 7.55025 12.27 6.74C12.27 5.92975 11.7415 5.24375 11.01 5.0075C10.8333 4.94975 10.646 4.92 10.45 4.92C10.254 4.92 10.0668 4.9515 9.89 5.0075C9.1585 5.24375 8.63 5.92975 8.63 6.74C8.63 7.55025 9.1585 8.23625 9.89 8.4725ZM9.89175 6.44775C9.897 6.43725 9.904 6.42675 9.90925 6.41625V6.4145L9.93025 6.383C9.932 6.3795 9.93375 6.37775 9.9355 6.37425C9.94075 6.3655 9.94775 6.3585 9.953 6.34975C9.95475 6.348 9.9565 6.3445 9.95825 6.34275C9.967 6.33225 9.974 6.3235 9.98275 6.31475L9.988 6.3095L10.009 6.2885L10.016 6.2815C10.0248 6.27275 10.0335 6.26575 10.044 6.257C10.0545 6.24825 10.0633 6.24125 10.0738 6.23425C10.0773 6.2325 10.079 6.23075 10.0825 6.229C10.0913 6.22375 10.0983 6.21675 10.107 6.2115C10.1088 6.20975 10.1122 6.208 10.114 6.20625C10.1245 6.19925 10.135 6.194 10.1473 6.187C10.149 6.18525 10.1525 6.18525 10.1542 6.1835C10.163 6.17825 10.1718 6.17475 10.1823 6.1695L10.1927 6.16425C10.205 6.159 10.2155 6.15375 10.2277 6.15025C10.24 6.145 10.2523 6.1415 10.2645 6.138C10.268 6.13625 10.2715 6.13625 10.275 6.1345C10.2855 6.131 10.2943 6.12925 10.3048 6.1275C10.3083 6.1275 10.31 6.12575 10.3135 6.12575C10.3258 6.12225 10.3398 6.1205 10.352 6.11875C10.3555 6.11875 10.3573 6.11875 10.3608 6.117C10.3713 6.11525 10.3818 6.11525 10.3923 6.1135H10.4027C10.4167 6.1135 10.429 6.11175 10.443 6.11175C10.457 6.11175 10.4693 6.11175 10.4833 6.1135H10.4938C10.5043 6.1135 10.5147 6.11525 10.5252 6.117C10.5287 6.117 10.5305 6.117 10.534 6.11875C10.5462 6.1205 10.5603 6.12225 10.5725 6.12575C10.576 6.12575 10.5778 6.1275 10.5813 6.1275C10.5918 6.12925 10.6023 6.13275 10.611 6.1345C10.6145 6.13625 10.618 6.13625 10.6215 6.138C10.6337 6.1415 10.646 6.145 10.6583 6.15025C10.6705 6.15375 10.681 6.159 10.6933 6.16425L10.7038 6.1695C10.7125 6.173 10.723 6.17825 10.7317 6.1835C10.7335 6.18525 10.737 6.18525 10.7388 6.187C10.7493 6.19225 10.7615 6.19925 10.772 6.20625C10.7738 6.208 10.7772 6.20975 10.779 6.2115C10.7877 6.21675 10.7965 6.222 10.8035 6.229C10.807 6.23075 10.8088 6.2325 10.8123 6.23425C10.8228 6.24125 10.8333 6.25 10.842 6.257C10.8508 6.264 10.8613 6.27275 10.87 6.2815L10.877 6.2885L10.898 6.3095L10.9033 6.31475C10.912 6.3235 10.9207 6.334 10.9277 6.34275C10.9295 6.3445 10.9312 6.348 10.933 6.34975C10.94 6.35675 10.9452 6.3655 10.9505 6.37425C10.9522 6.37775 10.954 6.3795 10.9558 6.383L10.9767 6.4145V6.41625C11.0351 6.51417 11.0659 6.62602 11.066 6.74C11.066 6.845 11.0397 6.94475 10.9942 7.03225C10.989 7.04275 10.982 7.05325 10.9767 7.06375V7.0655L10.9558 7.097C10.954 7.1005 10.9522 7.10225 10.9505 7.10575C10.9452 7.1145 10.9382 7.1215 10.933 7.13025C10.9312 7.132 10.9295 7.1355 10.9277 7.13725C10.919 7.14775 10.912 7.1565 10.9033 7.16525L10.898 7.1705L10.877 7.1915L10.87 7.1985C10.8613 7.20725 10.8525 7.21425 10.842 7.223C10.8315 7.23175 10.8228 7.23875 10.8123 7.24575C10.8088 7.2475 10.807 7.24925 10.8035 7.251C10.7948 7.25625 10.7877 7.26325 10.779 7.2685C10.7772 7.27025 10.7738 7.272 10.772 7.27375C10.7615 7.28075 10.751 7.286 10.7388 7.293C10.737 7.29475 10.7335 7.29475 10.7317 7.2965C10.723 7.30175 10.7143 7.30525 10.7038 7.3105L10.6933 7.31575C10.681 7.321 10.6705 7.32625 10.6583 7.32975C10.646 7.335 10.6337 7.3385 10.6215 7.342C10.618 7.34375 10.6145 7.34375 10.611 7.3455C10.6005 7.349 10.5918 7.35075 10.5813 7.3525C10.5778 7.3525 10.576 7.35425 10.5725 7.35425C10.5603 7.35775 10.5462 7.3595 10.534 7.36125C10.5305 7.36125 10.5287 7.36125 10.5252 7.363C10.5147 7.36475 10.5043 7.36475 10.4938 7.3665H10.4833C10.4693 7.3665 10.457 7.36825 10.443 7.36825C10.429 7.36825 10.4167 7.36825 10.4027 7.3665H10.3923C10.3818 7.3665 10.3713 7.36475 10.3608 7.363C10.3573 7.363 10.3555 7.363 10.352 7.36125C10.3398 7.3595 10.3258 7.35775 10.3135 7.35425C10.31 7.35425 10.3083 7.3525 10.3048 7.3525C10.2943 7.35075 10.2838 7.34725 10.275 7.3455C10.2715 7.34375 10.268 7.34375 10.2645 7.342C10.2523 7.3385 10.24 7.335 10.2277 7.32975C10.2155 7.32625 10.205 7.321 10.1927 7.31575L10.1823 7.3105C10.1735 7.307 10.163 7.30175 10.1542 7.2965C10.1525 7.29475 10.149 7.29475 10.1473 7.293C10.1368 7.28775 10.1245 7.28075 10.114 7.27375C10.1122 7.272 10.1088 7.27025 10.107 7.2685C10.0983 7.26325 10.0895 7.258 10.0825 7.251C10.079 7.24925 10.0773 7.2475 10.0738 7.24575C10.0633 7.23875 10.0527 7.23 10.044 7.223C10.0352 7.216 10.0248 7.20725 10.016 7.1985L10.009 7.1915L9.988 7.1705L9.98275 7.16525C9.974 7.1565 9.96525 7.146 9.95825 7.13725C9.9565 7.1355 9.95475 7.132 9.953 7.13025C9.946 7.12325 9.94075 7.1145 9.9355 7.10575C9.93375 7.10225 9.932 7.1005 9.93025 7.097L9.90925 7.0655V7.06375C9.90225 7.05325 9.897 7.04275 9.89175 7.03225C9.84625 6.94475 9.82 6.845 9.82 6.74C9.82 6.635 9.84625 6.53525 9.89175 6.44775Z" fill="#151F29"/>
</svg>
