<svg width="16" height="16" viewBox="0 0 16 16" fill="none" xmlns="http://www.w3.org/2000/svg">
<path fill-rule="evenodd" clip-rule="evenodd" d="M7.77822 0.909756C7.91796 0.840618 8.08195 0.840618 8.22168 0.909756L14.5217 4.02683C14.6921 4.11115 14.8 4.28484 14.8 4.47498V11.5051C14.8 11.6952 14.6921 11.8689 14.5217 11.9532L8.22168 15.0703C8.08195 15.1395 7.91796 15.1395 7.77822 15.0703L1.47822 11.9532C1.3078 11.8689 1.19995 11.6952 1.19995 11.5051V4.47498C1.19995 4.28484 1.3078 4.11115 1.47822 4.02683L7.77822 0.909756ZM3.15804 5.90249C2.82572 5.73807 2.43631 5.97986 2.43631 6.35064V10.7359C2.43631 10.926 2.54416 11.0997 2.71458 11.184L6.66004 13.1361C6.99236 13.3006 7.38177 13.0588 7.38177 12.688V8.30273C7.38177 8.11259 7.27392 7.9389 7.1035 7.85458L3.15804 5.90249ZM8.89641 7.85459C8.72599 7.93891 8.61813 8.11259 8.61813 8.30274V12.688C8.61813 13.0588 9.00754 13.3006 9.33986 13.1361L13.2853 11.184C13.4557 11.0997 13.5636 10.926 13.5636 10.7359V6.35065C13.5636 5.97987 13.1742 5.73807 12.8419 5.9025L11.9873 6.32532C11.8169 6.40964 11.709 6.58332 11.709 6.77346V8.60971C11.709 8.799 11.6021 8.97206 11.4329 9.0568L11.1965 9.17514C10.8641 9.3416 10.4727 9.09985 10.4727 8.72805V7.87996C10.4727 7.50919 10.0833 7.26739 9.75096 7.4318L8.89641 7.85459ZM11.8805 4.10094C12.2516 4.28452 12.2516 4.81367 11.8805 4.99724L11.301 5.28397C11.2247 5.32174 11.1346 5.30801 11.0584 5.26987V5.26987L7.33342 3.40492C6.96424 3.22009 6.96548 2.69277 7.33553 2.50968L7.77822 2.29065C7.91796 2.22151 8.08195 2.22151 8.22168 2.29064L11.8805 4.10094ZM4.8216 3.75351C4.96208 3.684 5.12702 3.68439 5.26717 3.75456L8.90437 5.57558C9.27355 5.76041 9.2723 6.28773 8.90226 6.47082L8.22168 6.80755C8.08195 6.87669 7.91796 6.87669 7.77822 6.80755L4.11937 4.99724C3.74834 4.81367 3.74834 4.28452 4.11937 4.10095L4.8216 3.75351Z" fill="#151F29"/>
</svg>
