<svg width="16" height="16" viewBox="0 0 16 16" fill="none" xmlns="http://www.w3.org/2000/svg">
<g clip-path="url(#clip0_2154_1664)">
<path fill-rule="evenodd" clip-rule="evenodd" d="M6.65961 7.27341C6.9653 7.07274 7.37697 7.03614 7.73637 7.25901L9.9841 8.65241C10.3422 8.87448 10.4998 9.25834 10.4998 9.60688C10.4998 9.95541 10.3422 10.3393 9.9841 10.5613L7.73637 11.9547C7.37697 12.1775 6.9653 12.141 6.65961 11.9403C6.35917 11.743 6.1665 11.3957 6.1665 11.0003V8.21341C6.1665 7.81808 6.35917 7.47068 6.65961 7.27341ZM7.20844 8.10934C7.19617 8.11741 7.1665 8.14694 7.1665 8.21341V11.0003C7.1665 11.0667 7.19617 11.0963 7.20844 11.1043L7.2093 11.1049L9.45717 9.71134C9.4713 9.70261 9.49984 9.67241 9.49984 9.60688C9.49984 9.54128 9.4713 9.51108 9.45717 9.50234L7.2095 8.10894L7.20844 8.10934Z" fill="white"/>
<path fill-rule="evenodd" clip-rule="evenodd" d="M5.79948 0.833379C5.65292 0.833339 5.54054 0.833306 5.44231 0.843846C4.53954 0.940732 3.84855 1.68207 3.80662 2.58009C3.0127 2.8171 2.44697 3.55171 2.43677 4.39424C2.03622 4.51447 1.69072 4.70408 1.40789 5.00959C0.973231 5.47909 0.838531 6.0577 0.833404 6.73357C0.828471 7.38337 0.944257 8.2045 1.08804 9.22424L1.3807 11.3C1.49311 12.0974 1.58442 12.7451 1.72651 13.2527C1.87516 13.7838 2.09426 14.2207 2.49994 14.5566C2.9024 14.8898 3.37987 15.0335 3.94423 15.1012C4.48992 15.1667 5.17641 15.1667 6.03113 15.1667H9.96865C10.8234 15.1667 11.5099 15.1667 12.0556 15.1012C12.62 15.0335 13.0975 14.8898 13.4999 14.5566C13.9056 14.2207 14.1247 13.7838 14.2733 13.2527C14.4154 12.7451 14.5067 12.0974 14.6191 11.3L14.9118 9.22424C15.0556 8.2045 15.1714 7.38337 15.1665 6.73357C15.1613 6.0577 15.0266 5.47909 14.5919 5.00959C14.3091 4.70401 13.9635 4.51438 13.5628 4.39416C13.5525 3.55171 12.9869 2.81718 12.1931 2.58013C12.1511 1.68209 11.4601 0.940732 10.5574 0.843846C10.4591 0.833306 10.3468 0.833339 10.2002 0.833379H5.79948ZM12.5403 4.21858C12.4489 3.81349 12.087 3.50005 11.6411 3.50005H4.3585C3.91256 3.50005 3.5507 3.8135 3.45926 4.21861C4.07646 4.1667 4.83307 4.16671 5.74388 4.16671H10.2559C11.1666 4.16671 11.9231 4.1667 12.5403 4.21858ZM11.1784 2.50005C11.1073 2.15093 10.8175 1.87751 10.4507 1.83814C10.4131 1.83411 10.3597 1.83338 10.1725 1.83338H5.82724C5.64 1.83338 5.58654 1.83411 5.54902 1.83814C5.18221 1.87751 4.89233 2.15093 4.82132 2.50005H11.1784ZM2.1417 5.68894C2.34363 5.47082 2.64729 5.32615 3.23733 5.24767C3.83809 5.16777 4.6423 5.16671 5.78151 5.16671H10.2183C11.3575 5.16671 12.1617 5.16777 12.7625 5.24767C13.3525 5.32615 13.6562 5.47082 13.8581 5.68894C14.0554 5.90199 14.1623 6.19192 14.1665 6.74117C14.1708 7.30791 14.0667 8.05524 13.9158 9.12557L13.6339 11.1256C13.5153 11.9661 13.4323 12.5474 13.3103 12.9832C13.1929 13.4028 13.0546 13.627 12.8622 13.7864C12.6665 13.9484 12.4038 14.0523 11.9365 14.1084C11.4573 14.1659 10.8309 14.1667 9.93632 14.1667H6.06349C5.1689 14.1667 4.54254 14.1659 4.06338 14.1084C3.59603 14.0523 3.33334 13.9484 3.13768 13.7864C2.94522 13.627 2.80697 13.4028 2.6895 12.9832C2.56752 12.5474 2.48452 11.9661 2.366 11.1256L2.08402 9.12557C1.93312 8.05524 1.82907 7.30791 1.83337 6.74117C1.83754 6.19192 1.94446 5.90199 2.1417 5.68894Z" fill="white"/>
</g>
<defs>
<clipPath id="clip0_2154_1664">
<rect width="16" height="16" fill="white"/>
</clipPath>
</defs>
</svg>
