<svg width="713" height="249" viewBox="0 0 713 249" fill="none" xmlns="http://www.w3.org/2000/svg">
<rect width="713" height="249" fill="white"/>
<path d="M510.278 84.0154L516.284 88.9085" stroke="black" stroke-linecap="square"/>
<path d="M266.239 224.036H268.655L270.496 217.401H270.63L272.471 224.036H274.881L277.662 214.218H275.296L273.596 221.083H273.5L271.736 214.218H269.403L267.639 221.121H267.549L265.823 214.218H263.465L266.239 224.036ZM281.303 224.036H283.72L285.56 217.401H285.695L287.536 224.036H289.945L292.726 214.218H290.361L288.661 221.083H288.565L286.801 214.218H284.467L282.703 221.121H282.614L280.888 214.218H278.529L281.303 224.036ZM296.368 224.036H298.784L300.625 217.401H300.759L302.6 224.036H305.01L307.79 214.218H305.425L303.725 221.083H303.629L301.865 214.218H299.532L297.768 221.121H297.678L295.952 214.218H293.594L296.368 224.036ZM309.495 224.176C310.25 224.176 310.895 223.55 310.902 222.77C310.895 222.003 310.25 221.377 309.495 221.377C308.716 221.377 308.083 222.003 308.089 222.77C308.083 223.55 308.716 224.176 309.495 224.176ZM321.051 216.813C320.731 215.151 319.402 214.09 317.1 214.09C314.735 214.09 313.125 215.253 313.131 217.068C313.125 218.5 314.007 219.446 315.892 219.836L317.567 220.188C318.468 220.386 318.89 220.75 318.89 221.306C318.89 221.978 318.162 222.482 317.062 222.482C316.001 222.482 315.311 222.022 315.112 221.14L312.856 221.357C313.144 223.16 314.659 224.228 317.068 224.228C319.523 224.228 321.255 222.956 321.262 221.095C321.255 219.696 320.354 218.839 318.5 218.436L316.826 218.078C315.828 217.855 315.432 217.509 315.438 216.941C315.432 216.276 316.167 215.816 317.132 215.816C318.2 215.816 318.762 216.397 318.941 217.043L321.051 216.813ZM323.17 224.036H325.484V214.218H323.17V224.036ZM324.333 212.824C325.068 212.824 325.669 212.262 325.669 211.571C325.669 210.875 325.068 210.312 324.333 210.312C323.592 210.312 322.991 210.875 322.991 211.571C322.991 212.262 323.592 212.824 324.333 212.824ZM332.766 214.218H330.829V211.865H328.515V214.218H327.122V216.007H328.515V221.466C328.502 223.313 329.845 224.221 331.583 224.17C332.242 224.151 332.695 224.023 332.945 223.94L332.555 222.131C332.427 222.163 332.165 222.22 331.877 222.22C331.296 222.22 330.829 222.016 330.829 221.083V216.007H332.766V214.218ZM338.942 224.228C341.23 224.228 342.803 223.109 343.212 221.402L341.051 221.159C340.738 221.99 339.971 222.425 338.974 222.425C337.478 222.425 336.487 221.441 336.468 219.759H343.308V219.05C343.308 215.605 341.237 214.09 338.821 214.09C336.008 214.09 334.174 216.154 334.174 219.184C334.174 222.265 335.983 224.228 338.942 224.228ZM336.475 218.2C336.545 216.947 337.472 215.892 338.853 215.892C340.182 215.892 341.077 216.864 341.09 218.2H336.475ZM346.691 224.176C347.445 224.176 348.091 223.55 348.097 222.77C348.091 222.003 347.445 221.377 346.691 221.377C345.911 221.377 345.278 222.003 345.285 222.77C345.278 223.55 345.911 224.176 346.691 224.176ZM354.769 224.228C357.236 224.228 358.809 222.764 358.975 220.68H356.763C356.565 221.735 355.804 222.342 354.788 222.342C353.343 222.342 352.41 221.134 352.41 219.127C352.41 217.145 353.362 215.956 354.788 215.956C355.9 215.956 356.584 216.672 356.763 217.618H358.975C358.815 215.49 357.153 214.09 354.756 214.09C351.88 214.09 350.064 216.167 350.064 219.165C350.064 222.137 351.835 224.228 354.769 224.228ZM365.157 224.228C368.034 224.228 369.862 222.201 369.862 219.165C369.862 216.122 368.034 214.09 365.157 214.09C362.281 214.09 360.453 216.122 360.453 219.165C360.453 222.201 362.281 224.228 365.157 224.228ZM365.17 222.374C363.579 222.374 362.799 220.955 362.799 219.159C362.799 217.362 363.579 215.924 365.17 215.924C366.736 215.924 367.516 217.362 367.516 219.159C367.516 220.955 366.736 222.374 365.17 222.374ZM371.826 224.036H374.14V218.066C374.14 216.857 374.945 216.039 375.942 216.039C376.92 216.039 377.592 216.698 377.592 217.708V224.036H379.861V217.912C379.861 216.806 380.519 216.039 381.638 216.039C382.571 216.039 383.312 216.589 383.312 217.804V224.036H385.633V217.446C385.633 215.253 384.367 214.09 382.565 214.09C381.139 214.09 380.052 214.793 379.618 215.886H379.516C379.138 214.774 378.186 214.09 376.863 214.09C375.546 214.09 374.562 214.767 374.153 215.886H374.038V214.218H371.826V224.036Z" fill="#131313"/>
<path d="M530.315 224.228C533.192 224.228 535.02 222.201 535.02 219.165C535.02 216.122 533.192 214.09 530.315 214.09C527.439 214.09 525.611 216.122 525.611 219.165C525.611 222.201 527.439 224.228 530.315 224.228ZM530.328 222.374C528.737 222.374 527.957 220.955 527.957 219.159C527.957 217.362 528.737 215.924 530.328 215.924C531.894 215.924 532.674 217.362 532.674 219.159C532.674 220.955 531.894 222.374 530.328 222.374ZM536.984 224.036H539.298V218.264C539.298 217.017 540.237 216.135 541.509 216.135C541.899 216.135 542.385 216.206 542.583 216.269V214.141C542.372 214.103 542.008 214.077 541.752 214.077C540.627 214.077 539.688 214.716 539.33 215.854H539.227V214.218H536.984V224.036ZM544.121 224.036H546.434V214.218H544.121V224.036ZM545.284 212.824C546.019 212.824 546.62 212.262 546.62 211.571C546.62 210.875 546.019 210.312 545.284 210.312C544.542 210.312 543.942 210.875 543.942 211.571C543.942 212.262 544.542 212.824 545.284 212.824ZM553.084 227.922C555.737 227.922 557.692 226.708 557.692 224.196V214.218H555.411V215.841H555.283C554.931 215.132 554.196 214.09 552.464 214.09C550.195 214.09 548.411 215.867 548.411 219.095C548.411 222.297 550.195 223.895 552.457 223.895C554.139 223.895 554.925 222.994 555.283 222.272H555.398V224.132C555.398 225.576 554.439 226.171 553.122 226.171C551.729 226.171 551.115 225.512 550.834 224.937L548.75 225.442C549.172 226.816 550.585 227.922 553.084 227.922ZM553.103 222.08C551.575 222.08 550.77 220.891 550.77 219.082C550.77 217.299 551.563 215.988 553.103 215.988C554.592 215.988 555.411 217.222 555.411 219.082C555.411 220.955 554.58 222.08 553.103 222.08ZM560.064 224.036H562.378V214.218H560.064V224.036ZM561.227 212.824C561.962 212.824 562.563 212.262 562.563 211.571C562.563 210.875 561.962 210.312 561.227 210.312C560.486 210.312 559.885 210.875 559.885 211.571C559.885 212.262 560.486 212.824 561.227 212.824ZM567.071 218.283C567.071 216.864 567.928 216.046 569.149 216.046C570.344 216.046 571.06 216.832 571.06 218.142V224.036H573.374V217.784C573.38 215.432 572.038 214.09 570.012 214.09C568.541 214.09 567.531 214.793 567.084 215.886H566.969V214.218H564.757V224.036H567.071V218.283ZM577.151 224.176C577.906 224.176 578.551 223.55 578.558 222.77C578.551 222.003 577.906 221.377 577.151 221.377C576.372 221.377 575.739 222.003 575.745 222.77C575.739 223.55 576.372 224.176 577.151 224.176ZM588.707 216.813C588.387 215.151 587.058 214.09 584.756 214.09C582.391 214.09 580.781 215.253 580.787 217.068C580.781 218.5 581.663 219.446 583.548 219.836L585.223 220.188C586.124 220.386 586.546 220.75 586.546 221.306C586.546 221.978 585.817 222.482 584.718 222.482C583.657 222.482 582.967 222.022 582.768 221.14L580.512 221.357C580.8 223.16 582.315 224.228 584.724 224.228C587.179 224.228 588.911 222.956 588.918 221.095C588.911 219.696 588.01 218.839 586.156 218.436L584.482 218.078C583.484 217.855 583.088 217.509 583.094 216.941C583.088 216.276 583.823 215.816 584.788 215.816C585.856 215.816 586.418 216.397 586.597 217.043L588.707 216.813ZM590.826 224.036H593.14V214.218H590.826V224.036ZM591.989 212.824C592.724 212.824 593.325 212.262 593.325 211.571C593.325 210.875 592.724 210.312 591.989 210.312C591.248 210.312 590.647 210.875 590.647 211.571C590.647 212.262 591.248 212.824 591.989 212.824ZM600.422 214.218H598.485V211.865H596.171V214.218H594.778V216.007H596.171V221.466C596.158 223.313 597.501 224.221 599.239 224.17C599.898 224.151 600.351 224.023 600.601 223.94L600.211 222.131C600.083 222.163 599.821 222.22 599.533 222.22C598.952 222.22 598.485 222.016 598.485 221.083V216.007H600.422V214.218ZM606.598 224.228C608.886 224.228 610.459 223.109 610.868 221.402L608.707 221.159C608.394 221.99 607.627 222.425 606.63 222.425C605.134 222.425 604.143 221.441 604.124 219.759H610.964V219.05C610.964 215.605 608.893 214.09 606.477 214.09C603.664 214.09 601.83 216.154 601.83 219.184C601.83 222.265 603.639 224.228 606.598 224.228ZM604.131 218.2C604.201 216.947 605.128 215.892 606.509 215.892C607.838 215.892 608.733 216.864 608.746 218.2H604.131ZM614.347 224.176C615.101 224.176 615.747 223.55 615.753 222.77C615.747 222.003 615.101 221.377 614.347 221.377C613.567 221.377 612.934 222.003 612.941 222.77C612.934 223.55 613.567 224.176 614.347 224.176ZM622.425 224.228C624.892 224.228 626.465 222.764 626.631 220.68H624.419C624.221 221.735 623.46 222.342 622.444 222.342C620.999 222.342 620.066 221.134 620.066 219.127C620.066 217.145 621.018 215.956 622.444 215.956C623.556 215.956 624.24 216.672 624.419 217.618H626.631C626.471 215.49 624.809 214.09 622.412 214.09C619.536 214.09 617.72 216.167 617.72 219.165C617.72 222.137 619.491 224.228 622.425 224.228ZM632.813 224.228C635.69 224.228 637.518 222.201 637.518 219.165C637.518 216.122 635.69 214.09 632.813 214.09C629.937 214.09 628.109 216.122 628.109 219.165C628.109 222.201 629.937 224.228 632.813 224.228ZM632.826 222.374C631.235 222.374 630.455 220.955 630.455 219.159C630.455 217.362 631.235 215.924 632.826 215.924C634.392 215.924 635.172 217.362 635.172 219.159C635.172 220.955 634.392 222.374 632.826 222.374ZM639.482 224.036H641.796V218.066C641.796 216.857 642.601 216.039 643.598 216.039C644.576 216.039 645.248 216.698 645.248 217.708V224.036H647.517V217.912C647.517 216.806 648.175 216.039 649.294 216.039C650.227 216.039 650.968 216.589 650.968 217.804V224.036H653.289V217.446C653.289 215.253 652.023 214.09 650.221 214.09C648.795 214.09 647.708 214.793 647.274 215.886H647.172C646.794 214.774 645.842 214.09 644.519 214.09C643.202 214.09 642.218 214.767 641.809 215.886H641.694V214.218H639.482V224.036Z" fill="#131313"/>
<path d="M154.154 101.127H125.152L108.58 101.128H104.203C102.334 101.128 100.714 99.8331 100.301 98.01L98.6316 90.6272L99.6978 124.644C99.7655 126.803 101.535 128.519 103.696 128.519H112.11H125.152H154.154V143.947C154.154 144.832 155.22 145.281 155.853 144.662L185.354 115.817C186.165 115.025 186.155 113.718 185.333 112.937L155.842 84.9268C155.205 84.3217 154.154 84.7733 154.154 85.6519V101.127Z" fill="#EDECFF" stroke="#6159F6" stroke-linecap="round"/>
<path d="M461.654 101.127H432.653L416.081 101.128H411.703C409.834 101.128 408.214 99.8331 407.802 98.01L406.132 90.6272L407.198 124.644C407.266 126.803 409.036 128.519 411.196 128.519H419.611H432.653H461.654V143.947C461.654 144.832 462.72 145.281 463.353 144.662L492.855 115.817C493.665 115.025 493.656 113.718 492.834 112.937L463.343 84.9268C462.706 84.3217 461.654 84.7733 461.654 85.6519V101.127Z" fill="#EDECFF" stroke="#6159F6" stroke-linecap="round"/>
<rect x="204.86" y="31.3228" width="238.321" height="167" rx="4.5" fill="white" stroke="#6159F6"/>
<rect x="209.706" y="36.7341" width="229.949" height="10.8243" rx="2.75" fill="#EDECFF" stroke="#6159F6" stroke-width="0.5"/>
<path d="M212.114 52.4688H436.718C438.237 52.4688 439.468 53.7 439.468 55.2188V191.397C439.468 192.915 438.237 194.147 436.718 194.147H212.114C210.596 194.147 209.364 192.915 209.364 191.397V55.2188C209.364 53.7 210.596 52.4688 212.114 52.4688Z" fill="white" stroke="#6159F6" stroke-width="0.5"/>
<rect x="246.793" y="38.7168" width="190.597" height="6.86079" rx="1.75" fill="white" stroke="#6159F6" stroke-width="0.5"/>
<circle cx="215.118" cy="42.1466" r="2.19864" fill="white" stroke="#6159F6"/>
<circle cx="220.78" cy="42.1466" r="2.19864" fill="white" stroke="#6159F6"/>
<circle cx="226.442" cy="42.1466" r="2.19864" fill="white" stroke="#6159F6"/>
<rect x="47.6035" y="31.1912" width="87.7858" height="167.263" rx="7.5" fill="white" stroke="#6159F6"/>
<rect x="54.026" y="45.1201" width="74.5648" height="13.6789" rx="2.75" fill="#EDECFF" stroke="#6159F6" stroke-width="0.5"/>
<rect x="54.026" y="61.801" width="74.5648" height="97.0842" rx="2.75" fill="#EDECFF" stroke="#6159F6" stroke-width="0.5"/>
<rect x="54.026" y="161.888" width="17.8492" height="28.6919" rx="2.75" fill="white" stroke="#6159F6" stroke-width="0.5"/>
<rect x="74.8772" y="161.888" width="17.8492" height="28.6919" rx="2.75" fill="white" stroke="#6159F6" stroke-width="0.5"/>
<rect x="95.7286" y="161.888" width="32.8621" height="28.6919" rx="2.75" fill="white" stroke="#6159F6" stroke-width="0.5"/>
<rect x="80.7156" y="47.6223" width="45.3729" height="8.67458" rx="2.75" fill="white" stroke="#6159F6" stroke-width="0.5"/>
<circle cx="59.6338" cy="52.0304" r="2.64804" fill="white" stroke="#6159F6"/>
<circle cx="66.794" cy="52.0304" r="2.64804" fill="white" stroke="#6159F6"/>
<circle cx="73.9541" cy="52.0304" r="2.64804" fill="white" stroke="#6159F6"/>
<path d="M125.511 36.5293H110.526C109.615 36.5293 108.88 37.261 108.88 38.1682C108.88 40.9193 106.645 43.1436 103.882 43.1436H78.7347C75.9711 43.1436 73.7367 40.9193 73.7367 38.1682C73.7367 37.261 73.0016 36.5293 72.0902 36.5293H57.1058C54.3422 36.5293 52.1078 38.7536 52.1078 41.5047V188.744C52.1078 191.495 54.3422 193.719 57.1058 193.719H125.511C128.274 193.719 130.509 191.495 130.509 188.744V41.5047C130.509 38.7536 128.274 36.5293 125.511 36.5293Z" stroke="#6259F5" stroke-width="0.5" stroke-miterlimit="10"/>
<path d="M229.601 124.43L221.449 128.357L250.921 142.815L280.394 128.357L272.242 124.43L250.921 134.872L229.601 124.43Z" fill="#E95495"/>
<path d="M250.921 126.84L237.753 120.414L229.601 124.43L250.921 134.872L272.242 124.43L264.09 120.414L250.921 126.84Z" fill="#F195BD"/>
<path d="M237.753 120.414L250.921 126.84L264.09 120.414L250.921 113.988L237.753 120.414Z" fill="#F6BDD6"/>
<path d="M250.384 112.739L237.753 118.897L240.798 120.414L250.921 115.416L261.044 120.414L264.09 118.897L251.548 112.739C251.19 112.561 250.742 112.561 250.384 112.739Z" fill="#ABA9A9"/>
<path d="M264.09 121.931L269.196 124.43L272.242 122.913L267.136 120.414L264.09 121.931Z" fill="#777475"/>
<path d="M234.707 120.414L229.601 122.913L232.646 124.43L237.753 121.931L234.707 120.414Z" fill="#777475"/>
<path d="M269.196 116.398L272.242 114.881L251.548 104.796C251.19 104.618 250.742 104.618 250.384 104.796L229.601 114.97L232.646 116.487L250.921 107.563L269.196 116.398Z" fill="#777475"/>
<path d="M281.737 120.414C281.737 119.878 281.469 119.432 281.021 119.254L275.287 116.487L281.021 113.631C281.469 113.363 281.737 112.917 281.737 112.471C281.737 112.025 281.469 111.489 281.021 111.311L251.548 96.853C251.19 96.6745 250.742 96.6745 250.384 96.853L220.822 111.221C220.374 111.489 220.105 111.935 220.105 112.471C220.105 113.006 220.374 113.453 220.822 113.631L226.555 116.398L220.822 119.164C220.374 119.432 220.105 119.878 220.105 120.414C220.105 120.949 220.374 121.395 220.822 121.574L226.555 124.34L220.822 127.107C220.374 127.375 220.105 127.91 220.105 128.357C220.105 128.803 220.374 129.338 220.822 129.517L250.384 143.974C250.563 144.064 250.742 144.153 251.011 144.153C251.279 144.153 251.459 144.064 251.638 143.974L281.021 129.606C281.469 129.338 281.737 128.892 281.737 128.446C281.737 128 281.469 127.464 281.021 127.286L275.287 124.519L281.021 121.752C281.469 121.395 281.737 120.949 281.737 120.414ZM224.494 112.471L250.921 99.5303L277.348 112.471L272.242 114.97L269.196 116.487L264.09 118.986L261.044 120.503L250.921 125.501L240.798 120.503L237.753 118.986L232.646 116.398L229.601 114.881L224.494 112.471ZM277.348 128.357L250.921 141.297L224.494 128.357L229.601 125.858L250.384 136.032C250.563 136.121 250.742 136.21 251.011 136.21C251.279 136.21 251.459 136.121 251.638 136.032L272.421 125.858L277.348 128.357ZM272.242 122.913L269.196 124.43L250.921 133.354L232.646 124.43L229.601 122.913L224.494 120.414L229.601 117.915L234.707 120.414L237.753 121.931L250.384 128.089C250.563 128.178 250.742 128.267 251.011 128.267C251.279 128.267 251.459 128.178 251.638 128.089L264.269 121.931L267.315 120.414L272.421 117.915L277.527 120.414L272.242 122.913Z" fill="black"/>
<path d="M298.4 131.838V102.565H303.685V127.375H316.585V131.838H298.4Z" fill="black"/>
<path d="M327.335 132.284C325.901 132.284 324.647 132.016 323.572 131.57C322.497 131.124 321.601 130.32 320.974 129.339C320.347 128.357 319.989 127.108 319.989 125.68C319.989 124.43 320.258 123.448 320.706 122.645C321.153 121.842 321.781 121.217 322.587 120.682C323.393 120.236 324.289 119.789 325.274 119.611C326.26 119.343 327.335 119.165 328.41 119.075C329.664 118.986 330.739 118.808 331.545 118.718C332.351 118.629 332.889 118.451 333.337 118.183C333.695 117.915 333.874 117.558 333.874 117.112V117.023C333.874 115.952 333.516 115.149 332.889 114.524C332.262 113.899 331.366 113.632 330.112 113.632C328.858 113.632 327.872 113.899 327.066 114.435C326.26 114.97 325.812 115.595 325.543 116.398L320.706 115.684C321.064 114.345 321.691 113.275 322.587 112.382C323.483 111.49 324.558 110.776 325.812 110.329C327.066 109.883 328.499 109.615 330.022 109.615C331.097 109.615 332.172 109.705 333.157 109.972C334.232 110.24 335.128 110.597 336.024 111.222C336.92 111.757 337.637 112.561 338.084 113.542C338.622 114.524 338.891 115.684 338.891 117.201V131.838H333.874V128.803H333.695C333.337 129.428 332.978 129.963 332.351 130.499C331.814 131.034 331.097 131.481 330.201 131.748C329.485 132.105 328.499 132.284 327.335 132.284ZM328.678 128.446C329.753 128.446 330.649 128.268 331.366 127.821C332.172 127.375 332.71 126.84 333.157 126.215C333.605 125.501 333.785 124.787 333.785 123.984V121.396C333.605 121.485 333.337 121.664 332.978 121.753C332.62 121.842 332.172 121.931 331.724 122.021C331.276 122.11 330.739 122.199 330.291 122.288C329.843 122.378 329.395 122.378 329.037 122.467C328.23 122.556 327.603 122.735 326.976 123.002C326.349 123.27 325.901 123.538 325.543 123.984C325.185 124.43 325.005 124.966 325.005 125.59C325.005 126.572 325.364 127.286 326.08 127.732C326.708 128.268 327.603 128.446 328.678 128.446Z" fill="black"/>
<path d="M346.595 139.959C345.878 139.959 345.251 139.87 344.624 139.78C343.997 139.691 343.549 139.513 343.19 139.423L344.355 135.407C345.52 135.764 346.415 135.764 347.222 135.586C348.028 135.407 348.655 134.693 349.103 133.444L349.551 132.284L341.578 109.883H347.042L352.149 126.394H352.417L357.524 109.883H363.078L354.209 134.426C353.761 135.586 353.224 136.567 352.597 137.371C351.88 138.174 351.074 138.799 350.088 139.245C349.192 139.78 348.028 139.959 346.595 139.959Z" fill="black"/>
<path d="M375.619 132.284C373.38 132.284 371.498 131.838 369.886 130.945C368.274 130.053 367.019 128.714 366.213 127.018C365.317 125.323 364.959 123.359 364.959 121.039C364.959 118.808 365.407 116.844 366.213 115.059C367.109 113.364 368.274 112.025 369.886 111.043C371.409 110.062 373.29 109.615 375.35 109.615C376.694 109.615 377.948 109.794 379.203 110.24C380.367 110.686 381.442 111.311 382.427 112.204C383.413 113.096 384.13 114.256 384.667 115.684C385.204 117.112 385.473 118.718 385.473 120.682V122.288H367.467V118.808H380.457C380.457 117.826 380.188 116.934 379.83 116.13C379.382 115.327 378.844 114.702 378.038 114.256C377.321 113.81 376.425 113.542 375.44 113.542C374.365 113.542 373.469 113.81 372.663 114.345C371.857 114.881 371.23 115.506 370.782 116.309C370.334 117.112 370.155 118.005 370.065 118.986V122.021C370.065 123.27 370.334 124.43 370.782 125.323C371.23 126.215 371.946 126.929 372.753 127.375C373.559 127.821 374.544 128.089 375.709 128.089C376.425 128.089 377.142 128 377.769 127.732C378.396 127.554 378.934 127.197 379.382 126.751C379.83 126.304 380.188 125.858 380.367 125.233L385.204 125.769C384.936 127.018 384.309 128.178 383.502 129.071C382.696 129.963 381.532 130.767 380.188 131.302C378.844 132.016 377.321 132.284 375.619 132.284Z" fill="black"/>
<path d="M389.773 131.838V109.883H394.79V113.542H395.059C395.417 112.293 396.134 111.311 397.119 110.597C398.104 109.883 399.179 109.526 400.433 109.526C400.702 109.526 401.061 109.526 401.419 109.526C401.777 109.526 402.046 109.615 402.315 109.615V114.524C402.135 114.435 401.777 114.345 401.24 114.345C400.702 114.345 400.344 114.256 399.896 114.256C398.911 114.256 398.104 114.435 397.388 114.881C396.671 115.327 396.044 115.863 395.596 116.577C395.148 117.291 394.969 118.094 394.969 119.075V131.927H389.773V131.838Z" fill="black"/>
<path d="M417.096 133.712H416.469C410.467 133.712 405.629 128.892 405.629 122.913V113.988C405.629 108.009 410.467 103.19 416.469 103.19H417.096C423.098 103.19 427.935 108.009 427.935 113.988V122.913C427.935 128.892 423.098 133.712 417.096 133.712ZM416.469 108.545C413.423 108.545 411.004 110.954 411.004 113.988V122.913C411.004 125.947 413.423 128.357 416.469 128.357H417.096C420.141 128.357 422.56 125.947 422.56 122.913V113.988C422.56 110.954 420.141 108.545 417.096 108.545H416.469V108.545Z" fill="#E95495"/>
<path d="M422.718 108.896L407.049 124.206L410.813 128.029L426.481 112.719L422.718 108.896Z" fill="#E95495"/>
<path d="M620.935 111.253H621.435H620.935ZM606.361 89.3714C606.637 89.3714 606.861 89.1476 606.861 88.8714C606.861 88.5953 606.637 88.3714 606.361 88.3714V89.3714ZM606.361 99.7241C606.637 99.7241 606.861 99.5002 606.861 99.2241C606.861 98.9479 606.637 98.7241 606.361 98.7241V99.7241ZM516.651 103.365H516.151V103.865H516.651V103.365ZM516.651 84.5332V84.0332H516.151V84.5332H516.651ZM523.84 84.5332L523.895 84.0362L523.868 84.0332H523.84V84.5332ZM516.053 58.8981C516.053 59.1742 516.277 59.3981 516.553 59.3981C516.829 59.3981 517.053 59.1742 517.053 58.8981H516.053ZM517.152 58.2252C517.152 57.949 516.928 57.7252 516.652 57.7252C516.375 57.7252 516.152 57.949 516.152 58.2252H517.152ZM606.361 46.6791C606.637 46.6791 606.861 46.4552 606.861 46.1791C606.861 45.9029 606.637 45.6791 606.361 45.6791L606.361 46.6791ZM606.361 57.0317C606.637 57.0317 606.861 56.8079 606.861 56.5317C606.861 56.2556 606.637 56.0317 606.361 56.0317L606.361 57.0317ZM621.435 153.058C621.435 152.782 621.212 152.558 620.935 152.558C620.659 152.558 620.435 152.782 620.435 153.058H621.435ZM620.435 152.762C620.435 153.038 620.659 153.262 620.935 153.262C621.212 153.262 621.435 153.038 621.435 152.762H620.435ZM606.361 131.965C606.637 131.965 606.861 131.741 606.861 131.465C606.861 131.189 606.637 130.965 606.361 130.965L606.361 131.965ZM606.361 142.318C606.637 142.318 606.861 142.094 606.861 141.818C606.861 141.542 606.637 141.318 606.361 141.318V142.318ZM516.651 145.86H516.151V146.36H516.651V145.86ZM516.651 127.028V126.528H516.151V127.028H516.651ZM523.84 127.028L523.895 126.531L523.868 126.528H523.84V127.028ZM516.652 191.018H517.152L517.152 191.016L516.652 191.018ZM516.553 161.636H516.053L516.053 161.637L516.553 161.636ZM606.361 174.46C606.637 174.46 606.861 174.237 606.861 173.96C606.861 173.684 606.637 173.46 606.361 173.46L606.361 174.46ZM606.361 184.813C606.637 184.813 606.861 184.589 606.861 184.313C606.861 184.037 606.637 183.813 606.361 183.813V184.813ZM640.827 97.7522C641.103 97.7522 641.327 97.5283 641.327 97.2522C641.327 96.976 641.103 96.7522 640.827 96.7522V97.7522ZM620.738 96.7522C620.462 96.7522 620.238 96.976 620.238 97.2522C620.238 97.5283 620.462 97.7522 620.738 97.7522V96.7522ZM640.827 106.133C641.103 106.133 641.327 105.909 641.327 105.633C641.327 105.357 641.103 105.133 640.827 105.133V106.133ZM620.738 105.133C620.462 105.133 620.238 105.357 620.238 105.633C620.238 105.909 620.462 106.133 620.738 106.133V105.133ZM662.984 108.985V109.485H663.484V108.985H662.984ZM662.984 93.7027H663.484V93.2027H662.984V93.7027ZM640.827 63.0462C641.103 63.0462 641.327 62.8223 641.327 62.5462C641.327 62.27 641.103 62.0462 640.827 62.0462V63.0462ZM620.935 62.0462C620.659 62.0462 620.435 62.27 620.435 62.5462C620.435 62.8223 620.659 63.0462 620.935 63.0462V62.0462ZM640.827 71.4269C641.103 71.4269 641.327 71.203 641.327 70.9269C641.327 70.6507 641.103 70.4269 640.827 70.4269V71.4269ZM619.064 70.4269C618.788 70.4269 618.564 70.6507 618.564 70.9269C618.564 71.203 618.788 71.4269 619.064 71.4269V70.4269ZM662.984 74.1806V74.6806H663.484V74.1806H662.984ZM662.984 58.8981H663.484V58.3981H662.984V58.8981ZM657.568 58.8981V58.3981H657.54L657.512 58.4011L657.568 58.8981ZM640.827 166.77C641.103 166.77 641.327 166.546 641.327 166.27C641.327 165.994 641.103 165.77 640.827 165.77V166.77ZM620.935 165.77C620.659 165.77 620.435 165.994 620.435 166.27C620.435 166.546 620.659 166.77 620.935 166.77V165.77ZM640.827 175.151C641.103 175.151 641.327 174.927 641.327 174.651C641.327 174.374 641.103 174.151 640.827 174.151V175.151ZM620.935 174.151C620.659 174.151 620.435 174.374 620.435 174.651C620.435 174.927 620.659 175.151 620.935 175.151V174.151ZM662.983 178.003V178.503H663.483V178.003H662.983ZM662.983 162.72H663.483V162.22H662.983V162.72ZM657.567 162.72V162.22H657.54L657.512 162.223L657.567 162.72ZM641.024 132.306C641.3 132.306 641.524 132.083 641.524 131.806C641.524 131.53 641.3 131.306 641.024 131.306V132.306ZM621.132 131.306C620.856 131.306 620.632 131.53 620.632 131.806C620.632 132.083 620.856 132.306 621.132 132.306V131.306ZM641.024 140.687C641.3 140.687 641.524 140.463 641.524 140.187C641.524 139.911 641.3 139.687 641.024 139.687V140.687ZM621.132 139.687C620.856 139.687 620.632 139.911 620.632 140.187C620.632 140.463 620.856 140.687 621.132 140.687V139.687ZM663.181 143.539V144.039H663.681V143.539H663.181ZM663.181 128.257H663.681V127.757H663.181V128.257ZM657.765 128.257V127.757H657.737L657.709 127.76L657.765 128.257ZM516.651 60.7816H516.151V61.2816H516.651V60.7816ZM516.651 41.9497V41.4497H516.151V41.9497H516.651ZM523.84 41.9497L523.895 41.4528L523.868 41.4497H523.84V41.9497ZM516.651 188.008H516.151V188.508H516.651V188.008ZM516.651 169.176V168.676H516.151V169.176H516.651ZM523.84 169.176L523.895 168.679L523.868 168.676H523.84V169.176ZM618.769 112.823H518.719V113.823H618.769V112.823ZM518.719 112.823C517.83 112.823 517.151 112.077 517.151 111.253H516.151C516.151 112.597 517.246 113.823 518.719 113.823V112.823ZM517.151 111.253V76.6454H516.151V111.253H517.151ZM517.151 76.6454C517.151 75.7531 517.897 75.0749 518.719 75.0749V74.0749C517.375 74.0749 516.151 75.1714 516.151 76.6454H517.151ZM518.719 75.0749H618.867V74.0749H518.719V75.0749ZM618.867 75.0749C619.757 75.0749 620.435 75.8208 620.435 76.6454H621.435C621.435 75.3009 620.341 74.0749 618.867 74.0749V75.0749ZM620.435 76.6454V111.253H621.435V76.6454H620.435ZM620.435 111.253C620.435 112.131 619.705 112.823 618.769 112.823V113.823C620.197 113.823 621.435 112.742 621.435 111.253L620.435 111.253ZM543.626 88.8714C543.626 90.5562 542.262 91.9209 540.581 91.9209V92.9209C542.815 92.9209 544.626 91.1073 544.626 88.8714H543.626ZM540.581 91.9209C538.9 91.9209 537.536 90.5562 537.536 88.8714H536.536C536.536 91.1073 538.346 92.9209 540.581 92.9209V91.9209ZM537.536 88.8714C537.536 87.1867 538.9 85.8219 540.581 85.8219V84.8219C538.346 84.8219 536.536 86.6355 536.536 88.8714H537.536ZM540.581 85.8219C542.262 85.8219 543.626 87.1866 543.626 88.8714H544.626C544.626 86.6356 542.815 84.8219 540.581 84.8219V85.8219ZM543.626 99.2241C543.626 100.909 542.262 102.274 540.581 102.274V103.274C542.815 103.274 544.626 101.46 544.626 99.2241H543.626ZM540.581 102.274C538.9 102.274 537.536 100.909 537.536 99.2241H536.536C536.536 101.46 538.346 103.274 540.581 103.274V102.274ZM537.536 99.2241C537.536 97.5393 538.9 96.1746 540.581 96.1746V95.1746C538.346 95.1746 536.536 96.9882 536.536 99.2241H537.536ZM540.581 96.1746C542.262 96.1746 543.626 97.5393 543.626 99.2241H544.626C544.626 96.9882 542.815 95.1746 540.581 95.1746V96.1746ZM544.126 89.3714H606.361V88.3714H544.126V89.3714ZM544.126 99.7241H606.361V98.7241H544.126V99.7241ZM524.817 86.1107V101.886H525.817V86.1107H524.817ZM524.817 101.886C524.817 102.399 524.351 102.865 523.84 102.865V103.865C524.904 103.865 525.817 102.951 525.817 101.886H524.817ZM523.84 102.865H516.651V103.865H523.84V102.865ZM517.151 103.365V84.5332H516.151V103.365H517.151ZM516.651 85.0332H523.84V84.0332H516.651V85.0332ZM523.785 85.0301C524.426 85.1015 524.817 85.585 524.817 86.1107H525.817C525.817 85.0589 525.026 84.1621 523.895 84.0362L523.785 85.0301ZM517.053 58.8981V33.8545H516.053V58.8981H517.053ZM517.053 33.8545C517.053 32.9622 517.799 32.2839 518.621 32.2839V31.2839C517.277 31.2839 516.053 32.3804 516.053 33.8545H517.053ZM518.621 32.2839H618.769V31.2839H518.621V32.2839ZM618.769 32.2839C619.659 32.2839 620.337 33.0299 620.337 33.8545H621.337C621.337 32.5099 620.243 31.2839 618.769 31.2839V32.2839ZM620.337 33.8545V68.4619H621.337V33.8545H620.337ZM620.337 68.4619C620.337 69.3542 619.591 70.0325 618.769 70.0325V71.0325C620.113 71.0325 621.337 69.936 621.337 68.4619H620.337ZM618.769 70.0325H518.719V71.0325H618.769V70.0325ZM518.719 70.0325C517.83 70.0325 517.152 69.2866 517.152 68.4619H516.152C516.152 69.8064 517.246 71.0325 518.719 71.0325V70.0325ZM517.152 68.4619V58.2252H516.152V68.4619H517.152ZM543.626 46.1791C543.626 47.8639 542.262 49.2285 540.581 49.2285V50.2285C542.815 50.2285 544.626 48.4149 544.626 46.1791H543.626ZM540.581 49.2285C538.9 49.2285 537.536 47.8638 537.536 46.1791H536.536C536.536 48.415 538.346 50.2285 540.581 50.2285V49.2285ZM537.536 46.1791C537.536 44.4943 538.9 43.1296 540.581 43.1296V42.1296C538.346 42.1296 536.536 43.9432 536.536 46.1791H537.536ZM540.581 43.1296C542.262 43.1296 543.626 44.4943 543.626 46.1791H544.626C544.626 43.9432 542.815 42.1296 540.581 42.1296V43.1296ZM543.626 56.5317C543.626 58.2165 542.262 59.5812 540.581 59.5812V60.5812C542.815 60.5812 544.626 58.7676 544.626 56.5317H543.626ZM540.581 59.5812C538.9 59.5812 537.536 58.2165 537.536 56.5317H536.536C536.536 58.7676 538.346 60.5812 540.581 60.5812V59.5812ZM537.536 56.5317C537.536 54.847 538.9 53.4822 540.581 53.4822V52.4822C538.346 52.4822 536.536 54.2958 536.536 56.5317H537.536ZM540.581 53.4822C542.262 53.4822 543.626 54.8469 543.626 56.5317H544.626C544.626 54.2958 542.815 52.4822 540.581 52.4822V53.4822ZM544.126 46.6791L606.361 46.6791L606.361 45.6791L544.126 45.6791L544.126 46.6791ZM544.126 57.0317L606.361 57.0317L606.361 56.0317L544.126 56.0317L544.126 57.0317ZM620.435 153.058V154.044H621.435V153.058H620.435ZM620.435 154.044C620.435 154.754 619.871 155.319 619.163 155.319V156.319C620.424 156.319 621.435 155.305 621.435 154.044H620.435ZM619.163 155.319H518.325V156.319H619.163V155.319ZM518.325 155.319C517.617 155.319 517.053 154.754 517.053 154.044H516.053C516.053 155.305 517.064 156.319 518.325 156.319V155.319ZM517.053 154.044V118.746H516.053V154.044H517.053ZM517.053 118.746C517.053 118.036 517.617 117.471 518.325 117.471V116.471C517.064 116.471 516.053 117.485 516.053 118.746H517.053ZM518.325 117.471H619.163V116.471H518.325V117.471ZM619.163 117.471C619.871 117.471 620.435 118.036 620.435 118.746H621.435C621.435 117.485 620.424 116.471 619.163 116.471V117.471ZM620.435 118.746V152.762H621.435V118.746H620.435ZM543.626 131.465C543.626 133.15 542.262 134.515 540.581 134.515V135.515C542.815 135.515 544.626 133.701 544.626 131.465H543.626ZM540.581 134.515C538.9 134.515 537.536 133.15 537.536 131.465H536.536C536.536 133.701 538.346 135.515 540.581 135.515V134.515ZM537.536 131.465C537.536 129.78 538.9 128.416 540.581 128.416V127.416C538.346 127.416 536.536 129.229 536.536 131.465H537.536ZM540.581 128.416C542.262 128.416 543.626 129.78 543.626 131.465H544.626C544.626 129.229 542.815 127.416 540.581 127.416V128.416ZM543.626 141.818C543.626 143.503 542.262 144.867 540.581 144.867V145.867C542.815 145.867 544.626 144.054 544.626 141.818H543.626ZM540.581 144.867C538.9 144.867 537.536 143.503 537.536 141.818H536.536C536.536 144.054 538.346 145.867 540.581 145.867V144.867ZM537.536 141.818C537.536 140.133 538.9 138.768 540.581 138.768V137.768C538.346 137.768 536.536 139.582 536.536 141.818H537.536ZM540.581 138.768C542.262 138.768 543.626 140.133 543.626 141.818H544.626C544.626 139.582 542.815 137.768 540.581 137.768V138.768ZM544.126 131.965L606.361 131.965L606.361 130.965L544.126 130.965L544.126 131.965ZM544.126 142.318H606.361V141.318H544.126V142.318ZM524.817 128.606V144.381H525.817V128.606H524.817ZM524.817 144.381C524.817 144.895 524.351 145.36 523.84 145.36V146.36C524.904 146.36 525.817 145.446 525.817 144.381H524.817ZM523.84 145.36H516.651V146.36H523.84V145.36ZM517.151 145.86V127.028H516.151V145.86H517.151ZM516.651 127.528H523.84V126.528H516.651V127.528ZM523.785 127.525C524.426 127.597 524.817 128.08 524.817 128.606H525.817C525.817 127.554 525.026 126.657 523.895 126.531L523.785 127.525ZM517.152 191.016L517.053 161.634L516.053 161.637L516.152 191.019L517.152 191.016ZM517.053 161.636C517.053 160.744 517.799 160.065 518.621 160.065V159.065C517.277 159.065 516.053 160.162 516.053 161.636H517.053ZM518.621 160.065H618.769V159.065H518.621V160.065ZM618.769 160.065C619.659 160.065 620.337 160.811 620.337 161.636H621.337C621.337 160.291 620.243 159.065 618.769 159.065V160.065ZM620.337 161.636V196.243H621.337V161.636H620.337ZM620.337 196.243C620.337 197.135 619.591 197.814 618.769 197.814V198.814C620.113 198.814 621.337 197.717 621.337 196.243H620.337ZM618.769 197.814H518.719V198.814H618.769V197.814ZM518.719 197.814C517.83 197.814 517.152 197.068 517.152 196.243H516.152C516.152 197.588 517.246 198.814 518.719 198.814V197.814ZM517.152 196.243V191.018H516.152V196.243H517.152ZM543.626 173.96C543.626 175.645 542.262 177.01 540.581 177.01V178.01C542.815 178.01 544.626 176.196 544.626 173.96H543.626ZM540.581 177.01C538.9 177.01 537.536 175.645 537.536 173.96H536.536C536.536 176.196 538.346 178.01 540.581 178.01V177.01ZM537.536 173.96C537.536 172.276 538.9 170.911 540.581 170.911V169.911C538.346 169.911 536.536 171.725 536.536 173.96H537.536ZM540.581 170.911C542.262 170.911 543.626 172.276 543.626 173.96H544.626C544.626 171.725 542.815 169.911 540.581 169.911V170.911ZM543.626 184.313C543.626 185.998 542.262 187.363 540.581 187.363V188.363C542.815 188.363 544.626 186.549 544.626 184.313H543.626ZM540.581 187.363C538.9 187.363 537.536 185.998 537.536 184.313H536.536C536.536 186.549 538.346 188.363 540.581 188.363V187.363ZM537.536 184.313C537.536 182.628 538.9 181.264 540.581 181.264V180.264C538.346 180.264 536.536 182.077 536.536 184.313H537.536ZM540.581 181.264C542.262 181.264 543.626 182.628 543.626 184.313H544.626C544.626 182.077 542.815 180.264 540.581 180.264V181.264ZM544.126 174.46L606.361 174.46L606.361 173.46L544.126 173.46L544.126 174.46ZM544.126 184.813H606.361V183.813H544.126V184.813ZM618.67 117.57H661.113V116.57H618.67V117.57ZM661.113 117.57C662.586 117.57 663.681 116.344 663.681 115H662.681C662.681 115.824 662.002 116.57 661.113 116.57V117.57ZM663.681 115V87.6883H662.681V115H663.681ZM663.681 87.6883C663.681 86.2142 662.457 85.1178 661.113 85.1178V86.1178C661.935 86.1178 662.681 86.796 662.681 87.6883H663.681ZM661.113 85.1178H620.935V86.1178H661.113V85.1178ZM646.137 97.2522C646.137 98.6102 645.038 99.7101 643.683 99.7101V100.71C645.591 100.71 647.137 99.1613 647.137 97.2522H646.137ZM643.683 99.7101C642.328 99.7101 641.229 98.6102 641.229 97.2522H640.229C640.229 99.1613 641.775 100.71 643.683 100.71V99.7101ZM641.229 97.2522C641.229 95.8941 642.328 94.7943 643.683 94.7943V93.7943C641.775 93.7943 640.229 95.343 640.229 97.2522H641.229ZM643.683 94.7943C645.038 94.7943 646.137 95.8941 646.137 97.2522H647.137C647.137 95.343 645.591 93.7943 643.683 93.7943V94.7943ZM646.137 105.633C646.137 106.991 645.038 108.091 643.683 108.091V109.091C645.591 109.091 647.137 107.542 647.137 105.633H646.137ZM643.683 108.091C642.328 108.091 641.229 106.991 641.229 105.633H640.229C640.229 107.542 641.775 109.091 643.683 109.091V108.091ZM641.229 105.633C641.229 104.275 642.328 103.175 643.683 103.175V102.175C641.775 102.175 640.229 103.724 640.229 105.633H641.229ZM643.683 103.175C645.038 103.175 646.137 104.275 646.137 105.633H647.137C647.137 103.724 645.591 102.175 643.683 102.175V103.175ZM640.827 96.7522H620.738V97.7522H640.827V96.7522ZM640.827 105.133H620.738V106.133H640.827V105.133ZM655.492 95.2802V107.506H656.492V95.2802H655.492ZM655.492 107.506C655.492 108.571 656.405 109.485 657.469 109.485V108.485C656.958 108.485 656.492 108.019 656.492 107.506H655.492ZM657.469 109.485H662.984V108.485H657.469V109.485ZM663.484 108.985V93.7027H662.484V108.985H663.484ZM662.984 93.2027H657.568V94.2027H662.984V93.2027ZM657.568 93.2027C656.405 93.2027 655.492 94.1173 655.492 95.2802H656.492C656.492 94.6684 656.958 94.2027 657.568 94.2027V93.2027ZM620.541 82.8641H661.014V81.8641H620.541V82.8641ZM661.014 82.8641C662.488 82.8641 663.582 81.6381 663.582 80.2936H662.582C662.582 81.1181 661.904 81.8641 661.014 81.8641V82.8641ZM663.582 80.2936V52.9823H662.582V80.2936H663.582ZM663.582 52.9823C663.582 51.5082 662.359 50.4117 661.014 50.4117V51.4117C661.836 51.4117 662.582 52.09 662.582 52.9823H663.582ZM661.014 50.4117H620.837V51.4117H661.014V50.4117ZM646.137 62.5462C646.137 63.9042 645.038 65.004 643.683 65.004V66.004C645.591 66.004 647.137 64.4553 647.137 62.5462H646.137ZM643.683 65.004C642.328 65.004 641.229 63.9042 641.229 62.5462H640.229C640.229 64.4553 641.775 66.004 643.683 66.004V65.004ZM641.229 62.5462C641.229 61.1881 642.328 60.0883 643.683 60.0883V59.0883C641.775 59.0883 640.229 60.637 640.229 62.5462H641.229ZM643.683 60.0883C645.038 60.0883 646.137 61.1881 646.137 62.5462H647.137C647.137 60.637 645.591 59.0883 643.683 59.0883V60.0883ZM646.137 70.9269C646.137 72.2849 645.038 73.3848 643.683 73.3848V74.3848C645.591 74.3848 647.137 72.836 647.137 70.9269H646.137ZM643.683 73.3848C642.328 73.3848 641.229 72.2849 641.229 70.9269H640.229C640.229 72.836 641.775 74.3848 643.683 74.3848V73.3848ZM641.229 70.9269C641.229 69.5688 642.328 68.469 643.683 68.469V67.469C641.775 67.469 640.229 69.0177 640.229 70.9269H641.229ZM643.683 68.469C645.038 68.469 646.137 69.5688 646.137 70.9269H647.137C647.137 69.0177 645.591 67.469 643.683 67.469V68.469ZM640.827 62.0462H620.935V63.0462H640.827V62.0462ZM640.827 70.4269H619.064V71.4269H640.827V70.4269ZM655.492 60.4756V72.7016H656.492V60.4756H655.492ZM655.492 72.7016C655.492 73.7659 656.405 74.6806 657.469 74.6806V73.6806C656.958 73.6806 656.492 73.2148 656.492 72.7016H655.492ZM657.469 74.6806H662.984V73.6806H657.469V74.6806ZM663.484 74.1806V58.8981H662.484V74.1806H663.484ZM662.984 58.3981H657.568V59.3981H662.984V58.3981ZM657.512 58.4011C656.423 58.5223 655.492 59.3847 655.492 60.4756H656.492C656.492 59.9891 656.94 59.471 657.623 59.395L657.512 58.4011ZM620.738 186.588H661.014V185.588H620.738V186.588ZM661.014 186.588C662.488 186.588 663.582 185.362 663.582 184.017H662.582C662.582 184.842 661.904 185.588 661.014 185.588V186.588ZM663.582 184.017V156.706H662.582V184.017H663.582ZM663.582 156.706C663.582 155.232 662.358 154.135 661.014 154.135V155.135C661.836 155.135 662.582 155.814 662.582 156.706H663.582ZM661.014 154.135H620.837V155.135H661.014V154.135ZM646.137 166.27C646.137 167.628 645.037 168.728 643.682 168.728V169.728C645.591 169.728 647.137 168.179 647.137 166.27H646.137ZM643.682 168.728C642.328 168.728 641.228 167.628 641.228 166.27H640.228C640.228 168.179 641.774 169.728 643.682 169.728V168.728ZM641.228 166.27C641.228 164.912 642.328 163.812 643.682 163.812V162.812C641.774 162.812 640.228 164.361 640.228 166.27H641.228ZM643.682 163.812C645.037 163.812 646.137 164.912 646.137 166.27H647.137C647.137 164.361 645.591 162.812 643.682 162.812V163.812ZM646.137 174.651C646.137 176.009 645.037 177.108 643.682 177.108V178.108C645.591 178.108 647.137 176.56 647.137 174.651H646.137ZM643.682 177.108C642.328 177.108 641.228 176.009 641.228 174.651H640.228C640.228 176.56 641.774 178.108 643.682 178.108V177.108ZM641.228 174.651C641.228 173.293 642.328 172.193 643.682 172.193V171.193C641.774 171.193 640.228 172.741 640.228 174.651H641.228ZM643.682 172.193C645.037 172.193 646.137 173.293 646.137 174.651H647.137C647.137 172.741 645.591 171.193 643.682 171.193V172.193ZM640.827 165.77H620.935V166.77H640.827V165.77ZM640.827 174.151H620.935V175.151H640.827V174.151ZM655.492 164.298V176.524H656.492V164.298H655.492ZM655.492 176.524C655.492 177.588 656.404 178.503 657.469 178.503V177.503C656.958 177.503 656.492 177.037 656.492 176.524H655.492ZM657.469 178.503H662.983V177.503H657.469V178.503ZM663.483 178.003V162.72H662.483V178.003H663.483ZM662.983 162.22H657.567V163.22H662.983V162.22ZM657.512 162.223C656.444 162.342 655.492 163.09 655.492 164.298H656.492C656.492 163.731 656.918 163.296 657.623 163.217L657.512 162.223ZM620.935 152.124H661.211V151.124H620.935V152.124ZM661.211 152.124C662.685 152.124 663.779 150.898 663.779 149.554H662.779C662.779 150.378 662.101 151.124 661.211 151.124V152.124ZM663.779 149.554V122.243H662.779V149.554H663.779ZM663.779 122.243C663.779 120.768 662.556 119.672 661.211 119.672V120.672C662.033 120.672 662.779 121.35 662.779 122.243H663.779ZM661.211 119.672H621.034V120.672H661.211V119.672ZM646.334 131.806C646.334 133.164 645.235 134.264 643.88 134.264V135.264C645.788 135.264 647.334 133.716 647.334 131.806H646.334ZM643.88 134.264C642.525 134.264 641.425 133.164 641.425 131.806H640.425C640.425 133.716 641.971 135.264 643.88 135.264V134.264ZM641.425 131.806C641.425 130.448 642.525 129.348 643.88 129.348V128.348C641.971 128.348 640.425 129.897 640.425 131.806H641.425ZM643.88 129.348C645.235 129.348 646.334 130.448 646.334 131.806H647.334C647.334 129.897 645.788 128.348 643.88 128.348V129.348ZM646.334 140.187C646.334 141.545 645.235 142.645 643.88 142.645V143.645C645.788 143.645 647.334 142.096 647.334 140.187H646.334ZM643.88 142.645C642.525 142.645 641.425 141.545 641.425 140.187H640.425C640.425 142.096 641.971 143.645 643.88 143.645V142.645ZM641.425 140.187C641.425 138.829 642.525 137.729 643.88 137.729V136.729C641.971 136.729 640.425 138.278 640.425 140.187H641.425ZM643.88 137.729C645.235 137.729 646.334 138.829 646.334 140.187H647.334C647.334 138.278 645.788 136.729 643.88 136.729V137.729ZM641.024 131.306H621.132V132.306H641.024V131.306ZM641.024 139.687H621.132V140.687H641.024V139.687ZM655.689 129.834V142.06H656.689V129.834H655.689ZM655.689 142.06C655.689 143.125 656.601 144.039 657.666 144.039V143.039C657.155 143.039 656.689 142.574 656.689 142.06H655.689ZM657.666 144.039H663.181V143.039H657.666V144.039ZM663.681 143.539V128.257H662.681V143.539H663.681ZM663.181 127.757H657.765V128.757H663.181V127.757ZM657.709 127.76C656.641 127.879 655.689 128.627 655.689 129.834H656.689C656.689 129.268 657.115 128.832 657.82 128.754L657.709 127.76ZM524.817 43.5272V59.3027H525.817V43.5272H524.817ZM524.817 59.3027C524.817 59.8159 524.351 60.2816 523.84 60.2816V61.2816C524.904 61.2816 525.817 60.3671 525.817 59.3027H524.817ZM523.84 60.2816H516.651V61.2816H523.84V60.2816ZM517.151 60.7816V41.9497H516.151V60.7816H517.151ZM516.651 42.4497H523.84V41.4497H516.651V42.4497ZM523.785 42.4466C524.426 42.518 524.817 43.0015 524.817 43.5272H525.817C525.817 42.4754 525.026 41.5786 523.895 41.4528L523.785 42.4466ZM524.817 170.754V186.529H525.817V170.754H524.817ZM524.817 186.529C524.817 187.042 524.351 187.508 523.84 187.508V188.508C524.904 188.508 525.817 187.594 525.817 186.529H524.817ZM523.84 187.508H516.651V188.508H523.84V187.508ZM517.151 188.008V169.176H516.151V188.008H517.151ZM516.651 169.676H523.84V168.676H516.651V169.676ZM523.785 169.673C524.426 169.745 524.817 170.228 524.817 170.754H525.817C525.817 169.702 525.026 168.805 523.895 168.679L523.785 169.673Z" fill="#6259F5"/>
<path d="M509.558 51.3298H610.031C612.24 51.3298 614.031 53.1207 614.031 55.3298V80.0383C614.031 82.2475 612.24 84.0383 610.031 84.0383H509.558V51.3298Z" fill="#131313"/>
<path d="M522.8 70.8354C524.557 70.8354 525.675 69.5972 525.675 67.7417C525.675 65.8823 524.557 64.6401 522.8 64.6401C521.042 64.6401 519.925 65.8823 519.925 67.7417C519.925 69.5972 521.042 70.8354 522.8 70.8354ZM522.807 69.7026C521.835 69.7026 521.358 68.8354 521.358 67.7378C521.358 66.6401 521.835 65.7612 522.807 65.7612C523.764 65.7612 524.241 66.6401 524.241 67.7378C524.241 68.8354 523.764 69.7026 522.807 69.7026ZM526.875 70.7183H528.289V67.1909C528.289 66.4292 528.863 65.8901 529.64 65.8901C529.879 65.8901 530.176 65.9331 530.297 65.9722V64.6714C530.168 64.6479 529.945 64.6323 529.789 64.6323C529.101 64.6323 528.527 65.0229 528.308 65.7183H528.246V64.7183H526.875V70.7183ZM531.236 70.7183H532.65V64.7183H531.236V70.7183ZM531.947 63.8667C532.396 63.8667 532.763 63.5229 532.763 63.1011C532.763 62.6753 532.396 62.3315 531.947 62.3315C531.494 62.3315 531.127 62.6753 531.127 63.1011C531.127 63.5229 531.494 63.8667 531.947 63.8667ZM536.714 73.0933C538.335 73.0933 539.53 72.3511 539.53 70.8159V64.7183H538.135V65.7104H538.057C537.843 65.2769 537.393 64.6401 536.335 64.6401C534.948 64.6401 533.858 65.7261 533.858 67.6987C533.858 69.6558 534.948 70.6323 536.331 70.6323C537.358 70.6323 537.839 70.0815 538.057 69.6401H538.128V70.7769C538.128 71.6597 537.542 72.0229 536.737 72.0229C535.885 72.0229 535.51 71.6206 535.339 71.269L534.065 71.5776C534.323 72.4175 535.186 73.0933 536.714 73.0933ZM536.725 69.5229C535.792 69.5229 535.3 68.7964 535.3 67.6909C535.3 66.6011 535.784 65.8003 536.725 65.8003C537.635 65.8003 538.135 66.5542 538.135 67.6909C538.135 68.8354 537.628 69.5229 536.725 69.5229ZM540.979 70.7183H542.393V64.7183H540.979V70.7183ZM541.69 63.8667C542.139 63.8667 542.507 63.5229 542.507 63.1011C542.507 62.6753 542.139 62.3315 541.69 62.3315C541.237 62.3315 540.87 62.6753 540.87 63.1011C540.87 63.5229 541.237 63.8667 541.69 63.8667ZM545.261 67.2026C545.261 66.3354 545.785 65.8354 546.531 65.8354C547.261 65.8354 547.699 66.3159 547.699 67.1167V70.7183H549.113V66.8979C549.117 65.4604 548.297 64.6401 547.058 64.6401C546.16 64.6401 545.543 65.0698 545.269 65.7378H545.199V64.7183H543.847V70.7183H545.261V67.2026ZM558.021 66.3042C557.826 65.2886 557.013 64.6401 555.607 64.6401C554.162 64.6401 553.177 65.3511 553.181 66.4604C553.177 67.3354 553.717 67.9136 554.869 68.1519L555.892 68.3667C556.443 68.4878 556.701 68.7104 556.701 69.0503C556.701 69.4604 556.256 69.769 555.584 69.769C554.935 69.769 554.513 69.4878 554.392 68.9487L553.013 69.0815C553.189 70.1831 554.115 70.8354 555.588 70.8354C557.088 70.8354 558.146 70.0581 558.15 68.9214C558.146 68.0659 557.595 67.5425 556.463 67.2964L555.439 67.0776C554.83 66.9409 554.588 66.73 554.592 66.3823C554.588 65.9761 555.037 65.6948 555.627 65.6948C556.279 65.6948 556.623 66.0503 556.732 66.4448L558.021 66.3042ZM561.972 70.8354C563.371 70.8354 564.332 70.1519 564.582 69.1089L563.261 68.9604C563.07 69.4683 562.601 69.7339 561.992 69.7339C561.078 69.7339 560.472 69.1323 560.461 68.105H564.64V67.6714C564.64 65.5659 563.375 64.6401 561.898 64.6401C560.179 64.6401 559.058 65.9019 559.058 67.7534C559.058 69.6362 560.164 70.8354 561.972 70.8354ZM560.465 67.1519C560.508 66.3862 561.074 65.7417 561.918 65.7417C562.73 65.7417 563.277 66.3354 563.285 67.1519H560.465ZM565.837 70.7183H567.251V67.1909C567.251 66.4292 567.825 65.8901 568.602 65.8901C568.841 65.8901 569.137 65.9331 569.259 65.9722V64.6714C569.13 64.6479 568.907 64.6323 568.751 64.6323C568.063 64.6323 567.489 65.0229 567.27 65.7183H567.208V64.7183H565.837V70.7183ZM575.74 64.7183H574.236L572.853 69.1753H572.791L571.412 64.7183H569.904L572.041 70.7183H573.603L575.74 64.7183ZM579.171 70.8354C580.569 70.8354 581.53 70.1519 581.78 69.1089L580.46 68.9604C580.268 69.4683 579.8 69.7339 579.19 69.7339C578.276 69.7339 577.671 69.1323 577.659 68.105H581.839V67.6714C581.839 65.5659 580.573 64.6401 579.096 64.6401C577.378 64.6401 576.257 65.9019 576.257 67.7534C576.257 69.6362 577.362 70.8354 579.171 70.8354ZM577.663 67.1519C577.706 66.3862 578.272 65.7417 579.116 65.7417C579.928 65.7417 580.475 66.3354 580.483 67.1519H577.663ZM583.035 70.7183H584.449V67.1909C584.449 66.4292 585.023 65.8901 585.801 65.8901C586.039 65.8901 586.336 65.9331 586.457 65.9722V64.6714C586.328 64.6479 586.105 64.6323 585.949 64.6323C585.261 64.6323 584.687 65.0229 584.468 65.7183H584.406V64.7183H583.035V70.7183ZM587.748 67.4565C587.748 69.4058 588.267 71.0269 589.295 72.4175H590.627C589.834 71.3862 589.22 69.3081 589.22 67.4565C589.22 65.6011 589.834 63.5229 590.627 62.4917H589.295C588.267 63.8823 587.748 65.5073 587.748 67.4565ZM596.468 66.3042C596.272 65.2886 595.46 64.6401 594.053 64.6401C592.608 64.6401 591.624 65.3511 591.628 66.4604C591.624 67.3354 592.163 67.9136 593.315 68.1519L594.339 68.3667C594.889 68.4878 595.147 68.7104 595.147 69.0503C595.147 69.4604 594.702 69.769 594.03 69.769C593.382 69.769 592.96 69.4878 592.839 68.9487L591.46 69.0815C591.635 70.1831 592.561 70.8354 594.034 70.8354C595.534 70.8354 596.593 70.0581 596.596 68.9214C596.593 68.0659 596.042 67.5425 594.909 67.2964L593.885 67.0776C593.276 66.9409 593.034 66.73 593.038 66.3823C593.034 65.9761 593.483 65.6948 594.073 65.6948C594.725 65.6948 595.069 66.0503 595.178 66.4448L596.468 66.3042ZM600.286 67.4565C600.286 65.5073 599.766 63.8862 598.739 62.4956H597.407C598.2 63.5269 598.813 65.605 598.813 67.4565C598.813 69.312 598.2 71.3901 597.407 72.4214H598.739C599.766 71.0308 600.286 69.4058 600.286 67.4565Z" fill="white"/>
</svg>
