<svg viewBox="0 0 33 34" xmlns="http://www.w3.org/2000/svg" ><title>BigCommerce</title><g id="Page-1" stroke="none" stroke-width="1" fill="none" fill-rule="evenodd"><g id="DevCenter_Home_3826_SJ" transform="translate(-79.000000, -16.000000)" fill="#000"><g id="Group-2" transform="translate(78.000000, 16.000000)"><g id="Group" transform="translate(0.920654, 0.920654)"><path d="M17.4055942,18.7657142 L21.5648018,18.7657142 C22.7475149,18.7657142 23.4965665,18.115222 23.4965665,17.0704921 C23.4965665,16.0848979 22.7475149,15.37527 21.5648018,15.37527 L17.4055942,15.37527 C17.267611,15.37527 17.1493397,15.4935414 17.1493397,15.6118127 L17.1493397,18.5291716 C17.1690515,18.6671548 17.267611,18.7657142 17.4055942,18.7657142 Z" id="Shape"></path><path d="M17.4055942,25.4874669 L21.702785,25.4874669 C23.0234813,25.4874669 23.8119567,24.8172628 23.8119567,23.6345497 C23.8119567,22.6095317 23.0629051,21.7816326 21.702785,21.7816326 L17.4055942,21.7816326 C17.267611,21.7816326 17.1493397,21.8999039 17.1493397,22.0181752 L17.1493397,25.2312124 C17.1690515,25.3889075 17.267611,25.4874669 17.4055942,25.4874669 Z" id="Shape"></path><path d="M32.6231691,0.0788475387 L20.3229531,12.3396398 L22.3335653,12.3396398 C25.467755,12.3396398 27.3206722,14.3108283 27.3206722,16.4594237 C27.3206722,18.1546458 26.1773828,19.3964945 24.955246,19.9484273 C24.7581271,20.0272748 24.7581271,20.3032412 24.9749579,20.3820887 C26.3942136,20.9340215 27.3995197,22.4124129 27.3995197,24.1470587 C27.3995197,26.5913324 25.7634333,28.542809 22.5898198,28.542809 L13.8771668,28.542809 C13.7391836,28.542809 13.6209123,28.4245377 13.6209123,28.3062664 L13.6209123,19.0219687 L0.118271308,32.4654741 C-0.059135654,32.642881 0.059135654,32.9582712 0.315390155,32.9582712 L32.7808642,32.9582712 C32.8991355,32.9582712 32.9976949,32.8597117 32.9976949,32.7414404 L32.9976949,0.256254501 C33.0568306,0.0394237693 32.7808642,-0.0788475387 32.6231691,0.0788475387 Z" id="Shape"></path></g></g></g></g></svg>