<svg version="1.2" baseProfile="tiny-ps" xmlns="http://www.w3.org/2000/svg" viewBox="0 0 75 75">
	<style>
		tspan { white-space:pre }
		.s0 { fill: #3f894a } 
	</style>
	<path id="Layer" class="s0" d="m24.98 56.04l-18.85-18.85l31.38-31.38l31.38 31.38l-16.8 16.8c0.02-0.77 0.05-1.49 0.09-2.13c0.03-0.41 0.13-0.82 0.2-1.25c0.22-1.23 1.74-2.24 2.63-3.13c1.71-1.72 2.82-4.61 2.82-7.88c0-5.3-2.94-12-6.56-12c-3.62 0-6.56 6.71-6.56 12c0 3.26 1.1 6.15 2.82 7.88c0.88 0.89 2.41 1.9 2.63 3.13c0.08 0.43 0.18 0.85 0.2 1.25c0.07 1.06 0.1 2.33 0.12 3.74l-12.03 12.03c0.04-4.12 0.18-8.05 0.37-10.96c0.08-1.2 0.28-2.55 1.73-3.71c0.16-0.13 0.32-0.25 0.51-0.37c0.47-0.38 0.76-0.78 0.76-1.11c0-1.56 0.68-23.51-1.75-29.68c-2.42-6.17-5.05-4.84-5.05-2.03c0 2.03 0 29.68 0 32.97c0 0.24 0.19 0.51 0.25 0.81c0.18 0.94 0.33 2.11 0.4 3.12c0.17 2.71 0.18 6.3 0.06 10.1l-8.73-8.73c-0.01-2.31 0.05-4.36 0.17-5.96c0.08-1 0.35-2.1 1.46-3.11c0 0 0 0 0 0c0.04-0.04 0.09-0.08 0.14-0.12c0.01 0 0.01-0.01 0.02-0.01c1.53-1.4 2.84-4.09 2.76-6.94c-0.31-11.32-1.61-15.29-1.99-15.29c-0.3 0-0.3 6.04-0.21 10.34c0.07 3.52-0.23 5.11-1.23 5.11c-0.95 0-1.23-3.43-1.35-7.56c-0.1-3.33-0.4-7.89-0.76-7.89h0c-0.23 0.02-0.52 4.62-0.62 7.93c-0.12 4.03-0.3 7.62-1.43 7.62c-0.85 0-1.38-1.4-1.24-4.97c0.2-5.13 0.19-10.59-0.11-10.59c-0.38 0-2.14 11.31-2.14 15.29c0 2.85 1.22 5.54 2.76 6.94c0 0 0.01 0.01 0.02 0.01c0.05 0.04 0.09 0.08 0.14 0.12c0 0 0 0 0 0c1.11 1.01 1.39 2.11 1.46 3.11c0.08 1.12 0.14 2.46 0.16 3.96z" />
</svg>
