<svg xmlns="http://www.w3.org/2000/svg" version="1.0" viewBox="0 0 300 300" preserveAspectRatio="xMidYMid meet">
    <g transform="translate(0,380) scale(0.1,-0.1)" fill="#000000" stroke="none">
        <path d="M0 2090 l0 -2090 1500 0 1500 0 0 2090 0 2090 -1500 0 -1500 0 0 -2090z m1722 923 c16 -15 18 -36 18 -240 l0 -223 63 0 c93 0 107 -13 107 -104 0 -96 -8 -105 -95 -108 l-70 -3 0 -300 c0 -165 3 -312 8 -327 12 -45 33 -58 94 -58 78 0 93 -15 93 -95 0 -94 -8 -100 -127 -100 -176 1 -238 43 -281 190 -10 37 -15 134 -19 373 l-5 322 -33 0 c-47 0 -60 22 -60 102 0 61 3 72 24 89 13 10 34 19 47 19 30 0 31 2 41 242 11 238 11 238 111 238 47 0 71 -5 84 -17z m-972 -43 c20 -20 20 -30 18 -751 l-3 -731 -24 -19 c-34 -28 -178 -28 -212 0 l-24 19 -3 600 -3 600 -32 -9 c-47 -13 -65 -3 -78 44 -14 52 -6 155 14 175 13 12 276 89 315 91 6 1 21 -8 32 -19z m516 6 c18 -14 19 -35 22 -724 2 -553 0 -718 -10 -748 l-13 -39 -110 0 c-107 0 -110 1 -122 25 -10 19 -13 159 -13 613 0 584 0 588 -20 583 -11 -3 -28 -8 -37 -11 -41 -11 -63 32 -63 124 0 101 11 111 180 154 157 41 160 41 186 23z m918 -448 c22 -21 30 -51 76 -298 28 -151 54 -283 58 -293 4 -10 25 105 50 275 40 274 44 294 68 316 19 17 37 22 76 22 61 0 88 -19 88 -62 0 -46 -198 -1066 -220 -1133 -25 -74 -51 -119 -84 -140 -66 -44 -176 -38 -227 11 -24 23 -29 36 -29 75 0 56 12 94 33 102 8 3 34 1 57 -5 38 -10 45 -9 57 8 31 40 10 165 -101 624 -58 239 -106 446 -106 459 0 46 26 61 106 61 62 0 77 -4 98 -22z" />
    </g>
</svg>
