<svg id="Layer_2" data-name="Layer 2" xmlns="http://www.w3.org/2000/svg" viewBox="0 0 77 68.96"><polygon points="71.42 47.54 38.5 63.7 5.58 47.54 38.5 31.38 71.42 47.54" fill="#e95495"/><path d="M38.5,65.2a1.52,1.52,0,0,1-.66-.15L4.92,48.89a1.5,1.5,0,0,1,0-2.7L37.84,30a1.53,1.53,0,0,1,1.32,0L72.08,46.19a1.5,1.5,0,0,1,0,2.7L39.16,65.05A1.52,1.52,0,0,1,38.5,65.2ZM9,47.54,38.5,62,68,47.54,38.5,33.05Z"/><g opacity="0.38"><polygon points="71.42 38.6 38.5 54.76 5.58 38.6 38.5 22.44 71.42 38.6" fill="#fff"/></g><path d="M38.5,56.26a1.52,1.52,0,0,1-.66-.15L4.92,40a1.5,1.5,0,0,1,0-2.69L37.84,21.1a1.46,1.46,0,0,1,1.32,0L72.08,37.26a1.5,1.5,0,0,1,0,2.69L39.16,56.11A1.52,1.52,0,0,1,38.5,56.26ZM9,38.6,38.5,53.09,68,38.6,38.5,24.11Z"/><g opacity="0.38"><polygon points="71.42 29.67 38.5 45.83 5.58 29.67 38.5 13.51 71.42 29.67" fill="#fff"/></g><path d="M38.5,47.33a1.4,1.4,0,0,1-.66-.16L4.92,31a1.5,1.5,0,0,1,0-2.69L37.84,12.16a1.53,1.53,0,0,1,1.32,0L72.08,28.32a1.5,1.5,0,0,1,0,2.69L39.16,47.17A1.4,1.4,0,0,1,38.5,47.33ZM9,29.67,38.5,44.16,68,29.67,38.5,15.18Z"/></svg>