<svg viewBox="0 0 314 42" fill="none" xmlns="http://www.w3.org/2000/svg">
<g clip-path="url(#clip0)">
<path d="M8.56578 8.21773H19.3089L20.0855 24.6444L27.5928 8.21773H38.3359L32.7702 35.3748H26.0395L30.3109 14.7089L20.8621 35.3748H14.7787L14.0021 14.7089L9.7307 35.3748H3.00006L8.56578 8.21773ZM39.7597 21.8625C40.6657 17.4909 42.6073 14.0466 45.4548 11.5296C48.4318 9.01257 51.9266 7.82031 56.3274 7.82031C60.7282 7.82031 63.8346 9.01257 65.7762 11.3971C67.7177 13.7816 68.106 17.2259 67.2 21.5976C66.5528 24.7769 65.5173 27.2939 63.9641 29.4135C62.5403 31.4006 60.7282 32.9903 58.5278 34.1825C56.3274 35.3748 53.7387 35.9047 50.7617 35.9047C47.7847 35.9047 45.4548 35.3748 43.6427 34.4475C41.8306 33.5202 40.6657 31.9305 39.8891 29.8109C39.1125 27.6913 39.1125 25.0419 39.7597 21.8625V21.8625ZM47.9141 21.8625C47.3964 24.6444 47.3964 26.4991 48.173 27.6913C48.9496 28.8836 50.1145 29.546 51.7972 29.546C53.6093 29.546 55.033 29.0161 56.198 27.8238C57.3629 26.6316 58.2689 24.512 58.9161 21.4651C59.5633 18.9481 59.4338 17.0935 58.6572 15.9012C57.8806 14.7089 56.7157 14.179 54.9036 14.179C53.221 14.179 51.7972 14.8414 50.5028 16.0337C49.3379 17.0935 48.4318 19.0806 47.9141 21.8625V21.8625ZM70.5653 21.8625C71.4713 17.4909 73.4129 14.0466 76.2604 11.5296C79.2374 9.01257 82.7322 7.82031 87.133 7.82031C91.5338 7.82031 94.6402 9.01257 96.5818 11.3971C98.5233 13.7816 98.9116 17.2259 98.0056 21.5976C97.3584 24.7769 96.3229 27.2939 94.7697 29.4135C93.3459 31.4006 91.5338 32.9903 89.3334 34.1825C87.133 35.3748 84.5443 35.9047 81.5673 35.9047C78.5903 35.9047 76.2604 35.3748 74.4483 34.4475C72.6362 33.5202 71.4713 31.9305 70.6947 29.8109C69.9181 27.6913 69.9181 25.0419 70.5653 21.8625V21.8625ZM78.7197 21.8625C78.202 24.6444 78.202 26.4991 78.9786 27.6913C79.7552 28.8836 80.9201 29.546 82.6028 29.546C84.4149 29.546 85.8386 29.0161 87.0036 27.8238C88.1685 26.6316 89.0745 24.512 89.7217 21.4651C90.2394 18.9481 90.11 17.0935 89.3334 15.9012C88.5568 14.7089 87.3919 14.179 85.5798 14.179C83.8971 14.179 82.4733 14.8414 81.179 16.0337C80.1435 17.0935 79.2374 19.0806 78.7197 21.8625V21.8625ZM100.983 8.21773H109.525L111.467 27.6913L121.433 8.21773H129.717L114.185 35.3748H105.254L100.983 8.21773ZM132.565 8.21773H140.331L139.943 23.3197L147.191 8.21773H154.957L155.863 23.3197L161.817 8.21773H169.583L158.193 35.2423H150.168L149.003 18.1532L140.849 35.2423H132.824L132.565 8.21773ZM200.907 8.21773H216.18C218.769 8.21773 220.581 8.8801 221.616 10.2048C222.652 11.5296 223.04 13.1193 222.652 14.9739C222.263 16.5636 221.487 17.8883 220.322 19.0806C219.545 19.8754 218.38 20.4053 217.086 20.9352C218.898 21.4651 220.063 22.2599 220.84 23.3197C221.487 24.512 221.616 25.8367 221.357 27.5589C221.099 29.0161 220.451 30.2083 219.545 31.4006C218.639 32.4604 217.604 33.3877 216.439 34.0501C215.662 34.4475 214.627 34.7124 213.203 34.9774C211.261 35.2423 210.097 35.3748 209.449 35.3748H195.341L200.907 8.21773ZM206.861 18.9481H210.355C211.65 18.9481 212.556 18.6831 213.203 18.2857C213.85 17.8883 214.238 17.2259 214.368 16.2986C214.497 15.5038 214.368 14.8414 213.98 14.444C213.591 14.0466 212.815 13.7816 211.52 13.7816H207.896L206.861 18.9481V18.9481ZM204.66 29.546H208.802C210.226 29.546 211.261 29.281 211.909 28.7511C212.556 28.2212 213.074 27.5589 213.203 26.6315C213.332 25.8367 213.203 25.1743 212.685 24.6444C212.167 24.1146 211.261 23.8496 209.838 23.8496H205.696L204.66 29.546Z" fill="white"/>
<path d="M167.544 35.3725H192.389L193.683 29.1167H168.838L167.544 35.3725V35.3725Z" fill="url(#paint0_linear)"/>
<path d="M194.46 18.7344H170.909L169.615 24.9901H193.166L194.46 18.7344Z" fill="url(#paint1_linear)"/>
<path d="M171.814 14.7416H196.789L198.083 8.48584H173.108L171.814 14.7416Z" fill="url(#paint2_linear)"/>
</g>
<path d="M240.854 8.81818H233.963L239.729 21.9091L229.412 35H236.788L243.078 26.6392H243.283L246.811 35H253.906L247.949 21.9091L257.997 8.81818H250.672L244.459 17.0895H244.254L240.854 8.81818ZM266.741 35C274.719 35 280.305 30.2699 281.635 22.2287C283.016 13.9062 278.784 8.81818 270.794 8.81818H261.27L256.923 35H266.741ZM264.146 29.6051L266.703 14.2131H269.848C274.348 14.2131 276.342 16.0668 275.422 21.5767C274.476 27.3679 271.536 29.6051 267.138 29.6051H264.146ZM309.849 8.81818H303.534L301.054 23.9034H300.837L293.013 8.81818H287.567L283.22 35H289.548L292.067 19.8892H292.246L300.134 35H305.503L309.849 8.81818Z" fill="white"/>
<defs>
<linearGradient id="paint0_linear" x1="179.543" y1="34.9018" x2="173.925" y2="9.04126" gradientUnits="userSpaceOnUse">
<stop stop-color="#6159F6"/>
<stop offset="1" stop-color="#E95495"/>
</linearGradient>
<linearGradient id="paint1_linear" x1="179.544" y1="34.9015" x2="173.612" y2="9.18875" gradientUnits="userSpaceOnUse">
<stop stop-color="#6159F6"/>
<stop offset="1" stop-color="#E95495"/>
</linearGradient>
<linearGradient id="paint2_linear" x1="180.514" y1="35.9046" x2="174.718" y2="9.07208" gradientUnits="userSpaceOnUse">
<stop stop-color="#6159F6"/>
<stop offset="1" stop-color="#E95495"/>
</linearGradient>
<clipPath id="clip0">
<rect width="221.165" height="28.0844" fill="white" transform="translate(3.00006 7.82031)"/>
</clipPath>
</defs>
</svg>
