<?xml version="1.0" encoding="UTF-8"?>
<svg viewBox="0 0 483 44" version="1.1" xmlns="http://www.w3.org/2000/svg" xmlns:xlink="http://www.w3.org/1999/xlink">
    <!-- Generator: Sketch 54.1 (76490) - https://sketchapp.com -->
    <title>Group 2</title>
    <desc>Created with Sketch.</desc>
    <g id="Page-1" stroke="none" stroke-width="1" fill="none" fill-rule="evenodd">
        <g id="logo_full-copy" transform="translate(-25.000000, -15.000000)" fill-rule="nonzero">
            <g id="Group-2" transform="translate(25.000000, 15.000000)">
                <g id="moovweb_dark">
                    <g id="Group" fill="#000000">
                        <polygon id="Path" points="8.85294118 0.617647059 25.9411765 0.617647059 27.1764706 26.1470588 39.1176471 0.617647059 56.2058824 0.617647059 47.3529412 42.8235294 36.6470588 42.8235294 43.4411765 10.7058824 28.4117647 42.8235294 18.7352941 42.8235294 17.5 10.7058824 10.7058824 42.8235294 0 42.8235294"></polygon>
                        <path d="M58.4705882,21.8235294 C59.9117647,15.0294118 63,9.67647059 67.5294118,5.76470588 C72.2647059,1.85294118 77.8235294,0 84.8235294,0 C91.8235294,0 96.7647059,1.85294118 99.8529412,5.55882353 C102.941176,9.26470588 103.558824,14.6176471 102.117647,21.4117647 C101.088235,26.3529412 99.4411765,30.2647059 96.9705882,33.5588235 C94.7058824,36.6470588 91.8235294,39.1176471 88.3235294,40.9705882 C84.8235294,42.8235294 80.7058824,43.6470588 75.9705882,43.6470588 C71.2352941,43.6470588 67.5294118,42.8235294 64.6470588,41.3823529 C61.7647059,39.9411765 59.9117647,37.4705882 58.6764706,34.1764706 C57.4411765,30.8823529 57.4411765,26.7647059 58.4705882,21.8235294 Z M71.4411765,21.8235294 C70.6176471,26.1470588 70.6176471,29.0294118 71.8529412,30.8823529 C73.0882353,32.7352941 74.9411765,33.7647059 77.6176471,33.7647059 C80.5,33.7647059 82.7647059,32.9411765 84.6176471,31.0882353 C86.4705882,29.2352941 87.9117647,25.9411765 88.9411765,21.2058824 C89.9705882,17.2941176 89.7647059,14.4117647 88.5294118,12.5588235 C87.2941176,10.7058824 85.4411765,9.88235294 82.5588235,9.88235294 C79.8823529,9.88235294 77.6176471,10.9117647 75.5588235,12.7647059 C73.7058824,14.4117647 72.2647059,17.5 71.4411765,21.8235294 Z" id="Shape"></path>
                        <path d="M107.470588,21.8235294 C108.911765,15.0294118 112,9.67647059 116.529412,5.76470588 C121.264706,1.85294118 126.823529,0 133.823529,0 C140.823529,0 145.764706,1.85294118 148.852941,5.55882353 C151.941176,9.26470588 152.558824,14.6176471 151.117647,21.4117647 C150.088235,26.3529412 148.441176,30.2647059 145.970588,33.5588235 C143.705882,36.6470588 140.823529,39.1176471 137.323529,40.9705882 C133.823529,42.8235294 129.705882,43.6470588 124.970588,43.6470588 C120.235294,43.6470588 116.529412,42.8235294 113.647059,41.3823529 C110.764706,39.9411765 108.911765,37.4705882 107.676471,34.1764706 C106.441176,30.8823529 106.441176,26.7647059 107.470588,21.8235294 Z M120.441176,21.8235294 C119.617647,26.1470588 119.617647,29.0294118 120.852941,30.8823529 C122.088235,32.7352941 123.941176,33.7647059 126.617647,33.7647059 C129.5,33.7647059 131.764706,32.9411765 133.617647,31.0882353 C135.470588,29.2352941 136.911765,25.9411765 137.941176,21.2058824 C138.764706,17.2941176 138.558824,14.4117647 137.323529,12.5588235 C136.088235,10.7058824 134.235294,9.88235294 131.352941,9.88235294 C128.676471,9.88235294 126.411765,10.9117647 124.352941,12.7647059 C122.705882,14.4117647 121.264706,17.5 120.441176,21.8235294 Z" id="Shape"></path>
                        <polygon id="Path" points="155.852941 0.617647059 169.441176 0.617647059 172.529412 30.8823529 188.382353 0.617647059 201.558824 0.617647059 176.852941 42.8235294 162.647059 42.8235294"></polygon>
                        <polygon id="Path" points="206.088235 0.617647059 218.441176 0.617647059 217.823529 24.0882353 229.352941 0.617647059 241.705882 0.617647059 243.147059 24.0882353 252.617647 0.617647059 264.970588 0.617647059 246.852941 42.6176471 234.088235 42.6176471 232.235294 16.0588235 219.264706 42.6176471 206.5 42.6176471"></polygon>
                        <path d="M314.794118,0.617647059 L339.088235,0.617647059 C343.205882,0.617647059 346.088235,1.64705882 347.735294,3.70588235 C349.382353,5.76470588 350,8.23529412 349.382353,11.1176471 C348.764706,13.5882353 347.529412,15.6470588 345.676471,17.5 C344.441176,18.7352941 342.588235,19.5588235 340.529412,20.3823529 C343.411765,21.2058824 345.470588,22.4411765 346.5,24.0882353 C347.529412,25.9411765 347.735294,28 347.323529,30.6764706 C346.911765,32.9411765 345.882353,34.7941176 344.441176,36.6470588 C343,38.2941176 341.352941,39.7352941 339.5,40.7647059 C338.264706,41.3823529 336.617647,41.7941176 334.352941,42.2058824 C331.264706,42.6176471 329.411765,42.8235294 328.382353,42.8235294 L305.941176,42.8235294 L314.794118,0.617647059 Z M324.264706,17.2941176 L329.823529,17.2941176 C331.882353,17.2941176 333.323529,16.8823529 334.352941,16.2647059 C335.382353,15.6470588 336,14.6176471 336.205882,13.1764706 C336.411765,11.9411765 336.205882,10.9117647 335.588235,10.2941176 C334.970588,9.67647059 333.735294,9.26470588 331.676471,9.26470588 L325.911765,9.26470588 L324.264706,17.2941176 Z M320.764706,33.7647059 L327.352941,33.7647059 C329.617647,33.7647059 331.264706,33.3529412 332.294118,32.5294118 C333.323529,31.7058824 334.147059,30.6764706 334.352941,29.2352941 C334.558824,28 334.352941,26.9705882 333.529412,26.1470588 C332.705882,25.3235294 331.264706,24.9117647 329,24.9117647 L322.411765,24.9117647 L320.764706,33.7647059 Z" id="Shape"></path>
                    </g>
                    <g id="Group" transform="translate(259.411765, 0.000000)">
                        <polygon id="Path" fill="#0C80C3" points="1.23529412 42.6176471 40.7647059 42.6176471 42.8235294 32.9411765 3.29411765 32.9411765"></polygon>
                        <polygon id="Path" fill="#5FB146" points="44.0588235 16.8823529 6.58823529 16.8823529 4.52941176 26.5588235 42 26.5588235"></polygon>
                        <polygon id="Path" fill="#F69120" points="8.02941176 10.7058824 47.7647059 10.7058824 49.8235294 1.02941176 10.0882353 1.02941176"></polygon>
                    </g>
                </g>
                <polygon id="Line" fill="#000000" points="362.971368 5 357 39 358.028632 39 364 5"></polygon>
                <path d="M389.924763,14.5728022 L398.493061,1 L409.861456,1 L395.356952,21.7252747 L403.337229,42 L392.72486,42 L388.244704,28.1737637 L379.452398,42 L368,42 L382.840516,20.9368132 L375.112247,1 L385.612613,1 L389.924763,14.5728022 Z M406.613343,42 L413.669589,1 L425.654005,1.02815934 C429.182146,1.02815934 432.262222,1.96210147 434.894327,3.83001374 C437.526431,5.69792601 439.393144,8.24632085 440.494522,11.4752747 C441.446559,14.3099959 441.7359,17.3699469 441.362552,20.6552198 L441.166545,22.3729396 C440.662525,26.0524451 439.449161,29.3846005 437.526418,32.3695055 C435.603675,35.3544105 433.130281,37.6963056 430.10616,39.395261 C427.08204,41.0942164 423.815292,41.962454 420.305819,42 L406.613343,42 Z M421.957877,8.63118132 L417.505722,34.396978 L420.305819,34.4251374 C423.591283,34.4251374 426.228015,33.1485934 428.216094,30.595467 C430.204174,28.0423407 431.384869,24.1376179 431.758218,18.8811813 L431.81422,17.9519231 C431.944891,14.9482451 431.478213,12.6673613 430.414171,11.1092033 C429.350129,9.55104532 427.754089,8.73443261 425.626004,8.65934066 L421.957877,8.63118132 Z M475.915754,42 L466.647431,42 L456.903092,16.1215659 L452.422936,42 L442.846603,42 L449.902849,1 L459.255174,1 L468.971512,26.8784341 L473.423667,1 L483,1 L475.915754,42 Z" id="XDN" fill="#000000"></path>
            </g>
        </g>
    </g>
</svg>