<svg viewBox="0 0 512 512"  xmlns="http://www.w3.org/2000/svg">
 <!-- Created with Method Draw - http://github.com/duopixel/Method-Draw/ -->
 <g>
  <title>Layer 1</title>
 </g>
 <g>
  <title>background</title>
  <g stroke="null" id="svg_1">
   <path stroke="null" fill="#61DAFB" d="m509.599995,256.516712c0,-33.692417 -42.193273,-65.622462 -106.882714,-85.423236c14.928333,-65.933469 8.293518,-118.38997 -20.941133,-135.184344c-6.738483,-3.939421 -14.617326,-5.805463 -23.221851,-5.805463l0,23.118182c4.768773,0 8.604525,0.933021 11.818263,2.695393c14.098981,8.08618 20.21545,38.875866 15.446677,78.477415c-1.140359,9.744884 -3.0064,20.008112 -5.287118,30.478679c-20.319119,-4.976111 -42.50428,-8.811863 -65.8298,-11.299918c-13.995312,-19.178761 -28.508968,-36.595148 -43.126294,-51.834488c33.796086,-31.4117 65.518793,-48.62075 87.08194,-48.62075l0,-23.118182c0,0 0,0 0,0c-28.508968,0 -65.8298,20.319119 -103.565307,55.566571c-37.735507,-35.040114 -75.056339,-55.151895 -103.565307,-55.151895l0,23.118182c21.459478,0 53.285854,17.105381 87.08194,48.309743c-14.513657,15.239339 -29.027313,32.552058 -42.815287,51.730819c-23.429189,2.488055 -45.614349,6.323808 -65.933469,11.403587c-2.384386,-10.366898 -4.146759,-20.422788 -5.390787,-30.064003c-4.872442,-39.601549 1.140359,-70.391235 15.13567,-78.581084c3.110069,-1.866042 7.153159,-2.695393 11.921932,-2.695393l0,-23.118182c0,0 0,0 0,0c-8.708194,0 -16.587036,1.866042 -23.429189,5.805463c-29.130982,16.794374 -35.662128,69.147207 -20.630126,134.873338c-64.482103,19.904443 -106.468038,51.730819 -106.468038,85.319567c0,33.692417 42.193273,65.622462 106.882714,85.423236c-14.928333,65.933469 -8.293518,118.38997 20.941133,135.184344c6.738483,3.939421 14.617326,5.805463 23.32552,5.805463c28.508968,0 65.8298,-20.319119 103.565307,-55.566571c37.735507,35.040114 75.056339,55.151895 103.565307,55.151895c8.708194,0 16.587036,-1.866042 23.429189,-5.805463c29.130982,-16.794374 35.662128,-69.147207 20.630126,-134.873338c64.274765,-19.800774 106.2607,-51.730819 106.2607,-85.319567zm-134.977007,-69.147207c-3.835752,13.373298 -8.604525,27.161272 -13.995312,40.949245c-4.250428,-8.293518 -8.708194,-16.587036 -13.580636,-24.880554c-4.768773,-8.293518 -9.848553,-16.379698 -14.928333,-24.25854c14.720995,2.177048 28.923644,4.872442 42.50428,8.189849zm-47.480391,110.407459c-8.08618,13.995312 -16.379698,27.264941 -24.984223,39.601549c-15.446677,1.347697 -31.100693,2.07338 -46.858377,2.07338c-15.654015,0 -31.308031,-0.725683 -46.651039,-1.969711c-8.604525,-12.336608 -17.001712,-25.502568 -25.087892,-39.394211c-7.878842,-13.580636 -15.032001,-27.36861 -21.563147,-41.260252c6.427477,-13.891643 13.684305,-27.783286 21.459478,-41.363921c8.08618,-13.995312 16.379698,-27.264941 24.984223,-39.601549c15.446677,-1.347697 31.100693,-2.07338 46.858377,-2.07338c15.654015,0 31.308031,0.725683 46.651039,1.969711c8.604525,12.336608 17.001712,25.502568 25.087892,39.394211c7.878842,13.580636 15.032001,27.36861 21.563147,41.260252c-6.531145,13.891643 -13.684305,27.783286 -21.459478,41.363921zm33.485079,-13.476967c5.598125,13.891643 10.366898,27.783286 14.306319,41.260252c-13.580636,3.317407 -27.886954,6.11647 -42.711618,8.293518c5.07978,-7.982511 10.15956,-16.17236 14.928333,-24.569547c4.768773,-8.293518 9.226539,-16.690705 13.476967,-24.984223zm-105.120341,110.614797c-9.641215,-9.952222 -19.28243,-21.044802 -28.819975,-33.174072c9.330208,0.414676 18.867754,0.725683 28.508968,0.725683c9.744884,0 19.386098,-0.207338 28.819975,-0.725683c-9.330208,12.12927 -18.971423,23.221851 -28.508968,33.174072zm-77.129718,-61.061027c-14.720995,-2.177048 -28.923644,-4.872442 -42.50428,-8.189849c3.835752,-13.373298 8.604525,-27.161272 13.995312,-40.949245c4.250428,8.293518 8.708194,16.587036 13.580636,24.880554c4.872442,8.293518 9.848553,16.379698 14.928333,24.25854zm76.611373,-215.735139c9.641215,9.952222 19.28243,21.044802 28.819975,33.174072c-9.330208,-0.414676 -18.867754,-0.725683 -28.508968,-0.725683c-9.744884,0 -19.386098,0.207338 -28.819975,0.725683c9.330208,-12.12927 18.971423,-23.221851 28.508968,-33.174072zm-76.715042,61.061027c-5.07978,7.982511 -10.15956,16.17236 -14.928333,24.569547c-4.768773,8.293518 -9.226539,16.587036 -13.476967,24.880554c-5.598125,-13.891643 -10.366898,-27.783286 -14.306319,-41.260252c13.580636,-3.213738 27.886954,-6.012801 42.711618,-8.189849zm-93.820423,129.793558c-36.698817,-15.654015 -60.439013,-36.180473 -60.439013,-52.456502c0,-16.276029 23.740195,-36.906155 60.439013,-52.456502c8.915532,-3.835752 18.660416,-7.256828 28.716306,-10.470567c5.909132,20.319119 13.684305,41.46759 23.32552,63.134406c-9.537546,21.563147 -17.20905,42.607949 -23.014513,62.823399c-10.263229,-3.213738 -20.008112,-6.738483 -29.027313,-10.574236zm55.773909,148.142966c-14.098981,-8.08618 -20.21545,-38.875866 -15.446677,-78.477415c1.140359,-9.744884 3.0064,-20.008112 5.287118,-30.478679c20.319119,4.976111 42.50428,8.811863 65.8298,11.299918c13.995312,19.178761 28.508968,36.595148 43.126294,51.834488c-33.796086,31.4117 -65.518793,48.62075 -87.08194,48.62075c-4.665104,-0.103669 -8.604525,-1.03669 -11.714594,-2.799062zm245.902811,-78.99576c4.872442,39.601549 -1.140359,70.391235 -15.13567,78.581084c-3.110069,1.866042 -7.153159,2.695393 -11.921932,2.695393c-21.459478,0 -53.285854,-17.105381 -87.08194,-48.309743c14.513657,-15.239339 29.027313,-32.552058 42.815287,-51.730819c23.429189,-2.488055 45.614349,-6.323808 65.933469,-11.403587c2.384386,10.470567 4.250428,20.526457 5.390787,30.167672zm39.912556,-69.147207c-8.915532,3.835752 -18.660416,7.256828 -28.716306,10.470567c-5.909132,-20.319119 -13.684305,-41.46759 -23.32552,-63.134406c9.537546,-21.563147 17.20905,-42.607949 23.014513,-62.823399c10.263229,3.213738 20.008112,6.738483 29.130982,10.574236c36.698817,15.654015 60.439013,36.180473 60.439013,52.456502c-0.103669,16.276029 -23.843864,36.906155 -60.542682,52.456502z" id="svg_6"/>
   <polygon stroke="null" fill="#61DAFB" points="151.42367553710938,30.414676666259766 151.42367553710938,30.414676666259766 151.42367553710938,30.414676666259766 " id="svg_7"/>
   <circle stroke="null" fill="#61DAFB" cx="255.196329" cy="256.516712" r="47.37672" id="svg_8"/>
   <polygon stroke="null" fill="#61DAFB" points="358.45062255859375,30.103668212890625 358.45062255859375,30.103668212890625 358.45062255859375,30.103668212890625 " id="svg_9"/>
  </g>
 </g>
</svg>