<?xml version="1.0" encoding="UTF-8" standalone="no"?>
<svg
   xmlns:dc="http://purl.org/dc/elements/1.1/"
   xmlns:cc="http://creativecommons.org/ns#"
   xmlns:rdf="http://www.w3.org/1999/02/22-rdf-syntax-ns#"
   xmlns:svg="http://www.w3.org/2000/svg"
   xmlns="http://www.w3.org/2000/svg"
   xmlns:sodipodi="http://sodipodi.sourceforge.net/DTD/sodipodi-0.dtd"
   xmlns:inkscape="http://www.inkscape.org/namespaces/inkscape"
   class="MuiSvgIcon-root MuiSvgIcon-fontSizeMedium MuiSvgIcon-root MuiSvgIcon-fontSizeLarge css-1shn170"
   focusable="false"
   viewBox="0 0 24 24"
   aria-hidden="true"
   data-testid="SecurityIcon"
   tabindex="-1"
   title="Security"
   version="1.1"
   id="svg428"
   sodipodi:docname="security.svg"
   inkscape:version="1.0.2 (e86c8708, 2021-01-15)">
  <metadata
     id="metadata434">
    <rdf:RDF>
      <cc:Work
         rdf:about="">
        <dc:format>image/svg+xml</dc:format>
        <dc:type
           rdf:resource="http://purl.org/dc/dcmitype/StillImage" />
      </cc:Work>
    </rdf:RDF>
  </metadata>
  <defs
     id="defs432" />
  <sodipodi:namedview
     pagecolor="#ffffff"
     bordercolor="#666666"
     borderopacity="1"
     objecttolerance="10"
     gridtolerance="10"
     guidetolerance="10"
     inkscape:pageopacity="0"
     inkscape:pageshadow="2"
     inkscape:window-width="1582"
     inkscape:window-height="971"
     id="namedview430"
     showgrid="false"
     inkscape:zoom="31.375"
     inkscape:cx="11.426295"
     inkscape:cy="11.776892"
     inkscape:window-x="0"
     inkscape:window-y="63"
     inkscape:window-maximized="0"
     inkscape:current-layer="svg428" />
  <path
     d="M12 1 3 5v6c0 5.55 3.84 10.74 9 12 5.16-1.26 9-6.45 9-12V5l-9-4zm0 10.99h7c-.53 4.12-3.28 7.79-7 8.94V12H5V6.3l7-3.11v8.8z"
     id="path426" />
  <path
     style="fill:#ffffff;fill-opacity:0.388235;fill-rule:evenodd;stroke:none;stroke-width:1.20463;stroke-linejoin:round"
     d="M 5.0201803,9.1553785 5.0204403,6.310757 8.5102202,4.7604599 12,3.2101627 V 7.6050814 12 H 8.5099602 5.0199203 Z"
     id="path444" />
  <path
     style="fill:#ffffff;fill-opacity:1;fill-rule:evenodd;stroke:none;stroke-width:1.20463;stroke-linejoin:round"
     d="M 12,16.44967 V 12 h 3.49004 c 1.95923,0 3.49004,0.01217 3.49004,0.02774 0,0.09832 -0.147886,0.857623 -0.239798,1.23122 -0.498107,2.024677 -1.537927,3.896975 -2.947359,5.307011 -0.794044,0.794385 -1.687159,1.433812 -2.629576,1.882647 -0.363314,0.173032 -0.885638,0.381238 -1.075698,0.42879 L 12,20.899341 Z"
     id="path446" />
  <path
     style="fill:#ffffff;fill-opacity:1;fill-rule:evenodd;stroke:none;stroke-width:1.20463;stroke-linejoin:round"
     d="M 5.0201803,9.1553785 5.0204403,6.310757 8.5102202,4.7604599 12,3.2101627 V 7.6050814 12 H 8.5099602 5.0199203 Z"
     id="path1271" />
  <path
     style="fill:#ffffff;fill-opacity:1;fill-rule:evenodd;stroke:none;stroke-width:1.20463;stroke-linejoin:round"
     d="M 12,16.44967 V 12 h 3.491993 3.491993 l -0.02116,0.151394 c -0.05283,0.377966 -0.222428,1.145957 -0.351372,1.591162 -0.865668,2.988916 -2.920208,5.511501 -5.471626,6.718118 -0.345745,0.163511 -0.87004,0.371169 -1.052175,0.416738 L 12,20.899341 Z"
     id="path1273" />
</svg>
