<?xml version="1.0" encoding="utf-8"?>
<svg viewBox="6.148 62.967 480.402 347.089" xmlns="http://www.w3.org/2000/svg">
  <defs>
    <clipPath id="clip0">
      <rect width="300" height="80" fill="white"/>
    </clipPath>
    <linearGradient id="paint0_linear" x1="70.6978" y1="69.3328" x2="18.9346" y2="18.9995" gradientUnits="userSpaceOnUse">
      <stop stop-color="#5DCB79"/>
      <stop offset="1" stop-color="#61D67F"/>
    </linearGradient>
  </defs>
  <path d="M 109.433 89.023 C 109.355 88.317 108.726 88.003 108.256 88.003 C 107.785 88.003 97.504 87.218 97.504 87.218 C 97.504 87.218 90.361 80.077 89.498 79.37 C 88.713 78.585 87.222 78.821 86.594 78.978 C 86.515 78.978 85.025 79.448 82.592 80.234 C 80.159 73.248 75.999 66.892 68.543 66.892 L 67.837 66.892 C 65.795 64.223 63.128 62.967 60.929 62.967 C 43.663 62.967 35.344 84.55 32.754 95.538 C 26.005 97.656 21.217 99.069 20.667 99.305 C 16.9 100.482 16.821 100.561 16.351 104.092 C 15.958 106.761 6.148 182.655 6.148 182.655 L 82.513 196.94 L 123.953 187.992 C 124.031 187.835 109.512 89.73 109.433 89.023 Z M 78.353 81.332 C 76.47 81.881 74.193 82.588 71.917 83.373 L 71.917 81.96 C 71.917 77.722 71.368 74.268 70.348 71.522 C 74.273 71.992 76.706 76.309 78.353 81.332 Z M 65.561 72.385 C 66.581 75.054 67.287 78.821 67.287 84.001 L 67.287 84.785 C 63.049 86.12 58.575 87.454 53.945 88.946 C 56.535 79.055 61.479 74.189 65.561 72.385 Z M 60.538 67.519 C 61.322 67.519 62.107 67.833 62.735 68.303 C 57.162 70.893 51.276 77.408 48.843 90.593 C 45.154 91.77 41.623 92.79 38.248 93.889 C 41.074 83.844 48.137 67.519 60.538 67.519 Z" fill="#95BF47" style=""/>
  <path d="M 108.256 87.846 C 107.785 87.846 97.504 87.061 97.504 87.061 C 97.504 87.061 90.361 79.919 89.498 79.214 C 89.184 78.899 88.792 78.742 88.478 78.742 L 82.749 196.94 L 124.188 187.992 C 124.188 187.992 109.669 89.73 109.59 89.023 C 109.276 88.317 108.726 88.003 108.256 87.846 Z" fill="#5E8E3E" style=""/>
  <path d="M 68.543 110.764 L 63.52 125.911 C 63.52 125.911 58.968 123.478 53.552 123.478 C 45.468 123.478 45.076 128.579 45.076 129.835 C 45.076 136.741 63.128 139.41 63.128 155.656 C 63.128 168.45 55.043 176.69 44.134 176.69 C 30.949 176.69 24.356 168.528 24.356 168.528 L 27.888 156.912 C 27.888 156.912 34.795 162.877 40.603 162.877 C 44.448 162.877 46.017 159.895 46.017 157.698 C 46.017 148.672 31.262 148.279 31.262 133.367 C 31.262 120.889 40.21 108.801 58.339 108.801 C 65.089 108.723 68.543 110.764 68.543 110.764 Z" fill="#FFF" style=""/>
  <path d="M 172.299 139.254 C 168.139 137.055 166.02 135.094 166.02 132.504 C 166.02 129.208 169.002 127.088 173.632 127.088 C 179.048 127.088 183.836 129.286 183.836 129.286 L 187.603 117.749 C 187.603 117.749 184.15 115.08 173.947 115.08 C 159.741 115.08 149.852 123.243 149.852 134.701 C 149.852 141.216 154.483 146.16 160.604 149.692 C 165.628 152.439 167.355 154.479 167.355 157.462 C 167.355 160.522 164.843 163.034 160.212 163.034 C 153.384 163.034 146.87 159.502 146.87 159.502 L 142.868 171.04 C 142.868 171.04 148.832 175.042 158.877 175.042 C 173.476 175.042 184.071 167.821 184.071 154.872 C 183.914 147.809 178.656 142.943 172.299 139.254 Z M 230.534 114.923 C 223.313 114.923 217.663 118.377 213.346 123.556 L 213.189 123.478 L 219.468 90.829 L 203.221 90.829 L 187.367 174.022 L 203.614 174.022 L 209.03 145.61 C 211.148 134.858 216.72 128.188 221.9 128.188 C 225.589 128.188 227.002 130.698 227.002 134.231 C 227.002 136.428 226.845 139.254 226.295 141.451 L 220.173 174.022 L 236.42 174.022 L 242.777 140.431 C 243.483 136.898 243.954 132.661 243.954 129.756 C 243.876 120.417 239.089 114.923 230.534 114.923 Z M 280.685 114.923 C 261.064 114.923 248.115 132.582 248.115 152.282 C 248.115 164.839 255.884 175.042 270.483 175.042 C 289.711 175.042 302.66 157.854 302.66 137.684 C 302.739 125.989 295.99 114.923 280.685 114.923 Z M 272.68 162.641 C 267.107 162.641 264.831 157.932 264.831 151.968 C 264.831 142.628 269.619 127.481 278.488 127.481 C 284.217 127.481 286.179 132.504 286.179 137.291 C 286.179 147.259 281.235 162.641 272.68 162.641 Z M 344.335 114.923 C 333.348 114.923 327.147 124.655 327.147 124.655 L 326.99 124.655 L 327.933 115.943 L 313.491 115.943 C 312.785 121.83 311.451 130.855 310.195 137.527 L 298.972 197.096 L 315.218 197.096 L 319.77 173.001 L 320.163 173.001 C 320.163 173.001 323.537 175.12 329.659 175.12 C 348.81 175.12 361.289 155.499 361.289 135.721 C 361.21 124.733 356.266 114.923 344.335 114.923 Z M 328.796 162.798 C 324.557 162.798 322.047 160.365 322.047 160.365 L 324.714 145.218 C 326.599 135.015 331.935 128.344 337.586 128.344 C 342.609 128.344 344.101 132.975 344.101 137.291 C 344.178 147.809 337.901 162.798 328.796 162.798 Z M 384.442 91.613 C 379.261 91.613 375.101 95.773 375.101 101.032 C 375.101 105.819 378.163 109.194 382.793 109.194 L 382.95 109.194 C 388.052 109.194 392.368 105.741 392.446 99.776 C 392.525 94.989 389.307 91.613 384.442 91.613 Z M 361.681 173.943 L 377.927 173.943 L 388.915 116.179 L 372.59 116.179 M 430.354 116.1 L 419.052 116.1 L 419.602 113.433 C 420.544 107.86 423.841 102.994 429.334 102.994 C 432.238 102.994 434.514 103.857 434.514 103.857 L 437.653 91.064 C 437.653 91.064 434.907 89.651 428.784 89.651 C 423.055 89.651 417.248 91.3 412.853 95.066 C 407.28 99.776 404.69 106.604 403.434 113.51 L 402.964 116.179 L 395.351 116.179 L 392.918 128.501 L 400.531 128.501 L 391.898 174.022 L 408.143 174.022 L 416.776 128.501 L 428 128.501 Z M 469.518 116.179 C 469.518 116.179 459.315 141.843 454.841 155.892 L 454.684 155.892 C 454.371 151.34 450.682 116.179 450.682 116.179 L 433.573 116.179 L 443.383 169.077 C 443.539 170.254 443.462 170.961 442.99 171.746 C 441.106 175.434 437.889 178.966 434.121 181.556 C 431.061 183.754 427.607 185.245 424.861 186.187 L 429.413 200 C 432.709 199.294 439.616 196.547 445.345 191.131 C 452.722 184.225 459.629 173.473 466.693 158.875 L 486.55 116.1 L 469.518 116.1 Z" style=""/>
  <path class="cls-3" d="M 150.305 299.672 C 149.056 300.143 147.731 300.584 146.339 300.976 C 146.692 302.377 146.981 303.744 147.191 305.063 C 148.375 312.448 147.074 317.644 143.524 319.692 C 142.449 320.301 141.232 320.612 139.996 320.594 C 136.885 320.594 133.116 318.882 129.02 315.555 C 127.983 314.711 126.946 313.784 125.908 312.773 C 124.871 313.781 123.834 314.708 122.795 315.555 C 118.703 318.882 114.934 320.594 111.819 320.594 C 110.582 320.613 109.362 320.302 108.286 319.692 C 104.737 317.644 103.434 312.448 104.618 305.063 C 104.829 303.744 105.115 302.377 105.47 300.976 C 104.079 300.584 102.754 300.151 101.505 299.672 C 94.523 297.003 90.672 293.278 90.672 289.18 C 90.672 285.083 94.52 281.356 101.507 278.689 C 102.756 278.217 104.081 277.777 105.472 277.384 C 105.119 275.982 104.831 274.617 104.621 273.298 C 103.443 265.913 104.738 260.717 108.288 258.669 C 111.838 256.621 116.987 258.089 122.791 262.806 C 123.835 263.649 124.874 264.577 125.908 265.588 C 126.944 264.58 127.981 263.653 129.02 262.806 C 134.825 258.095 139.973 256.619 143.524 258.669 C 147.075 260.718 148.375 265.913 147.191 273.298 C 146.981 274.617 146.694 275.982 146.339 277.384 C 147.731 277.777 149.056 278.208 150.305 278.689 C 157.291 281.356 161.14 285.083 161.14 289.18 C 161.14 293.278 157.291 297.003 150.305 299.672 Z" style="fill: rgb(255, 255, 255);"/>
  <path class="cls-1" d="M 109.008 277.14 C 112.016 276.467 115.066 275.992 118.137 275.72 C 119.908 273.197 121.844 270.793 123.93 268.525 C 122.996 267.615 122.062 266.78 121.127 266.02 C 116.589 262.333 112.674 260.976 110.387 262.296 C 108.1 263.616 107.317 267.687 108.241 273.461 C 108.431 274.646 108.692 275.876 109.008 277.14 Z" style="fill: rgb(59, 161, 218);"/>
  <path class="cls-1" d="M 139.826 292.508 C 139.208 293.702 138.556 294.894 137.868 296.086 C 137.181 297.277 136.474 298.438 135.748 299.569 C 137.941 299.3 140.047 298.939 142.034 298.491 C 141.434 296.546 140.688 294.542 139.826 292.508 Z" style="fill: rgb(59, 161, 218);"/>
  <path class="cls-1" d="M 116.067 278.79 C 113.874 279.061 111.768 279.422 109.78 279.87 C 110.387 281.814 111.128 283.819 111.99 285.853 C 112.607 284.659 113.259 283.466 113.946 282.275 C 114.633 281.084 115.341 279.922 116.067 278.79 Z" style="fill: rgb(59, 161, 218);"/>
  <path class="cls-1" d="M 116.067 299.569 C 115.342 298.437 114.635 297.276 113.947 296.086 C 113.26 294.896 112.607 293.703 111.99 292.508 C 111.128 294.542 110.387 296.546 109.781 298.491 C 111.768 298.939 113.874 299.3 116.067 299.569 Z" style="fill: rgb(59, 161, 218);"/>
  <path class="cls-1" d="M 135.747 278.79 C 136.474 279.922 137.181 281.084 137.867 282.275 C 138.553 283.466 139.206 284.659 139.824 285.853 C 140.687 283.819 141.427 281.814 142.033 279.87 C 140.047 279.422 137.941 279.061 135.747 278.79 Z" style="fill: rgb(59, 161, 218);"/>
  <path class="cls-4" d="M 150.359 277.078 C 149.659 276.811 148.934 276.558 148.188 276.316 C 148.352 275.55 148.494 274.797 148.613 274.056 C 149.909 265.983 148.288 260.19 144.055 257.747 C 142.702 256.976 141.167 256.579 139.609 256.598 C 136.048 256.598 132.027 258.4 127.654 261.954 C 127.072 262.426 126.491 262.929 125.909 263.453 C 125.327 262.929 124.746 262.427 124.164 261.954 C 119.789 258.4 115.767 256.598 112.207 256.598 C 110.649 256.579 109.113 256.976 107.759 257.747 C 103.527 260.19 101.909 265.983 103.202 274.056 C 103.32 274.796 103.464 275.55 103.628 276.316 C 102.882 276.558 102.156 276.811 101.457 277.078 C 93.819 279.996 89.612 284.294 89.612 289.18 C 89.612 294.067 93.819 298.367 101.457 301.282 C 102.156 301.548 102.882 301.803 103.628 302.044 C 103.464 302.81 103.32 303.565 103.202 304.304 C 101.907 312.378 103.527 318.17 107.759 320.613 C 109.113 321.385 110.649 321.782 112.207 321.763 C 115.767 321.763 119.789 319.961 124.163 316.406 C 124.744 315.935 125.326 315.432 125.908 314.908 C 126.49 315.432 127.071 315.934 127.653 316.406 C 132.027 319.961 136.048 321.763 139.609 321.763 C 141.167 321.782 142.702 321.385 144.055 320.613 C 148.288 318.17 149.906 312.378 148.613 304.304 C 148.496 303.565 148.352 302.81 148.188 302.044 C 148.934 301.803 149.659 301.548 150.359 301.282 C 157.997 298.365 162.204 294.067 162.204 289.18 C 162.204 284.294 157.997 279.996 150.359 277.078 Z M 149.366 299.268 C 148.167 299.726 146.892 300.146 145.553 300.523 C 145.895 301.871 146.17 303.181 146.378 304.451 C 147.511 311.554 146.263 316.548 142.848 318.519 C 141.815 319.104 140.644 319.403 139.456 319.386 C 136.464 319.386 132.839 317.737 128.902 314.539 C 127.906 313.73 126.905 312.835 125.909 311.866 C 124.913 312.835 123.912 313.73 122.916 314.539 C 118.979 317.741 115.354 319.386 112.362 319.386 C 111.174 319.404 110.003 319.105 108.97 318.519 C 105.555 316.549 104.306 311.554 105.444 304.451 C 105.647 303.183 105.921 301.873 106.268 300.523 C 104.931 300.146 103.656 299.726 102.457 299.268 C 95.743 296.703 92.037 293.12 92.037 289.18 C 92.037 285.241 95.737 281.658 102.45 279.094 C 103.649 278.636 104.923 278.216 106.261 277.839 C 105.92 276.491 105.645 275.177 105.437 273.91 C 104.299 266.808 105.555 261.813 108.963 259.843 C 112.372 257.873 117.325 259.286 122.909 263.821 C 123.911 264.631 124.911 265.525 125.908 266.491 C 126.904 265.522 127.904 264.627 128.901 263.817 C 134.486 259.285 139.432 257.871 142.848 259.842 C 146.263 261.812 147.511 266.807 146.373 273.911 C 146.17 275.179 145.895 276.492 145.549 277.841 C 146.887 278.217 148.162 278.637 149.361 279.095 C 156.08 281.66 159.781 285.243 159.781 289.183 C 159.781 293.123 156.085 296.703 149.366 299.268 Z" style="fill: rgb(169, 169, 172);"/>
  <path class="cls-1" d="M 142.808 301.221 C 139.799 301.894 136.75 302.368 133.679 302.641 C 131.909 305.163 129.975 307.566 127.89 309.834 C 128.824 310.743 129.759 311.578 130.693 312.338 C 135.23 316.026 139.145 317.382 141.433 316.062 C 143.722 314.742 144.504 310.672 143.58 304.898 C 143.384 303.71 143.127 302.485 142.808 301.221 Z" style="fill: rgb(59, 161, 218);"/>
  <path class="cls-1" d="M 107.03 280.565 C 105.776 280.918 104.583 281.312 103.46 281.743 C 97.998 283.828 94.863 286.54 94.863 289.183 C 94.863 291.826 97.995 294.537 103.46 296.623 C 104.583 297.051 105.776 297.448 107.03 297.801 C 107.952 294.859 109.065 291.981 110.365 289.185 C 109.065 286.388 107.951 283.508 107.03 280.565 Z" style="fill: rgb(59, 161, 218);"/>
  <path class="cls-1" d="M 148.355 281.741 C 147.233 281.312 146.039 280.916 144.785 280.562 C 143.864 283.505 142.75 286.383 141.451 289.178 C 142.75 291.973 143.864 294.851 144.785 297.794 C 146.039 297.44 147.233 297.047 148.355 296.616 C 153.818 294.53 156.953 291.817 156.953 289.176 C 156.953 286.534 153.818 283.826 148.355 281.741 Z" style="fill: rgb(59, 161, 218);"/>
  <path class="cls-1" d="M 141.434 262.296 C 140.819 261.957 140.125 261.786 139.423 261.803 C 137.145 261.803 134.095 263.258 130.694 266.02 C 129.761 266.779 128.827 267.613 127.891 268.525 L 125.923 270.576 C 125.923 270.57 125.923 270.576 125.923 270.576 C 124.542 272.073 123.161 273.699 121.83 275.463 C 123.173 275.399 124.539 275.367 125.908 275.367 C 126.46 275.367 127.01 275.374 127.557 275.385 L 125.09 278.206 C 123.262 278.223 121.46 278.299 119.701 278.431 C 118.559 280.106 117.455 281.865 116.403 283.691 C 115.351 285.516 114.377 287.354 113.497 289.179 C 114.377 291.005 115.349 292.841 116.403 294.668 C 116.869 295.476 117.346 296.27 117.832 297.051 L 115.536 302.352 C 113.263 302.066 111.075 301.686 109.009 301.216 C 108.689 302.48 108.432 303.71 108.242 304.896 C 107.318 310.667 108.1 314.738 110.388 316.06 C 112.676 317.381 116.59 316.023 121.128 312.336 C 122.061 311.577 122.995 310.743 123.932 309.831 L 125.909 307.798 C 127.29 306.299 128.656 304.656 129.987 302.892 C 128.644 302.955 127.277 302.987 125.909 302.987 C 125.47 302.987 125.033 302.987 124.596 302.976 L 127.082 300.143 C 128.788 300.12 130.469 300.047 132.115 299.924 C 133.256 298.249 134.361 296.49 135.413 294.664 C 136.464 292.838 137.439 291.001 138.318 289.176 C 137.439 287.35 136.467 285.514 135.413 283.687 C 134.941 282.875 134.463 282.076 133.977 281.293 L 136.394 276.014 C 138.631 276.299 140.775 276.672 142.806 277.135 C 143.126 275.871 143.383 274.642 143.573 273.456 C 144.497 267.687 143.717 263.618 141.434 262.296 M 129.202 286.265 L 133.367 286.972 C 134.21 287.118 134.579 288.122 134.031 288.779 C 134.025 288.786 134.02 288.792 134.015 288.799 L 114.017 311.586 L 122.218 292.638 L 118.331 291.981 C 117.486 291.838 117.114 290.834 117.66 290.174 C 117.666 290.166 117.672 290.159 117.678 290.152 L 138.172 266.707" style="fill: rgb(59, 161, 218);"/>
  <g clip-path="url(#clip0)" transform="matrix(1, 0, 0, 1, 80.645294, 342.301788)">
    <path d="M65.6693 15.1956C65.6207 14.6844 65.2068 14.2949 64.6957 14.2949H24.6292C24.1181 14.2949 23.7043 14.6844 23.6556 15.1956L20.2964 55.8497C20.2477 56.4096 20.6859 56.8965 21.2701 56.8965H68.2252C68.7851 56.8965 69.2476 56.4096 69.1989 55.8497L65.6693 15.1956ZM43.7375 52.3199C36.7271 52.3199 31.0311 45.4549 31.0311 37.0563C31.0311 36.6181 31.3962 36.253 31.8344 36.253C32.2725 36.253 32.6377 36.6181 32.6377 37.0563C32.6377 44.6029 37.6277 50.7375 43.7618 50.7375C49.8959 50.7375 54.886 44.6029 54.886 37.0563C54.886 36.6181 55.2511 36.253 55.6892 36.253C56.1274 36.253 56.4925 36.6181 56.4925 37.0563C56.4438 45.4549 50.7479 52.3199 43.7375 52.3199ZM60.3142 36.5695C59.9977 36.8859 59.5109 36.8859 59.1944 36.5695L55.6892 33.064L52.1354 36.6181C51.9893 36.7642 51.7702 36.8616 51.5755 36.8616C51.3808 36.8616 51.1617 36.7886 51.0156 36.6181C50.6992 36.3017 50.6992 35.8148 51.0156 35.4983L55.1294 31.3842C55.2754 31.2382 55.4702 31.1408 55.6892 31.1408C55.9083 31.1408 56.1031 31.2138 56.2491 31.3842L60.3142 35.4496C60.6306 35.7661 60.6306 36.253 60.3142 36.5695Z" fill="#53C174"/>
    <path d="M72.9234 66.4401L68.907 17.7526C68.8583 17.1197 68.3228 16.6328 67.6899 16.6328H21.7571C21.1242 16.6328 20.5887 17.1197 20.54 17.7526L16.6697 66.4401C16.621 67.1461 17.1809 67.7547 17.8868 67.7547H71.7306C72.4365 67.7547 72.9964 67.1461 72.9234 66.4401ZM43.7377 52.3207C36.7273 52.3207 31.0313 45.4558 31.0313 37.0572C31.0313 36.619 31.3964 36.2539 31.8346 36.2539C32.2727 36.2539 32.6379 36.619 32.6379 37.0572C32.6379 44.6038 37.6279 50.7384 43.762 50.7384C49.8961 50.7384 54.8862 44.6038 54.8862 37.0572C54.8862 36.619 55.2513 36.2539 55.6894 36.2539C56.1276 36.2539 56.4927 36.619 56.4927 37.0572C56.444 45.4558 50.7481 52.3207 43.7377 52.3207ZM60.3144 36.5703C59.9979 36.8868 59.5111 36.8868 59.1946 36.5703L55.6894 33.0648L52.1356 36.619C51.9895 36.7651 51.7704 36.8625 51.5757 36.8625C51.381 36.8625 51.1619 36.7894 51.0158 36.619C50.6994 36.3026 50.6994 35.8157 51.0158 35.4992L55.1296 31.3851C55.2756 31.2391 55.4704 31.1417 55.6894 31.1417C55.9085 31.1417 56.1033 31.2147 56.2493 31.3851L60.3144 35.4505C60.6308 35.767 60.6308 36.2539 60.3144 36.5703Z" fill="url(#paint0_linear)"/>
  </g>
  <text x="189.235" y="300.549" style="white-space: pre; fill: rgb(51, 51, 51); font-family: &quot;Roboto Slab&quot;; font-size: 28px;">React StoreFront</text>
  <text x="191.789" y="395.252" style="white-space: pre; fill: rgb(51, 51, 51); font-family: &quot;Roboto Slab&quot;; font-size: 28px;">Vue StoreFront</text>
</svg>