<?xml version="1.0" standalone="no"?>
<!DOCTYPE svg PUBLIC "-//W3C//DTD SVG 20010904//EN"
 "http://www.w3.org/TR/2001/REC-SVG-20010904/DTD/svg10.dtd">
<svg version="1.0"
  xmlns="http://www.w3.org/2000/svg" width="400.000000pt" height="400.000000pt" viewBox="0 0 400.000000 400.000000" preserveAspectRatio="xMidYMid meet">

  <g transform="translate(0.000000,400.000000) scale(0.100000,-0.100000)" fill="#4472c4" stroke="none">
    <path d="M1833 3875 c-129 -36 -268 -133 -367 -255 -128 -159 -267 -458 -316
-682 l-13 -58 -194 0 c-106 0 -193 -3 -193 -6 0 -7 -133 -946 -150 -1059 -12
-81 -46 -316 -61 -425 -28 -205 -119 -853 -128 -910 -6 -36 -13 -84 -16 -107
l-7 -43 530 0 529 0 48 123 c26 67 65 163 85 212 21 50 59 144 85 210 26 66
53 134 60 150 7 17 49 120 93 230 l80 200 -285 3 c-156 1 -283 6 -281 10 2 4
47 95 100 202 95 194 431 876 534 1085 30 61 54 113 54 118 0 4 -175 7 -390 7
-378 0 -390 1 -390 19 0 41 93 301 146 406 68 138 68 137 139 232 73 98 149
163 245 211 73 36 78 37 186 37 107 0 112 -1 185 -37 89 -45 170 -112 232
-193 140 -185 211 -336 286 -613 l28 -102 -159 -278 c-88 -152 -170 -295 -183
-317 -12 -22 -80 -139 -149 -260 l-126 -220 285 -3 c157 -1 285 -6 285 -10 0
-4 -59 -81 -131 -172 -71 -91 -210 -266 -307 -389 -97 -123 -249 -315 -337
-425 -88 -111 -202 -254 -252 -319 l-93 -117 1038 0 1037 0 -42 297 c-24 164
-49 348 -58 408 -22 162 -82 584 -100 705 -45 300 -155 1093 -155 1115 l0 25
-232 0 -233 0 -19 78 c-23 94 -82 262 -126 357 -129 279 -298 464 -495 542
-77 31 -225 40 -302 18z"/>
  </g>
</svg>
