<svg width="93" height="110" viewBox="0 0 93 120" fill="none" xmlns="http://www.w3.org/2000/svg">
    <g clip-path="url(#clip0)">
        <path d="M87.23 14.3901C76.83 -0.489885 56.29 -4.89989 41.44 4.56011L15.36 21.1801C11.84 23.3909 8.8197 26.3113 6.49181 29.755C4.16391 33.1986 2.57959 37.0898 1.84 41.1801C0.592863 48.0838 1.68375 55.2062 4.94 61.4201C2.70829 64.8056 1.18755 68.6092 0.469998 72.6001C-0.274877 76.7808 -0.176455 81.0683 0.759477 85.2104C1.69541 89.3526 3.44996 93.2658 5.92 96.7201C16.32 111.6 36.86 116.01 51.71 106.55L77.79 90.0001C81.3059 87.7847 84.3232 84.8629 86.6505 81.4201C88.9779 77.9772 90.5646 74.0884 91.31 70.0001C92.5526 63.0986 91.4582 55.9797 88.2 49.7701C90.4306 46.3829 91.9543 42.5803 92.68 38.5901C93.4226 34.4093 93.3231 30.1224 92.3872 25.9805C91.4514 21.8387 89.698 17.9254 87.23 14.4701" fill="#FF3E00" />
        <path d="M38.89 98.16C34.7842 99.2254 30.4503 99.0056 26.4734 97.5304C22.4964 96.0551 19.0677 93.3953 16.65 89.91C15.1655 87.8332 14.1115 85.4805 13.5499 82.9904C12.9883 80.5002 12.9306 77.9228 13.38 75.41C13.5275 74.5926 13.7347 73.7871 14 73L14.49 71.5L15.83 72.5C18.9101 74.7486 22.3487 76.4594 26 77.56L27 77.85L26.91 78.85C26.8138 80.2211 27.1993 81.5828 28 82.7C28.7295 83.7484 29.7628 84.5482 30.9607 84.9916C32.1586 85.435 33.4636 85.5008 34.7 85.18C35.2653 85.028 35.8047 84.792 36.3 84.48L62.34 67.86C62.9795 67.4575 63.5279 66.9258 63.9498 66.299C64.3717 65.6721 64.6579 64.9639 64.79 64.22C64.9233 63.4617 64.9035 62.6844 64.7317 61.9339C64.56 61.1834 64.2398 60.4748 63.79 59.8499C63.0605 58.8015 62.0272 58.0017 60.8293 57.5583C59.6314 57.1149 58.3264 57.0491 57.09 57.37C56.524 57.52 55.9843 57.7561 55.49 58.07L45.49 64.4199C43.8545 65.457 42.0707 66.2393 40.2 66.7399C36.101 67.799 31.7759 67.577 27.8069 66.1038C23.8379 64.6306 20.4154 61.9769 18 58.5C16.52 56.4212 15.4702 54.0678 14.9121 51.5779C14.354 49.0879 14.2989 46.5115 14.75 44C15.1916 41.5348 16.1428 39.1889 17.5427 37.1122C18.9426 35.0356 20.7604 33.274 22.88 31.9399L49 15.32C50.6259 14.285 52.3994 13.5027 54.26 13C58.3643 11.9338 62.697 12.1533 66.6725 13.6287C70.6481 15.1041 74.0749 17.7643 76.49 21.25C77.9762 23.3259 79.032 25.6783 79.5953 28.1685C80.1586 30.6587 80.218 33.2364 79.77 35.75C79.614 36.572 79.4069 37.3836 79.15 38.18L78.65 39.68L77.32 38.68C74.2336 36.4142 70.7845 34.6896 67.12 33.58L66.12 33.29L66.21 32.29C66.3255 30.9121 65.95 29.5377 65.15 28.41C64.4159 27.3795 63.3855 26.597 62.1958 26.1665C61.0061 25.736 59.7135 25.6779 58.49 26C57.924 26.15 57.3844 26.3861 56.89 26.7L30.8 43.29C30.1628 43.6927 29.616 44.2232 29.1943 44.848C28.7726 45.4728 28.4851 46.1783 28.35 46.9199C28.2193 47.6799 28.2403 48.4582 28.412 49.21C28.5836 49.9617 28.9024 50.6721 29.35 51.3C30.0762 52.3389 31.1011 53.1325 32.2888 53.5755C33.4765 54.0184 34.7708 54.0897 36 53.7799C36.5646 53.6259 37.1037 53.3901 37.6 53.08L47.6 46.74C49.2343 45.6916 51.0226 44.9054 52.9 44.41C57.0033 43.3413 61.3357 43.5585 65.3115 45.0323C69.2873 46.506 72.7146 49.1651 75.13 52.65C76.6152 54.7265 77.6704 57.0788 78.2336 59.5689C78.7969 62.0589 78.8569 64.6364 78.41 67.15C77.9684 69.6151 77.0172 71.961 75.6173 74.0377C74.2174 76.1143 72.3995 77.8759 70.28 79.21L44.19 95.83C42.5514 96.8703 40.7644 97.6559 38.89 98.16" fill="white" />
    </g>
    <defs>
        <clipPath id="clip0">
            <rect width="93" height="120" fill="white" />
        </clipPath>
    </defs>
</svg>