<svg viewBox="0 0 90 80" fill="none" xmlns="http://www.w3.org/2000/svg">
<g clip-path="url(#clip0)">
<path d="M65.6693 15.1956C65.6207 14.6844 65.2068 14.2949 64.6957 14.2949H24.6292C24.1181 14.2949 23.7043 14.6844 23.6556 15.1956L20.2964 55.8497C20.2477 56.4096 20.6859 56.8965 21.2701 56.8965H68.2252C68.7851 56.8965 69.2476 56.4096 69.1989 55.8497L65.6693 15.1956ZM43.7375 52.3199C36.7271 52.3199 31.0311 45.4549 31.0311 37.0563C31.0311 36.6181 31.3962 36.253 31.8344 36.253C32.2725 36.253 32.6377 36.6181 32.6377 37.0563C32.6377 44.6029 37.6277 50.7375 43.7618 50.7375C49.8959 50.7375 54.886 44.6029 54.886 37.0563C54.886 36.6181 55.2511 36.253 55.6892 36.253C56.1274 36.253 56.4925 36.6181 56.4925 37.0563C56.4438 45.4549 50.7479 52.3199 43.7375 52.3199ZM60.3142 36.5695C59.9977 36.8859 59.5109 36.8859 59.1944 36.5695L55.6892 33.064L52.1354 36.6181C51.9893 36.7642 51.7702 36.8616 51.5755 36.8616C51.3808 36.8616 51.1617 36.7886 51.0156 36.6181C50.6992 36.3017 50.6992 35.8148 51.0156 35.4983L55.1294 31.3842C55.2754 31.2382 55.4702 31.1408 55.6892 31.1408C55.9083 31.1408 56.1031 31.2138 56.2491 31.3842L60.3142 35.4496C60.6306 35.7661 60.6306 36.253 60.3142 36.5695Z" fill="#53C174"/>
<!-- <rect x="26.0181" y="28.166" width="36.6263" height="30.7038" fill="white"/> -->
<path d="M72.9234 66.4401L68.907 17.7526C68.8583 17.1197 68.3228 16.6328 67.6899 16.6328H21.7571C21.1242 16.6328 20.5887 17.1197 20.54 17.7526L16.6697 66.4401C16.621 67.1461 17.1809 67.7547 17.8868 67.7547H71.7306C72.4365 67.7547 72.9964 67.1461 72.9234 66.4401ZM43.7377 52.3207C36.7273 52.3207 31.0313 45.4558 31.0313 37.0572C31.0313 36.619 31.3964 36.2539 31.8346 36.2539C32.2727 36.2539 32.6379 36.619 32.6379 37.0572C32.6379 44.6038 37.6279 50.7384 43.762 50.7384C49.8961 50.7384 54.8862 44.6038 54.8862 37.0572C54.8862 36.619 55.2513 36.2539 55.6894 36.2539C56.1276 36.2539 56.4927 36.619 56.4927 37.0572C56.444 45.4558 50.7481 52.3207 43.7377 52.3207ZM60.3144 36.5703C59.9979 36.8868 59.5111 36.8868 59.1946 36.5703L55.6894 33.0648L52.1356 36.619C51.9895 36.7651 51.7704 36.8625 51.5757 36.8625C51.381 36.8625 51.1619 36.7894 51.0158 36.619C50.6994 36.3026 50.6994 35.8157 51.0158 35.4992L55.1296 31.3851C55.2756 31.2391 55.4704 31.1417 55.6894 31.1417C55.9085 31.1417 56.1033 31.2147 56.2493 31.3851L60.3144 35.4505C60.6308 35.767 60.6308 36.2539 60.3144 36.5703Z" fill="url(#paint0_linear)"/>
</g>
<defs>
<linearGradient id="paint0_linear" x1="70.6978" y1="69.3328" x2="18.9346" y2="18.9995" gradientUnits="userSpaceOnUse">
<stop stop-color="#5DCB79"/>
<stop offset="1" stop-color="#61D67F"/>
</linearGradient>
<clipPath id="clip0">
<rect width="300" height="80" fill="white"/>
</clipPath>
</defs>
</svg>
