<svg viewBox="0 0 90 80" fill="none" xmlns="http://www.w3.org/2000/svg">
    <g >
        <path d="M65.67 15.196a.98.98 0 0 0-.974-.901H24.629a.98.98 0 0 0-.973.9l-3.36 40.655a.965.965 0 0 0 .974 1.047h46.955c.56 0 1.023-.487.974-1.047l-3.53-40.654ZM43.736 52.32c-7.01 0-12.706-6.865-12.706-15.264a.81.81 0 0 1 .803-.803.81.81 0 0 1 .804.803c0 7.547 4.99 13.681 11.124 13.681s11.124-6.134 11.124-13.68a.81.81 0 0 1 .803-.804.81.81 0 0 1 .803.803c-.048 8.399-5.744 15.264-12.755 15.264Zm16.577-15.75a.78.78 0 0 1-1.12 0l-3.505-3.506-3.554 3.554a.839.839 0 0 1-.56.244.74.74 0 0 1-.56-.244.78.78 0 0 1 0-1.12l4.114-4.114a.792.792 0 0 1 .56-.243c.22 0 .414.073.56.243l4.065 4.066a.78.78 0 0 1 0 1.12Z" fill="#53C174"/>
        <path d="m72.923 66.44-4.016-48.687a1.22 1.22 0 0 0-1.217-1.12H21.757a1.22 1.22 0 0 0-1.217 1.12L16.67 66.44a1.23 1.23 0 0 0 1.217 1.315H71.73c.706 0 1.265-.609 1.192-1.315ZM43.738 52.32c-7.01 0-12.707-6.864-12.707-15.263a.81.81 0 0 1 .804-.803.81.81 0 0 1 .803.803c0 7.547 4.99 13.681 11.124 13.681s11.124-6.134 11.124-13.68a.81.81 0 0 1 .803-.804.81.81 0 0 1 .804.803c-.049 8.399-5.745 15.264-12.755 15.264Zm16.576-15.75a.779.779 0 0 1-1.12 0l-3.505-3.505-3.553 3.554a.839.839 0 0 1-.56.243.74.74 0 0 1-.56-.243.78.78 0 0 1 0-1.12l4.114-4.114a.792.792 0 0 1 .56-.243c.218 0 .413.073.56.243l4.064 4.065a.78.78 0 0 1 0 1.12Z" fill="url(#b)"/>
    </g>
    <defs>
        <linearGradient id="b" x1="70.698" y1="69.333" x2="18.935" y2="19" gradientUnits="userSpaceOnUse">
            <stop stop-color="#5DCB79"/>
            <stop offset="1" stop-color="#61D67F"/>
        </linearGradient>
    </defs>
</svg>
