<svg version="1.0" xmlns="http://www.w3.org/2000/svg" viewBox="0 0 200 200" preserveAspectRatio="xMidYMid meet">
  <g transform="translate(0.000000,200.000000) scale(0.100000,-0.100000)" fill="#000000" stroke="none">
    <path 
      d="M130 1988 c-44 -12 -106 -78 -120 -126 -13 -49 -14 -1673 0 -1722 15
      -55 77 -117 130 -130 31 -7 299 -10 886 -8 l841 3 39 27 c21 15 50 44 64 65
      l25 37 3 830 c2 587 0 846 -8 883 -13 62 -72 127 -128 143 -50 13 -1684 12
      -1732 -2z m1270 -467 l0 -59 -182 -271 c-101 -149 -199 -296 -218 -325 -19
      -30 -75 -114 -125 -188 -49 -73 -91 -136 -93 -140 -2 -5 137 -8 308 -8 292 0
      311 -1 306 -17 -2 -10 -8 -37 -11 -61 l-7 -42 -379 0 -379 0 0 62 0 61 138
      204 c75 112 153 228 172 258 19 30 95 142 168 250 72 108 132 201 132 206 0 5
      -113 9 -275 9 l-275 0 0 60 0 60 360 0 360 0 0 -59z"
    />
  </g>
</svg>
