<svg xmlns="http://www.w3.org/2000/svg" viewBox="0 0 28.6434 27.17993"><g id="Layer_2" data-name="Layer 2"  fill="#fff"><g id="Layer_1-2" data-name="Layer 1"><path d="M28.64075,12.22778c-.002-1.3457-.43066-1.77929-1.76367-1.78515-.88574-.00391-.88574-.00391-1.252-.66016-.04785-.08594-.10156-.18164-.16113-.28613-.61621-1.07324-.52442-1.64649.36328-2.27442a1.18844,1.18844,0,0,0,.52929-.86816,1.42456,1.42456,0,0,0-.4414-1.11621c-.81055-.8418-1.65332-1.68359-2.50391-2.50293a1.31777,1.31777,0,0,0-1.95312.001c-.11817.10449-.2295.21777-.33985.33007l-.123.125c-.55957.56055-.5586.56153-1.18262.38672-.09473-.02636-.19922-.05566-.31836-.08593A1.5031,1.5031,0,0,1,18.16712,1.51,1.275,1.275,0,0,0,17.91029.46216,1.50348,1.50348,0,0,0,16.74915.01c-1.01562-.01367-2.0791-.0127-3.34863-.001a1.355,1.355,0,0,0-1.49707,1.46973c-.00977.248-.00781.49707-.00586.76465l.001.16406-.72852.001c-.81641.00293-1.58984.00195-2.32324-.00879a.66937.66937,0,0,1-.18555-.21582A2.209,2.209,0,1,0,6.14564,5.303,2.26589,2.26589,0,0,0,8.671,4.13892.55318.55318,0,0,1,9.007,3.93286c1.04492-.042,2.15136-.05176,3.41015-.03515a1.00981,1.00981,0,0,0,.76758-.26661,1.01955,1.01955,0,0,0,.22852-.80566,5.57918,5.57918,0,0,1,.01171-1.11523.47865.47865,0,0,1,.13282-.17579c.66894-.02539,1.332-.02246,1.84082-.01953H15.547c.34375.001.7002,0,1.06153-.00488.03711,0,.05859.00293.07226.00195a.56075.56075,0,0,1,.00879.13379c-.00683.34668-.00586.69238-.0039,1.03809l.001.29394a1.43439,1.43439,0,0,0,1.083,1.46875,16.61059,16.61059,0,0,1,1.88672.75782,1.36711,1.36711,0,0,0,1.74707-.291c.27441-.30273.54-.61816.80078-.92871l.0459-.05371L24.672,6.36548l-.13476.12012c-.23535.21-.48438.43261-.72852.65918a1.399,1.399,0,0,0-.27343,1.80957,18.6136,18.6136,0,0,1,.84668,1.91894,1.4504,1.4504,0,0,0,1.46875,1.07813l.07128-.001c.34082-.01172.67481-.00977,1.02832-.00586l.14356.001v3.28222h-.373c-.23828.002-.46875.001-.73047-.00195a1.38849,1.38849,0,0,0-1.44043,1.0752,22.24836,22.24836,0,0,1-.85449,2.19043,1.39137,1.39137,0,0,0,.32324,1.74121c.22071.20019.457.38769.752.623l.127.10157c-.0957.083-.18848.16308-.2793.24218-.376.3252-.70019.60742-1.00683.917-.30664.30859-.58008.62792-.89649.99707l-.03418.04c-.07324.08692-.14941.17481-.22754.26661l-.09277-.11426c-.20215-.2461-.36426-.44238-.5332-.63086a1.42891,1.42891,0,0,0-1.91309-.30859,17.66109,17.66109,0,0,1-2.15722.91406,1.42951,1.42951,0,0,0-1.07129,1.47363l-.002.23633a4.66406,4.66406,0,0,0,.00782.48047.66153.66153,0,0,1-.00293.1748.42041.42041,0,0,1-.19434.01953c-.52441-.01855-1.04883-.01269-1.55859-.01074-.21973.002-.43946.00391-.65918.00391a2.845,2.845,0,0,1-.80469-.05176,2.62333,2.62333,0,0,1-.05371-.76856.896.896,0,0,0-1.03516-1.03027c-.5293.01172-1.06445.01074-1.59765.00586h-.09961c-.50293-.00293-1.00879-.00488-1.51661.00684l.00245.125c-.00818.00042-.01355-.0008-.02149-.00043l-.0376-.1236a.45388.45388,0,0,1-.51855-.3125A2.11172,2.11172,0,0,0,6.1388,22.42212a2.20263,2.20263,0,0,0-.00488,4.27246,2.22924,2.22924,0,0,0,2.46484-1.041c.15332-.24707.23731-.31347.22363-.32031.81543-.03027,1.627-.03027,2.5-.02344l.56836.00293c.00391.05469.00684.10352.00782.15332.04394,1.26758.47851,1.69629,1.72265,1.69825l.24707-.001c.166,0,.335,0,.501-.00195l.13965-.001c.43164-.002.87305-.00293,1.30762.00879.19824.00586.38671.01074.56347.01074a1.8929,1.8929,0,0,0,1.45508-.418,2.35866,2.35866,0,0,0,.376-1.85644.40524.40524,0,0,1,.127-.18848c.62891-.2832,1.27441-.543,1.89844-.793l.49218-.19726c.08008.07519.169.1582.25684.24316.05859.05762.11524.11524.17285.17481.1084.11132.2168.2207.334.32421a1.28778,1.28778,0,0,0,1.85351.02344c.96387-.917,1.82715-1.78125,2.63965-2.64355a1.35451,1.35451,0,0,0,.38086-1.04,1.03923,1.03923,0,0,0-.44336-.751c-.86914-.6084-.6875-1.15137-.35547-2.13769l.04688-.14551c.30468-.917.64355-1.16113,1.5498-1.07324a1.31818,1.31818,0,0,0,1.03711-.292,1.50688,1.50688,0,0,0,.43555-1.15332c.00879-.7666.00683-1.53515.00488-2.30175ZM7.35853,3.17407a.67663.67663,0,0,1-.21094.49024.701.701,0,0,1-1.16895-.51856.73474.73474,0,0,1,.68946-.68652h.00781a.67115.67115,0,0,1,.47754.20312A.71078.71078,0,0,1,7.35853,3.17407ZM6.71888,23.86743a.69269.69269,0,0,1-.044,1.38379.70333.70333,0,0,1-.5-.21973.66365.66365,0,0,1,.03125-.97558.719.719,0,0,1,.47657-.18945v-.125l.01355.0003Z"/><path d="M15.005,21.095h.03321a7.61268,7.61268,0,0,0,7.40722-6.77344,7.42481,7.42481,0,0,0-6.24512-8.07031,8.64121,8.64121,0,0,0-3.66308.37012.65091.65091,0,0,0-.45117.75293.79963.79963,0,0,0,.80859.67187h.01172a1.15932,1.15932,0,0,0,.37207-.09668c.042-.01562.083-.03125.12207-.04394A5.91544,5.91544,0,0,1,18.1056,18.65161a6.12919,6.12919,0,0,1-4.9668.53125.54439.54439,0,0,0-.665.34277c-.14355.29981-.18359.82227.11328,1.02442A4.94808,4.94808,0,0,0,15.005,21.095Z"/><path d="M1.63392,10.76392a2.37969,2.37969,0,0,0,.6084.081A2.05948,2.05948,0,0,0,4.13294,9.66333c.12012-.24707.22168-.28418.53125-.28418,1.53711.0127,3.09668.01074,4.61817.00781L10.466,9.386c.95605-.001,1.13769-.18555,1.13965-1.15918l.001-2.14746h1.44727c.73242-.002,1.44629-.001,2.16113.00195.2793,0,1.01953,0,1.0293-.75195a.71363.71363,0,0,0-.19531-.53223,1.11156,1.11156,0,0,0-.8252-.2334l-.94238.00391c-1.10156.00879-2.0957.01172-3.084-.00977h-.05273a1.06773,1.06773,0,0,0-.81055.26856,1.06447,1.06447,0,0,0-.251.833c.02148.56543.0166,1.12793.01172,1.74317l-.00293.47363-1.207-.001c-1.47265-.00293-2.8623-.00293-4.27929.00879A.39951.39951,0,0,1,4.132,7.60962,2.14289,2.14289,0,0,0,1.62415,6.5061a2.21191,2.21191,0,0,0-1.624,2.13868A2.166,2.166,0,0,0,1.63392,10.76392ZM2.212,7.95435a.69811.69811,0,0,1,.6875.66894.70892.70892,0,0,1-.21582.50586.68918.68918,0,0,1-.4834.21094.70844.70844,0,0,1-.6875-.68457.67653.67653,0,0,1,.19141-.49317.7014.7014,0,0,1,.50488-.208v-.125h.0011Z"/><path d="M7.57337,19.56958h.334q.457-.00147.915-.00195c.418,0,.79883-.01075,1.26661.01562l.00293.001.00293.49023.001.1211c.002.57422.00293,1.12109-.00879,1.67578a.98738.98738,0,0,0,.25.77637.91841.91841,0,0,0,.67676.23437l.07324-.001c.36817-.01464.73926-.01367,1.10157-.00879h.17382c.11231-.001.22559-.001.34766.00293l.665.002c.69238.00293,1.374.00586,2.05273-.01758a1.04028,1.04028,0,0,0,.72754-.43848.49247.49247,0,0,0,.05957-.40332.7857.7857,0,0,0-.30468-.48144,1.57869,1.57869,0,0,0-.75782-.16309c-.78027-.00586-1.5625-.00683-2.36914-.00586l-1.17773.001V19.35083c-.001-1.13379-.1543-1.291-1.2627-1.291l-1.3164-.001c-1.49024-.00293-2.98145-.00293-4.46582.00488-.25293-.01172-.29981-.02734-.38672-.208A2.14645,2.14645,0,0,0,1.6515,16.67993a2.20549,2.20549,0,0,0-.04688,4.25684A2.1296,2.1296,0,0,0,4.1515,19.803c.10449-.2168.17382-.24024.42285-.24024C5.57337,19.56958,6.57532,19.57056,7.57337,19.56958Zm-4.67578-.7334a.69162.69162,0,1,1-1.17578-.51367.68662.68662,0,0,1,.48437-.21191h.00293a.68349.68349,0,0,1,.48243.21972A.70793.70793,0,0,1,2.89759,18.83618Z"/><path d="M13.40736,14.33813c.66113.00293,1.33593.00684,2.00586-.02148.10449-.00488.35546-.05957.43359-.47559.0498-.26464.04883-.80566-.30859-.96191a1.09862,1.09862,0,0,0-.54688-.05469c-.04883.00391-.09766.00782-.14453.00782l-1.09082-.001c-1.27344-.00391-2.54785-.00488-3.832.00683-.22168,0-.28614-.0371-.38477-.21972a2.15,2.15,0,0,0-2.55371-1.09668,2.17473,2.17473,0,0,0-1.583,2.15332,2.20875,2.20875,0,0,0,1.65625,2.10449,2.24144,2.24144,0,0,0,2.55762-1.21387.538.538,0,0,1,.32715-.209c.57324-.02832,1.16211-.02539,1.73437-.02246l.13184.001c.23144.002.44629-.01075.70312.0039Zm-5.8125-1.52441v.125a.73385.73385,0,0,1,.70605.69238.72966.72966,0,0,1-.70117.69727.68565.68565,0,0,1-.47559-.19043.67789.67789,0,0,1-.21484-.49121.71447.71447,0,0,1,.66894-.708l.01038-.12482Z"/></g></g></svg>