<svg xmlns="http://www.w3.org/2000/svg" viewBox="0 0 28.24299 26.77956">
  <g id="Layer_2" data-name="Layer 2" fill="#606060">
    <g id="Layer_1-2" data-name="Layer 1">
      <path d="M11.99333,24.7869c-1.17413,0-2.28575-.02041-3.395.022-.16657.00637-.35883.2838-.47592.47466a1.90261,1.90261,0,0,1-2.10712.89639A1.87786,1.87786,0,0,1,6.021,22.53633a1.78816,1.78816,0,0,1,2.08055.91439.7871.7871,0,0,0,.87441.49457c1.0711-.02227,2.14336.01047,3.21443-.01264.51851-.01118.7033.18744.70231.704-.0022,1.14676.01788,1.1469,1.18394,1.1468.7354-.00007,1.47159-.021,2.2059.00711.42243.0162.568-.14733.53331-.54786-.01987-.22941-.00258-.46189-.00541-.69295a1.1161,1.1161,0,0,1,.85589-1.1626,18.18789,18.18789,0,0,0,2.19654-.932,1.12223,1.12223,0,0,1,1.52213.23529c.251.28059.484.57733.86231,1.03148.537-.61231.94113-1.11878,1.39428-1.57674.44045-.44514.93115-.84055,1.56018-1.4006-.4854-.3946-.8392-.65836-1.165-.953a1.076,1.076,0,0,1-.245-1.368,22.84923,22.84923,0,0,0,.86741-2.2233,1.07867,1.07867,0,0,1,1.15689-.84936c.45614.00579.9124.00115,1.40293.00115V11.42155c-.51692,0-1.01306-.0127-1.50827.00318a1.14247,1.14247,0,0,1-1.22438-.86259,18.69286,18.69286,0,0,0-.86114-1.95392,1.08161,1.08161,0,0,1,.204-1.425c.38389-.35629.77812-.70143,1.11488-1.004l-2.91359-2.929c-.30682.35907-.67715.81186-1.06882,1.24537a1.05154,1.05154,0,0,1-1.36776.21491,16.89788,16.89788,0,0,0-1.92329-.77378,1.108,1.108,0,0,1-.85907-1.16059c-.00117-.44122-.00558-.88255.00253-1.32362.00541-.29431-.06812-.47267-.41917-.46785-1.02936.01411-2.05973-.01323-3.0878.02582-.14591.00554-.37531.275-.40237.44795a5.694,5.694,0,0,0-.01494,1.1944c.02884.50614-.16866.72544-.69261.71906-1.13429-.01383-2.26976-.00806-3.403.03559a.86.86,0,0,0-.60241.36443A1.94174,1.94174,0,0,1,6.01926,4.78629a1.89733,1.89733,0,0,1-1.42392-1.7921,1.86213,1.86213,0,0,1,1.419-1.85068A1.88087,1.88087,0,0,1,8.17942,2.14618c.08965.1561.27.36473.41347.3687,1.109.03063,2.21931.01688,3.4327.01688,0-.46187-.01281-.85189.00268-1.24078.03184-.7992.38366-1.15,1.17523-1.1571,1.11351-.01,2.22731-.01206,3.34075.00155.75563.00923,1.20428.38484,1.10073,1.12913a1.81678,1.81678,0,0,0,1.56827,2.34162c1.05465.27322,1.02.40673,1.81245-.38573.14856-.14856.29176-.30322.44812-.44312a.99887.99887,0,0,1,1.51184-.00915q1.271,1.22375,2.49578,2.49514A.92763.92763,0,0,1,25.43961,6.756c-1.11652.7896-1.0964,1.5895-.458,2.70252.59831,1.0432.494,1.103,1.693,1.10882,1.15328.00555,1.43888.29383,1.44047,1.46043.00139,1.00855.0082,2.0172-.00343,3.02562-.0087.75424-.37533,1.19369-1.11519,1.12443-1.048-.09809-1.53387.22167-1.88985,1.29441-.35421,1.06742-.68976,1.86817.42977,2.65181a.8485.8485,0,0,1,.01258,1.30236c-.85.90136-1.72989,1.776-2.62713,2.6306A.96939.96939,0,0,1,21.505,24.0223c-.174-.15133-.32824-.32518-.49427-.48589-.14909-.14432-.302-.28471-.41286-.38891-.89861.36556-1.7569.69561-2.59409,1.07251a.64668.64668,0,0,0-.31666.499c.14523,1.96767-.52867,1.96933-2.06132,1.92473-.73479-.02139-1.4707-.00284-2.2061-.0045-1.07773-.00243-1.35831-.28187-1.39625-1.38386C12.01918,25.13219,12.00786,25.00923,11.99333,24.7869ZM7.48388,2.981A1.02444,1.02444,0,0,0,6.46679,1.934,1.0564,1.0564,0,0,0,5.45346,2.93544a1.02365,1.02365,0,0,0,.96673,1.03188A.99244.99244,0,0,0,7.48388,2.981Zm.00553,21.40814A1.01778,1.01778,0,0,0,6.53756,23.343a1.0179,1.0179,0,1,0-.0625,2.03342A1.02164,1.02164,0,0,0,7.48941,24.38913Z"/>
      <path d="M16.17981,26.77956c-.17481,0-.36133-.00489-.55762-.01075-.48535-.01367-.97656-.00976-1.4541-.00781-.25.00293-.50489.002-.748.00293-1.13965-.00195-1.48145-.33984-1.52148-1.50488-.002-.07813-.00782-.15625-.01563-.26074l-.00586-.08594c-.25391,0-.50391-.001-.75293-.00293-.86914-.00391-1.69238-.00781-2.52051.02441-.01269,0-.12988.0166-.375.415a2.028,2.028,0,0,1-2.24414.95215,2.00283,2.00283,0,0,1,.00489-3.88574,1.91683,1.91683,0,0,1,2.2246.98047.64324.64324,0,0,0,.69825.42578c.0205,0,.04-.001.06054-.001.54-.01172,1.07715-.00879,1.61133-.00684.53321.00489,1.07031.00586,1.60352-.00585a.70247.70247,0,0,1,.83008.8291c-.001.52343.0039.80078.11132.90918.11231.1123.40918.1123.94727.1123.22168,0,.44238-.002.66406-.0039.50781-.00391,1.0293-.00782,1.54688.01074a.452.452,0,0,0,.34277-.0791.4305.4305,0,0,0,.06055-.333,4.518,4.518,0,0,1-.00684-.459c.001-.08105.00293-.16211.00195-.24218a1.234,1.234,0,0,1,.93848-1.28321,17.90408,17.90408,0,0,0,2.18164-.9248,1.236,1.236,0,0,1,1.67188.26367c.16894.18848.33007.38477.53222.63086.07422.08887.15235.18555.23926.291.13574-.15528.2627-.30372.38379-.44629.32715-.38184.6084-.71192.91992-1.02637.30176-.30469.624-.584.998-.9082.14453-.125.29687-.25684.458-.39942-.11133-.08984-.21582-.17285-.31446-.251-.27734-.22071-.51757-.41114-.74121-.61426a1.1942,1.1942,0,0,1-.27539-1.51172,22.4302,22.4302,0,0,0,.86231-2.21,1.19418,1.19418,0,0,1,1.25-.93653h.02832c.30957.00391.62207.002.94238.002l.333-.001V11.54616c-.11524-.001-.22949-.002-.34375-.002-.35547-.0039-.69239-.00586-1.03516.00586-.02148.001-.043.001-.06445.001a1.25634,1.25634,0,0,1-1.28125-.94629,18.56194,18.56194,0,0,0-.85547-1.94043,1.203,1.203,0,0,1,.23047-1.57324c.26855-.249.542-.49219.79785-.7207l.2207-.19629L22.0382,3.43483l-.18652.2207c-.24121.28613-.51465.61133-.79687.92383a1.17039,1.17039,0,0,1-1.51368.24414A16.69191,16.69191,0,0,0,17.632,4.05592a1.2362,1.2362,0,0,1-.94531-1.27929l-.001-.29395c-.00195-.34375-.00293-.68848.00391-1.0332a.39236.39236,0,0,0-.0625-.28028.30547.30547,0,0,0-.21875-.05957H16.3966c-.40039.00586-.80273.00489-1.19824.00489-.62695-.00489-1.25977-.00293-1.88672.02148a.56237.56237,0,0,0-.28418.3418,5.69521,5.69521,0,0,0-.01367,1.16211.83055.83055,0,0,1-.17383.65234.82282.82282,0,0,1-.623.20508h-.0205c-1.2627-.01758-2.37012-.00488-3.39746.03515a.74047.74047,0,0,0-.5.30372,2.0772,2.0772,0,0,1-2.3086,1.07226A2.01734,2.01734,0,0,1,4.47082,2.99635,1.98606,1.98606,0,0,1,5.98449,1.02272,2.01035,2.01035,0,0,1,8.2882,2.08327c.09668.17089.24512.30468.30762.30664.84277.02246,1.68359.01953,2.56836.01855l.73633-.00195-.00293-.29785c-.00195-.29-.00488-.55664.00586-.82227A1.156,1.156,0,0,1,13.20227.00905c1.29882-.0127,2.36035-.01172,3.34375.001a1.313,1.313,0,0,1,1.01269.38282,1.08224,1.08224,0,0,1,.21.88964,1.69682,1.69682,0,0,0,1.47559,2.20215c.13183.03418.24609.06641.34765.09473.6875.19238.70313.19531,1.34473-.44727l.124-.126c.10743-.11035.21582-.21973.33008-.32129A1.12417,1.12417,0,0,1,23.07238,2.678c.85352.82227,1.69434,1.66309,2.499,2.49805a1.23023,1.23023,0,0,1,.38574.959.99471.99471,0,0,1-.44531.72364c-.97461.68847-1.08887,1.376-.42188,2.53711.0625.10839.11719.207.166.29492.418.74707.418.74707,1.41992.752,1.22558.00488,1.5625.3457,1.56445,1.585l.001.72656c.00195.76661.0039,1.53418-.00488,2.29981a1.31707,1.31707,0,0,1-.36914,1.00684,1.10387,1.10387,0,0,1-.88282.24121c-.999-.09473-1.4248.20019-1.75976,1.209l-.04785.14648c-.3379,1.00586-.56055,1.66993.43066,2.36426a.83788.83788,0,0,1,.35937.6084,1.1518,1.1518,0,0,1-.32714.88184c-.80371.85254-1.66407,1.71484-2.63184,2.63574a1.08876,1.08876,0,0,1-1.585-.03027c-.11231-.09864-.2168-.20508-.32129-.3125-.05859-.06055-.11719-.12012-.17773-.17872-.124-.12011-.25-.2373-.35254-.333q-.30762.1245-.60938.24511c-.66211.26563-1.28613.51661-1.90625.7959a.52872.52872,0,0,0-.24414.376,2.21831,2.21831,0,0,1-.32129,1.71387A1.74273,1.74273,0,0,1,16.17981,26.77956ZM14.799,26.50807c.27636,0,.55468.00293.83105.01074.88477.02539,1.39844.02637,1.67969-.26758.23437-.24511.3125-.71484.252-1.52343a.76867.76867,0,0,1,.3916-.62207c.624-.28125,1.252-.53321,1.915-.79883.22559-.09082.45215-.18164.68262-.27539l.07324-.0293.10352.0957c.10644.09864.23925.22168.37011.34864.06153.06054.12207.12207.18262.18359.09961.10254.19922.20508.30664.29785a.847.847,0,0,0,1.249.03809c.96386-.918,1.82128-1.77637,2.62207-2.626a.895.895,0,0,0,.25976-.68457.5814.5814,0,0,0-.25293-.42871c-1.14453-.80176-.85742-1.6582-.52539-2.64941l.04883-.14453A1.65844,1.65844,0,0,1,27.00793,16.054a.88154.88154,0,0,0,.69141-.17871,1.095,1.095,0,0,0,.28711-.82324c.00878-.76563.00683-1.53125.00488-2.29786l-.001-.72656c-.002-1.09375-.23535-1.33008-1.3164-1.335-1.11524-.00586-1.18848-.08008-1.63575-.87988-.04882-.08789-.10351-.18457-.165-.292-.73046-1.27149-.58691-2.10254.49415-2.86719a.747.747,0,0,0,.34082-.542.98539.98539,0,0,0-.31641-.76172c-.80274-.833-1.6416-1.67188-2.49316-2.49219a.876.876,0,0,0-1.3418.0127c-.10938.09863-.21387.20507-.31738.31054l-.125.12793c-.72266.72363-.83106.72168-1.58985.51074-.09961-.02734-.21289-.05957-.34277-.09277a1.94271,1.94271,0,0,1-1.66113-2.47949.84317.84317,0,0,0-.15137-.69141A1.07821,1.07821,0,0,0,16.54211.26c-.97852-.01074-2.04-.01171-3.33789-.001-.71777.00586-1.02246.30664-1.05078,1.03711-.01074.26172-.00781.52441-.00586.80957.002.13574.00293.27734.00293.42578v.125l-.98535.00195c-.8916-.001-1.73145.00391-2.5752-.01855-.21875-.00586-.42871-.27442-.51855-.43262A1.763,1.763,0,0,0,6.045,1.26491,1.73808,1.73808,0,0,0,4.72082,2.99245,1.76094,1.76094,0,0,0,6.04895,4.66432a1.81414,1.81414,0,0,0,2.03515-.957.98552.98552,0,0,1,.70508-.42481c1.03223-.04,2.14355-.05371,3.41016-.03515h.01855a.59591.59591,0,0,0,.44141-.12793.60478.60478,0,0,0,.10547-.46,5.85938,5.85938,0,0,1,.0166-1.22071c.03515-.2246.30469-.54492.52148-.55273.63184-.02441,1.27832-.02734,1.89551-.02148.39844-.001.7959.001,1.19434-.00489h.01562a.52794.52794,0,0,1,.39551.13282.62015.62015,0,0,1,.13574.46191c-.00684.34277-.00586.68555-.00391,1.02734l.001.29493a.98755.98755,0,0,0,.77344,1.041,17.1863,17.1863,0,0,1,1.93652.7793.9258.9258,0,0,0,1.22266-.18555c.2793-.30957.55176-.63183.791-.917l.36329-.42871,3.10253,3.11816-.418.374c-.25391.22656-.52637.46875-.79395.71679A.95779.95779,0,0,0,23.73645,8.553a18.565,18.565,0,0,1,.86718,1.96582,1.00257,1.00257,0,0,0,1.10352.78125c.34668-.01172.68652-.00976,1.04492-.00586.1543.001.30957.002.4668.002h.125v4.18066l-.582.001c-.32227,0-.63477.001-.94727-.002h-.02441a.95029.95029,0,0,0-1.01172.7627,22.60537,22.60537,0,0,1-.87207,2.23535.95564.95564,0,0,0,.21484,1.22461c.21777.19824.45508.38574.72852.60352.13281.10546.27539.21875.43164.3457l.11426.0918-.11036.09863c-.2041.18066-.39257.3457-.57031.499-.37012.32129-.68945.59766-.98437.89551-.30469.30859-.584.63477-.90723,1.0127-.15137.17675-.30957.3623-.48242.55859l-.09668.11035-.09278-.1123c-.126-.15039-.23535-.28418-.335-.40528-.19921-.24316-.35839-.43652-.52441-.623a.99445.99445,0,0,0-1.37207-.207,18.3988,18.3988,0,0,1-2.21191.93848.98637.98637,0,0,0-.77247,1.043c.001.084-.001.167-.00195.251a3.96376,3.96376,0,0,0,.00684.43261.6418.6418,0,0,1-.12891.52735.65691.65691,0,0,1-.53418.15625c-.50879-.02051-1.03125-.01563-1.53515-.01074-.22168.002-.44434.0039-.666.0039-.625,0-.93848,0-1.124-.18555-.18653-.18652-.18555-.50585-.18457-1.08593a.64469.64469,0,0,0-.124-.4668.652.652,0,0,0-.45019-.1123c-.53711.01269-1.07325.01074-1.61133.00585-.5332-.002-1.07031-.00488-1.60352.00684-.0205,0-.041.001-.06054.001a.88443.88443,0,0,1-.92871-.56739,1.67009,1.67009,0,0,0-1.9375-.84668A1.75269,1.75269,0,0,0,6.047,26.05885,1.79082,1.79082,0,0,0,8.01574,25.218c.21973-.35742.40332-.52734.57813-.53418.835-.03222,1.65918-.02734,2.53125-.02441q.4292.00293.86816.00293h.11719l.02148.31836c.00782.1084.01368.18945.01661.2705.03613,1.03614.26171,1.26075,1.27148,1.2627.25195-.001.498-.001.74609-.00293C14.37512,26.51,14.58606,26.50807,14.799,26.50807ZM6.47668,25.50123H6.47473a1.15448,1.15448,0,0,1-.82422-.35742,1.13333,1.13333,0,0,1-.32422-.82031,1.14645,1.14645,0,0,1,.376-.7998,1.16393,1.16393,0,0,1,.84179-.30567,1.14778,1.14778,0,0,1,1.07032,1.17481h0A1.14925,1.14925,0,0,1,6.47668,25.50123Zm.00586-2.03515a.91432.91432,0,0,0-.61133.24219A.86288.86288,0,0,0,5.8302,24.97a.90489.90489,0,0,0,.64453.28125h.00195a.89255.89255,0,0,0,.05371-1.7832C6.51379,23.46706,6.49816,23.46608,6.48254,23.46608ZM6.47668,4.093c-.02148,0-.042,0-.0625-.001A1.15545,1.15545,0,0,1,5.32824,2.93288a1.177,1.177,0,0,1,1.1377-1.124H6.4757a1.11248,1.11248,0,0,1,.79786.33789,1.1667,1.1667,0,0,1,.335.83692A1.11558,1.11558,0,0,1,6.47668,4.093Zm-.001-2.03418H6.46789a.93319.93319,0,0,0-.88965.88086.90125.90125,0,0,0,.84766.90235.86672.86672,0,0,0,.93262-.86426h0a.916.916,0,0,0-.2627-.65625A.87216.87216,0,0,0,6.4757,2.05885Z"/>
      <path d="M14.8305,20.56972a4.574,4.574,0,0,1-2.26075-.48923c-.178-.12037-.05084-.88724.2712-.78863a6.23968,6.23968,0,1,0,.26766-11.8981,1.95564,1.95564,0,0,1-.41561.127c-.52954.0195-.65114-.6814-.27-.78594a8.29719,8.29719,0,0,1,3.52665-.36363,7.09728,7.09728,0,0,1,5.97124,7.72306A7.25878,7.25878,0,0,1,14.8305,20.56972Z"/>
      <path d="M14.80481,20.69459a4.59793,4.59793,0,0,1-2.30567-.51074c-.19043-.1289-.1543-.54394-.04492-.77246.0957-.20019.25391-.293.42285-.23828a6.322,6.322,0,0,0,5.13086-.5498A6.117,6.117,0,0,0,13.14367,7.51393c-.04492.01367-.09082.03125-.13672.04883a.96638.96638,0,0,1-.30859.083.60071.60071,0,0,1-.61523-.502.44881.44881,0,0,1,.30664-.52929,8.50828,8.50828,0,0,1,3.5791-.36621A7.22781,7.22781,0,0,1,22.046,14.10475a7.40988,7.40988,0,0,1-7.21289,6.58984h-.02832Zm-2.01856-1.28613c-.01855,0-.04785.01172-.084.06934a.62829.62829,0,0,0-.05957.501,4.43483,4.43483,0,0,0,2.16308.46582h.02246A7.15471,7.15471,0,0,0,21.796,14.08327,6.97968,6.97968,0,0,0,15.92981,6.4944a8.34352,8.34352,0,0,0-3.47364.36035.20709.20709,0,0,0-.126.251.33332.33332,0,0,0,.34179.29h.0166a.78425.78425,0,0,0,.22852-.06641c.05176-.01953.10449-.04.15527-.05566a6.36627,6.36627,0,0,1,5.06348,11.56543,6.55319,6.55319,0,0,1-5.33105.57226A.082.082,0,0,0,12.78625,19.40846Z"/>
      <path d="M11.08092,5.554c0,.88321.0015,1.67778-.00043,2.47234-.0019.78481-.04558.83355-.81459.8347-1.93314.00289-3.86636.0088-5.79937-.00718a.755.755,0,0,0-.82567.46765,1.78054,1.78054,0,0,1-2.12392.92794,1.85457,1.85457,0,0,1-1.39213-1.805A1.89293,1.89293,0,0,1,1.50753,6.6208a1.81475,1.81475,0,0,1,2.13283.93281.71583.71583,0,0,0,.77064.45526c1.90782-.01673,3.81587-.00769,5.80494-.00769,0-.88833.02323-1.72262-.00793-2.55488-.02181-.58233.21449-.77526.78218-.76369,1.34422.0274,2.6894.01021,4.03419.0064.332-.00094.69925.0096.69419.43685-.005.42323-.37324.43052-.70417.42959C13.73536,5.55187,12.4563,5.554,11.08092,5.554ZM2.01268,7.42931A1.00825,1.00825,0,0,0,.98787,8.4632,1.03835,1.03835,0,0,0,1.9951,9.46513,1.05565,1.05565,0,0,0,3.02482,8.417,1.0245,1.0245,0,0,0,2.01268,7.42931Z"/>
      <path d="M2.04211,10.44459a2.185,2.185,0,0,1-.55762-.07421A1.96848,1.96848,0,0,1,.00012,8.44459,2.01117,2.01117,0,0,1,1.4757,6.49928a1.94742,1.94742,0,0,1,2.27735.999.59413.59413,0,0,0,.65722.38574c1.41309-.01172,2.80079-.01172,4.27442-.00879l1.40625.001c.001-.22753.00293-.45117.0039-.67285.00489-.60449.00977-1.17578-.01171-1.75195a.882.882,0,0,1,.19335-.68555.89091.89091,0,0,1,.668-.208h.04883c1.02832.02246,2.0752.0166,3.08887.00976l.94238-.00391a.941.941,0,0,1,.68164.17383.51893.51893,0,0,1,.1377.38965c-.00684.55371-.52149.55371-.8291.55371-.95508-.0039-1.91211-.002-2.90528-.002h-.90332v.53418c0,.62891,0,1.22168-.001,1.81348-.002.85937-.09864.958-.93946.959l-.69531.001c-1.6748.002-3.4043.00586-5.10449-.00782H4.4425a.62575.62575,0,0,0-.68945.39746A1.86949,1.86949,0,0,1,2.04211,10.44459ZM2.01281,6.678a1.80411,1.80411,0,0,0-.47265.06348,1.75861,1.75861,0,0,0-1.29,1.70312A1.71961,1.71961,0,0,0,1.549,10.12819a1.65967,1.65967,0,0,0,1.97949-.86133.86591.86591,0,0,1,.917-.53809h.02246c1.69824.01368,3.42774.00977,5.10254.00782l.69531-.001c.6875-.001.6875-.001.68946-.709.001-.59278.001-1.18457.001-1.81348V5.429h1.15332c.99219,0,1.94922-.001,2.90528.002.4248,0,.57617-.0459.5791-.30566a.28322.28322,0,0,0-.06543-.21192c-.10059-.10058-.32422-.09961-.50391-.09961l-.94043.00391c-1.0166.00781-2.06347.0127-3.09668-.00976a.71349.71349,0,0,0-.53222.13378.67053.67053,0,0,0-.12207.5c.02148.582.0166,1.15625.01171,1.76368-.00195.26172-.0039.52636-.0039.79589v.125l-1.65723-.001c-1.46973-.00391-2.86035-.00391-4.27148.00879H4.39367a.83512.83512,0,0,1-.86523-.52442A1.67431,1.67431,0,0,0,2.01281,6.678ZM2.00891,9.5901H1.99328a1.16384,1.16384,0,0,1-1.13086-1.124,1.1173,1.1173,0,0,1,.32031-.81836A1.14421,1.14421,0,0,1,2.00891,7.304h.0039A1.14239,1.14239,0,0,1,3.14953,8.4153a1.1598,1.1598,0,0,1-.34765.831A1.13311,1.13311,0,0,1,2.00891,9.5901Zm0-2.03613a.89768.89768,0,0,0-.64746.26855.87223.87223,0,0,0-.249.6377.91134.91134,0,0,0,.88477.87988h.01172a.88434.88434,0,0,0,.61621-.26953A.87864.87864,0,0,0,2.01281,7.554Z"/>
      <path d="M11.08008,21.49369c1.35513,0,2.61212-.00479,3.869.00484a1.26038,1.26038,0,0,1,.5986.11969c.10194.05862.19621.33863.14355.4137a.71878.71878,0,0,1-.47425.30257c-.90126.02959-1.804.01529-2.70619.01574-.54554.00027-1.09185-.01818-1.63639.005-.49595.02116-.67293-.19908-.66247-.67669.01869-.85388.00526-1.70846.00526-2.60112-.272-.014-.4758-.03338-.67963-.03365-1.72053-.00234-3.44113.0057-5.16158-.00689a.65766.65766,0,0,0-.71674.42547,1.81454,1.81454,0,0,1-2.16976.96,1.88064,1.88064,0,0,1,.03836-3.62724,1.821,1.821,0,0,1,2.15262,1.0006.61315.61315,0,0,0,.67124.39335c1.9303-.01136,3.8607-.00558,5.79106-.00459.92484.00048.93608.01248.93715.96575C11.08075,19.90131,11.08008,20.65237,11.08008,21.49369ZM2.00888,17.585A1.04276,1.04276,0,0,0,.989,18.63761a1.01567,1.01567,0,0,0,1.00944.98949,1.02749,1.02749,0,0,0,1.024-.97958A1.05381,1.05381,0,0,0,2.00888,17.585Z"/>
      <path d="M10.81359,22.4817a.72918.72918,0,0,1-.53613-.17675A.80325.80325,0,0,1,10.087,21.676c.0127-.5957.00977-1.18164.00781-1.80273q-.00292-.33546-.00293-.67774c-.04882-.00293-.09472-.00586-.13964-.00879-.15137-.00879-.28321-.01758-.415-.01758q-.91552-.00293-1.83106,0c-1.10937,0-2.2207.001-3.331-.00683H4.35363a.52769.52769,0,0,0-.582.35351,1.93265,1.93265,0,0,1-2.31543,1.02735,2.00555,2.00555,0,0,1,.042-3.86914,1.95281,1.95281,0,0,1,2.29493,1.06836c.13476.27929.27441.30761.55761.32128,1.49317-.00781,2.9834-.00683,4.47559-.00488l1.31641.001c.99218,0,1.06152.07129,1.0625,1.09082v2.21777l.88867-.001c.97949,0,1.91894-.002,2.85644.00586a1.392,1.392,0,0,1,.66016.13671.58166.58166,0,0,1,.209.35059.30339.30339,0,0,1-.02636.24316.83954.83954,0,0,1-.57227.35547c-.68066.02344-1.37109.02149-2.04492.01758l-.665-.002c-.18066-.00489-.34766-.002-.52148-.00293-.36329-.00391-.74024-.00586-1.11036.00879C10.85656,22.4817,10.83508,22.4817,10.81359,22.4817ZM8.5841,18.91823c.31738,0,.63574,0,.95313.001.13672,0,.27441.00879.43066.01856.0791.00488.16309.00976.25488.01465l.11914.00586v.11914q0,.40283.00293.79492c.002.62207.00489,1.21-.00781,1.80957a.59848.59848,0,0,0,.11524.44531.55569.55569,0,0,0,.417.10352c.375-.01563.7539-.01367,1.123-.00879.17285.001.34863.00293.51855.00293l.666.002c.667.002,1.35839.00586,2.03613-.01758a.60276.60276,0,0,0,.376-.249.48528.48528,0,0,0-.10449-.23438,1.17409,1.17409,0,0,0-.53613-.10253c-.93652-.00684-1.875-.00489-2.85449-.00586l-1.13867.001V19.15065c-.001-.84082-.001-.84082-.8125-.84082l-1.31641-.001q-2.23682-.00439-4.47363.00488a.74337.74337,0,0,1-.78418-.46386,1.69227,1.69227,0,0,0-2.01172-.9336A1.75557,1.75557,0,0,0,1.5216,20.301,1.685,1.685,0,0,0,3.547,19.40846a.77577.77577,0,0,1,.81055-.49609h.01953c1.1084.00683,2.21973.00683,3.3291.00683C7.99914,18.91823,8.29113,18.91823,8.5841,18.91823Zm-6.5791.834H1.99719A1.14488,1.14488,0,0,1,.86438,18.64088a1.16262,1.16262,0,0,1,.33691-.834,1.13567,1.13567,0,0,1,.80469-.34668h.00293a1.14021,1.14021,0,0,1,.80664.35742A1.13286,1.13286,0,0,1,2.005,19.75221Zm.001-2.042a.88755.88755,0,0,0-.627.27148.90883.90883,0,0,0-.26464.65332.894.894,0,0,0,.88476.86719H2.005a.88235.88235,0,0,0,.62988-1.51074.88085.88085,0,0,0-.626-.28125H2.006Z"/>
      <path d="M12.306,13.81384c-.85964,0-1.72045-.0242-2.57807.01742a.8491.8491,0,0,0-.59372.37241A1.94726,1.94726,0,0,1,6.93342,15.263,1.87541,1.87541,0,0,1,5.52731,13.47a1.856,1.856,0,0,1,1.34655-1.83622,1.82674,1.82674,0,0,1,2.17874.93907.655.655,0,0,0,.68747.39048c1.63529-.01361,3.27076-.00657,4.90617-.00629a1.49762,1.49762,0,0,1,.56.0187c.19665.08591.17365.80749-.0077.815-.96277.0401-1.9281.01886-2.89255.01886Zm-3.87966-.38762A1.05632,1.05632,0,0,0,7.357,12.41471a1.03558,1.03558,0,0,0-.97286,1.03491,1.01568,1.01568,0,0,0,1.059,1.003A1.04486,1.04486,0,0,0,8.42634,13.42622Z"/>
      <path d="M7.39563,15.44362a2.15411,2.15411,0,0,1-.49122-.0586,2.00474,2.00474,0,0,1-1.502-1.91308,1.97489,1.97489,0,0,1,1.4375-1.958,1.95478,1.95478,0,0,1,2.32324.999.52846.52846,0,0,0,.56055.3252h.01563c1.2705-.01074,2.54394-.00977,3.8164-.00684l1.09082.001c.05274,0,.10742-.00391.16211-.00879a.8879.8879,0,0,1,.44727.03809c.23242.10156.23144.54394.19433.74218-.0498.26465-.17578.30957-.24609.3125-.7168.03028-1.44434.02442-2.15039.02149-.209-.001-.418-.00293-.62695-.00293l-.1211.0039c-.23144,0-.46289-.00195-.69433-.0039-.61329-.00293-1.25293-.00879-1.87793.02148a.72968.72968,0,0,0-.49121.30957A2.12162,2.12162,0,0,1,7.39563,15.44362ZM7.43176,11.678a1.90687,1.90687,0,0,0-.52344.07617A1.72882,1.72882,0,0,0,5.65246,13.468,1.74927,1.74927,0,0,0,6.963,15.14088a1.80833,1.80833,0,0,0,2.0625-.999.96462.96462,0,0,1,.69629-.43555c.6289-.03222,1.27051-.02441,1.8916-.02148.18945.002.37793.00293.56738.0039v-.0039h.125q.375,0,.75.00293c.69336.00195,1.41211.00781,2.11426-.02051a.71655.71655,0,0,0,.0459-.35449.3909.3909,0,0,0-.0625-.22363.78528.78528,0,0,0-.3252-.01661c-.06152.00489-.123.00977-.18164.00977l-1.09082-.001c-1.27148-.00293-2.543-.00488-3.81445.00684H9.7218a.769.769,0,0,1-.7793-.45606A1.6978,1.6978,0,0,0,7.43176,11.678Zm-.0332,2.90039a1.14115,1.14115,0,0,1-1.13965-1.12793,1.1462,1.1462,0,0,1,2.292-.02636h0a1.16474,1.16474,0,0,1-1.10254,1.15332C7.43176,14.57838,7.41516,14.57838,7.39856,14.57838Zm-.00391-2.04c-.01074,0-.02149,0-.0332.001a.91649.91649,0,0,0-.85254.90918.8913.8913,0,0,0,.89062.87988c.0127,0,.02539,0,.03906-.001A.92074.92074,0,0,0,8.3009,13.428h0a.93327.93327,0,0,0-.90625-.88965Z"/>
    </g>
  </g>
</svg>
