<svg width="100" height="77" viewBox="0 0 100 77" fill="none" xmlns="http://www.w3.org/2000/svg">
<path d="M63.176 38.5758L41.2852 5.47381C41.239 5.40403 41.2126 5.32304 41.2088 5.23944C41.205 5.15585 41.2239 5.07279 41.2636 4.99911C41.3032 4.92542 41.3621 4.86387 41.434 4.82101C41.5059 4.77815 41.588 4.75558 41.6717 4.75571H67.8844C69.4229 4.75583 70.9372 5.13924 72.2903 5.87132C73.6435 6.60339 74.793 7.66106 75.6349 8.94876L95 38.5758H63.176Z" stroke="white" stroke-width="9" stroke-linejoin="round"/>
<path d="M63.176 38.5379L41.2852 71.6399C41.239 71.7097 41.2127 71.7907 41.2089 71.8742C41.2051 71.9578 41.2241 72.0408 41.2637 72.1145C41.3034 72.1882 41.3622 72.2497 41.4341 72.2926C41.5059 72.3355 41.588 72.3581 41.6717 72.358H67.8844C69.4229 72.3579 70.9372 71.9745 72.2903 71.2424C73.6435 70.5103 74.793 69.4526 75.6349 68.1649L95 38.5379H63.176Z" stroke="white" stroke-width="9" stroke-linejoin="round"/>
<path d="M36.824 38.5758L58.7148 5.47381C58.761 5.40411 58.7874 5.32319 58.7913 5.23967C58.7951 5.15615 58.7763 5.07314 58.7367 4.99947C58.6972 4.92581 58.6384 4.86424 58.5667 4.82132C58.4949 4.77839 58.4129 4.75572 58.3292 4.75571H32.1156C30.5771 4.75583 29.0628 5.13924 27.7097 5.87132C26.3565 6.60339 25.2071 7.66106 24.3652 8.94876L5 38.5758H36.824Z" stroke="white" stroke-width="9" stroke-linejoin="round"/>
<path d="M36.824 38.5379L58.7148 71.6399C58.761 71.7096 58.7873 71.7905 58.7912 71.874C58.795 71.9575 58.7761 72.0405 58.7366 72.1141C58.6971 72.1878 58.6383 72.2493 58.5666 72.2923C58.4949 72.3352 58.4128 72.3579 58.3292 72.358H32.1156C30.5771 72.3578 29.0628 71.9744 27.7097 71.2424C26.3565 70.5103 25.2071 69.4526 24.3652 68.1649L5 38.5379H36.824Z" stroke="white" stroke-width="9" stroke-linejoin="round"/>
</svg>
