<svg viewBox="0 0 21 21" fill="none" xmlns="http://www.w3.org/2000/svg"><title id="githubIconTitle">Github Icon</title><path d="M10.0123 0.243652C4.48912 0.243652 0.015625 4.83184 0.015625 10.4966C0.015625 15.0335 2.87716 18.8656 6.85082 20.2241C7.35065 20.3138 7.53809 20.0062 7.53809 19.7371C7.53809 19.4935 7.52559 18.6861 7.52559 17.8274C5.01394 18.3016 4.36416 17.1994 4.16423 16.6227C4.05176 16.3279 3.56443 15.418 3.13957 15.1745C2.78969 14.9823 2.28986 14.5081 3.12708 14.4952C3.91431 14.4824 4.47662 15.2386 4.66406 15.5462C5.56375 17.0969 7.00077 16.6612 7.57557 16.392C7.66304 15.7256 7.92546 15.277 8.21286 15.0207C5.98861 14.7644 3.66439 13.8801 3.66439 9.95831C3.66439 8.8433 4.05176 7.92054 4.68905 7.20283C4.58908 6.94651 4.2392 5.89558 4.78901 4.48581C4.78901 4.48581 5.62623 4.21667 7.53809 5.53673C8.33782 5.30604 9.18753 5.19069 10.0372 5.19069C10.887 5.19069 11.7367 5.30604 12.5364 5.53673C14.4483 4.20385 15.2855 4.48581 15.2855 4.48581C15.8353 5.89558 15.4854 6.94651 15.3854 7.20283C16.0227 7.92054 16.4101 8.83049 16.4101 9.95831C16.4101 13.8929 14.0734 14.7644 11.8491 15.0207C12.2115 15.3411 12.5239 15.9563 12.5239 16.9175C12.5239 18.2888 12.5114 19.391 12.5114 19.7371C12.5114 20.0062 12.6988 20.3266 13.1987 20.2241C15.1832 19.5369 16.9076 18.2288 18.1293 16.4838C19.351 14.7388 20.0083 12.6448 20.0089 10.4966C20.0089 4.83184 15.5354 0.243652 10.0123 0.243652Z" fill="#000"></path></svg>