<svg class="inline" width="15" height="15" viewBox="0 0 15 15" fill="none"
  xmlns="http://www.w3.org/2000/svg">
  <path d="M7.34375 14.0625H7.225C7.12481 14.0352 7.03633 13.9758 6.97312 13.8934C6.9099 13.811 6.87544 13.7101 6.875 13.6063V7.8125H5.10625C4.58079 7.8125 4.07685 7.60376 3.70529 7.23221C3.33374 6.86065 3.125 6.35671 3.125 5.83125V1.09375C3.12662 0.969933 3.17652 0.851643 3.26408 0.764084C3.35164 0.676524 3.46993 0.626619 3.59375 0.625H7.34375C7.46757 0.626619 7.58586 0.676524 7.67342 0.764084C7.76098 0.851643 7.81088 0.969933 7.8125 1.09375V4.375H10.35C10.6348 4.37263 10.9152 4.44605 11.1623 4.58772C11.4094 4.7294 11.6144 4.93424 11.7563 5.18125C11.8989 5.42828 11.974 5.7085 11.974 5.99375C11.974 6.279 11.8989 6.55922 11.7563 6.80625L7.75 13.825C7.70973 13.8973 7.6508 13.9575 7.57934 13.9993C7.50788 14.0411 7.42652 14.0629 7.34375 14.0625ZM4.0625 1.5625V5.83125C4.0625 6.10807 4.17247 6.37355 4.36821 6.56929C4.56395 6.76503 4.82943 6.875 5.10625 6.875H7.34375C7.46757 6.87662 7.58586 6.92652 7.67342 7.01408C7.76098 7.10164 7.81088 7.21993 7.8125 7.34375V11.8313L10.9375 6.34375C10.9972 6.23903 11.0287 6.12056 11.0287 6C11.0287 5.87944 10.9972 5.76097 10.9375 5.65625C10.8764 5.54581 10.7853 5.45492 10.6747 5.39409C10.5641 5.33326 10.4385 5.30497 10.3125 5.3125H7.34375C7.21993 5.31088 7.10164 5.26098 7.01408 5.17342C6.92652 5.08586 6.87662 4.96757 6.875 4.84375V1.5625H4.0625Z" fill="#606060" stroke="#606060" stroke-width="0.5"></path>
</svg>
