<svg class="inline" width="15" height="15" viewBox="0 0 15 15" fill="none" xmlns="http://www.w3.org/2000/svg"><path d="M5.34375 14.0625H5.225C5.12481 14.0352 5.03633 13.9758 4.97312 13.8934C4.9099 13.811 4.87544 13.7101 4.875 13.6063V7.8125H3.10625C2.58079 7.8125 2.07685 7.60376 1.70529 7.23221C1.33374 6.86065 1.125 6.35671 1.125 5.83125V1.09375C1.12662 0.969933 1.17652 0.851643 1.26408 0.764084C1.35164 0.676524 1.46993 0.626619 1.59375 0.625H5.34375C5.46757 0.626619 5.58586 0.676524 5.67342 0.764084C5.76098 0.851643 5.81088 0.969933 5.8125 1.09375V4.375H8.35C8.63484 4.37263 8.91518 4.44605 9.16229 4.58772C9.4094 4.7294 9.61439 4.93424 9.75625 5.18125C9.89887 5.42828 9.97396 5.7085 9.97396 5.99375C9.97396 6.279 9.89887 6.55922 9.75625 6.80625L5.75 13.825C5.70973 13.8973 5.6508 13.9575 5.57934 13.9993C5.50788 14.0411 5.42652 14.0629 5.34375 14.0625ZM2.0625 1.5625V5.83125C2.0625 6.10807 2.17247 6.37355 2.36821 6.56929C2.56395 6.76503 2.82943 6.875 3.10625 6.875H5.34375C5.46757 6.87662 5.58586 6.92652 5.67342 7.01408C5.76098 7.10164 5.81088 7.21993 5.8125 7.34375V11.8313L8.9375 6.34375C8.99724 6.23903 9.02865 6.12056 9.02865 6C9.02865 5.87944 8.99724 5.76097 8.9375 5.65625C8.87638 5.54581 8.78526 5.45492 8.67466 5.39409C8.56406 5.33326 8.4385 5.30497 8.3125 5.3125H5.34375C5.21993 5.31088 5.10164 5.26098 5.01408 5.17342C4.92652 5.08586 4.87662 4.96757 4.875 4.84375V1.5625H2.0625Z" fill="white" stroke="white" stroke-width="0.5"></path></svg>