<svg width="116" height="32" viewBox="0 0 116 32" fill="none" xmlns="http://www.w3.org/2000/svg">
<rect width="115.117" height="32" rx="5" fill="url(#paint0_linear_703_3)"/>
<line x1="46.25" y1="1.09278e-08" x2="46.25" y2="32" stroke="white" stroke-width="0.5"/>
<path d="M60 21C63.5455 21 65.5455 18.7955 65.5455 15.1591C65.5455 11.5455 63.5455 9.36364 60.1591 9.36364H56.4091V21H60ZM57.8182 19.75V10.6136H60.0682C62.7955 10.6136 64.1818 12.3409 64.1818 15.1591C64.1818 18 62.7955 19.75 59.9091 19.75H57.8182ZM71.3864 21.1818C73.1591 21.1818 74.4545 20.2955 74.8636 18.9773L73.5682 18.6136C73.2273 19.5227 72.4375 19.9773 71.3864 19.9773C69.8125 19.9773 68.7273 18.9602 68.6648 17.0909H75V16.5227C75 13.2727 73.0682 12.1591 71.25 12.1591C68.8864 12.1591 67.3182 14.0227 67.3182 16.7045C67.3182 19.3864 68.8636 21.1818 71.3864 21.1818ZM68.6648 15.9318C68.7557 14.5739 69.7159 13.3636 71.25 13.3636C72.7045 13.3636 73.6364 14.4545 73.6364 15.9318H68.6648ZM77.0398 24.2727H78.3807V19.6591H78.4943C78.7898 20.1364 79.358 21.1818 81.0398 21.1818C83.2216 21.1818 84.7443 19.4318 84.7443 16.6591C84.7443 13.9091 83.2216 12.1591 81.017 12.1591C79.3125 12.1591 78.7898 13.2045 78.4943 13.6591H78.3352V12.2727H77.0398V24.2727ZM78.358 16.6364C78.358 14.6818 79.2216 13.3636 80.858 13.3636C82.5625 13.3636 83.4034 14.7955 83.4034 16.6364C83.4034 18.5 82.5398 19.9773 80.858 19.9773C79.2443 19.9773 78.358 18.6136 78.358 16.6364ZM88.1307 9.36364H86.7898V21H88.1307V9.36364ZM94.1321 21.1818C96.4957 21.1818 98.0866 19.3864 98.0866 16.6818C98.0866 13.9545 96.4957 12.1591 94.1321 12.1591C91.7685 12.1591 90.1776 13.9545 90.1776 16.6818C90.1776 19.3864 91.7685 21.1818 94.1321 21.1818ZM94.1321 19.9773C92.3366 19.9773 91.5185 18.4318 91.5185 16.6818C91.5185 14.9318 92.3366 13.3636 94.1321 13.3636C95.9276 13.3636 96.7457 14.9318 96.7457 16.6818C96.7457 18.4318 95.9276 19.9773 94.1321 19.9773ZM100.685 24.2727C101.895 24.2727 102.747 23.6307 103.253 22.2727L106.969 12.2955L105.503 12.2727L103.094 19.2273H103.003L100.594 12.2727H99.1392L102.366 21.0455L102.116 21.7273C101.628 23.0568 101.026 23.1818 100.048 22.9318L99.7074 24.1136C99.8438 24.1818 100.23 24.2727 100.685 24.2727Z" fill="white"/>
<path d="M29.7116 9.04208L31.9524 5H15V27.11H31.9524L29.7235 23.0679H19.4062V17.9829H26.85L28.0882 13.9376H19.4062V9.04208H29.7116Z" fill="white"/>
<defs>
<linearGradient id="paint0_linear_703_3" x1="0.5" y1="16" x2="115" y2="16" gradientUnits="userSpaceOnUse">
<stop stop-color="#812991"/>
<stop offset="0.473958" stop-color="#00A2E2"/>
<stop offset="1" stop-color="#01B18D"/>
</linearGradient>
</defs>
</svg>
