
<svg width="116" height="32" viewBox="0 0 116 32" fill="none" xmlns="http://www.w3.org/2000/svg">
  <rect width="115.117" height="32" rx="5" fill="#35274B"/>
  <path d="M18.028 16L22.7283 18.3065L27.4286 16L22.7283 13.6935L18.028 16Z" fill="#F6BDD6"/>
  <path d="M22.7283 23.3392C22.6288 23.3399 22.5306 23.3172 22.4416 23.2727L12.8291 18.5517L10.4644 19.7153L22.7283 25.7371L34.9964 19.7153L32.6275 18.5517L23.0026 23.2727C22.9174 23.3153 22.8236 23.338 22.7283 23.3392V23.3392Z" fill="#E95495"/>
  <path d="M22.7283 19.6239C22.6333 19.624 22.5396 19.6027 22.454 19.5616L16.6234 16.694L14.2462 17.8701L22.7283 22.026L31.2104 17.8701L28.8457 16.7065L23.0026 19.574C22.916 19.6109 22.8223 19.6279 22.7283 19.6239Z" fill="#F195BD"/>
  <path d="M15.9044 16.3491L15.1979 16L12.8291 17.1636L13.5397 17.5086L14.2462 17.8577L16.6151 16.694L15.9044 16.3491Z" fill="#777475"/>
  <path d="M23.0026 12.4384C22.9176 12.3954 22.8236 12.3729 22.7283 12.3729C22.633 12.3729 22.539 12.3954 22.454 12.4384L16.6234 15.306L17.334 15.6509L18.0405 16L22.7283 13.7143L27.4286 16L28.1392 15.6509L28.8457 15.306L23.0026 12.4384Z" fill="#ABA9A9"/>
  <path d="M30.2587 16L29.5522 16.3491L28.8457 16.694L31.2104 17.8577L31.921 17.5086L32.6275 17.1636L30.2587 16Z" fill="#777475"/>
  <path d="M31.2104 14.1299L32.6275 13.4358L23.0026 8.72727C22.9153 8.68436 22.8193 8.66205 22.7221 8.66205C22.6248 8.66205 22.5288 8.68436 22.4416 8.72727L12.8291 13.4483L14.2462 14.1299L22.7283 9.97402L31.2104 14.1299Z" fill="#777475"/>
  <path d="M37.0327 16C37.032 15.8834 36.999 15.7692 36.9374 15.6702C36.8758 15.5712 36.7879 15.4911 36.6836 15.439L34.0405 14.1299L36.6836 12.8332C36.7879 12.7818 36.8757 12.7021 36.9371 12.6033C36.9985 12.5046 37.031 12.3906 37.031 12.2743C37.031 12.158 36.9985 12.044 36.9371 11.9452C36.8757 11.8464 36.7879 11.7668 36.6836 11.7153L23.0026 5.01195C22.9176 4.96886 22.8236 4.94641 22.7283 4.94641C22.633 4.94641 22.539 4.96886 22.454 5.01195L8.77298 11.7278C8.6687 11.7793 8.58089 11.8589 8.5195 11.9577C8.45811 12.0565 8.42558 12.1705 8.42558 12.2868C8.42558 12.4031 8.45811 12.517 8.5195 12.6158C8.58089 12.7146 8.6687 12.7942 8.77298 12.8457L11.4161 14.1299L8.77298 15.4265C8.66758 15.4775 8.5787 15.5572 8.51651 15.6565C8.45431 15.7557 8.42133 15.8704 8.42133 15.9875C8.42133 16.1046 8.45431 16.2194 8.51651 16.3186C8.5787 16.4178 8.66758 16.4975 8.77298 16.5486L11.4161 17.8701L8.77298 19.1668C8.6687 19.2182 8.58089 19.2979 8.5195 19.3967C8.45811 19.4954 8.42558 19.6094 8.42558 19.7257C8.42558 19.842 8.45811 19.956 8.5195 20.0548C8.58089 20.1536 8.6687 20.2332 8.77298 20.2847L22.4416 26.9881C22.5264 27.0318 22.6204 27.0546 22.7158 27.0546C22.8113 27.0546 22.9053 27.0318 22.9901 26.9881L36.6836 20.2722C36.7879 20.2207 36.8757 20.1411 36.9371 20.0423C36.9985 19.9435 37.031 19.8295 37.031 19.7132C37.031 19.5969 36.9985 19.483 36.9371 19.3842C36.8757 19.2854 36.7879 19.2058 36.6836 19.1543L34.0405 17.8701L36.6836 16.5735C36.7898 16.5204 36.8789 16.4384 36.9407 16.337C37.0024 16.2355 37.0343 16.1187 37.0327 16V16ZM10.4644 12.2847L22.7283 6.26286L34.9964 12.2847L32.6275 13.4483L31.2104 14.1299L28.8457 15.2935L28.1392 15.6384L27.4286 16L22.7283 18.3065L18.028 16L17.3215 15.6509L16.6234 15.306L14.2462 14.1299L12.8291 13.4358L10.4644 12.2847ZM10.4644 19.7153L12.8291 18.5517L22.4416 23.2727C22.5272 23.3137 22.6209 23.3349 22.7158 23.3349C22.8108 23.3349 22.9045 23.3137 22.9901 23.2727L32.6275 18.5517L34.9964 19.7153L22.7283 25.7371L10.4644 19.7153ZM32.6275 17.1636L31.921 17.5086L31.2104 17.8701L22.7283 22.026L14.2462 17.8701L13.5397 17.521L12.8291 17.1761L10.4644 16.0125L12.8291 14.8488L15.1979 16.0125L15.9044 16.3616L16.6109 16.7065L22.4416 19.5616C22.5272 19.6025 22.6209 19.6238 22.7158 19.6238C22.8108 19.6238 22.9045 19.6025 22.9901 19.5616L28.8332 16.694L29.5397 16.3491L30.2462 16L32.6151 14.8364L34.9839 16L32.6275 17.1636Z" fill="white"/>
  <line x1="46.25" y1="1.09278e-08" x2="46.25" y2="32" stroke="white" stroke-width="0.5"/>
  <path d="M60 21C63.5455 21 65.5455 18.7955 65.5455 15.1591C65.5455 11.5455 63.5455 9.36364 60.1591 9.36364H56.4091V21H60ZM57.8182 19.75V10.6136H60.0682C62.7955 10.6136 64.1818 12.3409 64.1818 15.1591C64.1818 18 62.7955 19.75 59.9091 19.75H57.8182ZM71.3864 21.1818C73.1591 21.1818 74.4545 20.2955 74.8636 18.9773L73.5682 18.6136C73.2273 19.5227 72.4375 19.9773 71.3864 19.9773C69.8125 19.9773 68.7273 18.9602 68.6648 17.0909H75V16.5227C75 13.2727 73.0682 12.1591 71.25 12.1591C68.8864 12.1591 67.3182 14.0227 67.3182 16.7045C67.3182 19.3864 68.8636 21.1818 71.3864 21.1818ZM68.6648 15.9318C68.7557 14.5739 69.7159 13.3636 71.25 13.3636C72.7045 13.3636 73.6364 14.4545 73.6364 15.9318H68.6648ZM77.0398 24.2727H78.3807V19.6591H78.4943C78.7898 20.1364 79.358 21.1818 81.0398 21.1818C83.2216 21.1818 84.7443 19.4318 84.7443 16.6591C84.7443 13.9091 83.2216 12.1591 81.017 12.1591C79.3125 12.1591 78.7898 13.2045 78.4943 13.6591H78.3352V12.2727H77.0398V24.2727ZM78.358 16.6364C78.358 14.6818 79.2216 13.3636 80.858 13.3636C82.5625 13.3636 83.4034 14.7955 83.4034 16.6364C83.4034 18.5 82.5398 19.9773 80.858 19.9773C79.2443 19.9773 78.358 18.6136 78.358 16.6364ZM88.1307 9.36364H86.7898V21H88.1307V9.36364ZM94.1321 21.1818C96.4957 21.1818 98.0866 19.3864 98.0866 16.6818C98.0866 13.9545 96.4957 12.1591 94.1321 12.1591C91.7685 12.1591 90.1776 13.9545 90.1776 16.6818C90.1776 19.3864 91.7685 21.1818 94.1321 21.1818ZM94.1321 19.9773C92.3366 19.9773 91.5185 18.4318 91.5185 16.6818C91.5185 14.9318 92.3366 13.3636 94.1321 13.3636C95.9276 13.3636 96.7457 14.9318 96.7457 16.6818C96.7457 18.4318 95.9276 19.9773 94.1321 19.9773ZM100.685 24.2727C101.895 24.2727 102.747 23.6307 103.253 22.2727L106.969 12.2955L105.503 12.2727L103.094 19.2273H103.003L100.594 12.2727H99.1392L102.366 21.0455L102.116 21.7273C101.628 23.0568 101.026 23.1818 100.048 22.9318L99.7074 24.1136C99.8438 24.1818 100.23 24.2727 100.685 24.2727Z" fill="white"/>
</svg>
