<svg width="16" height="16" viewBox="0 0 16 16" fill="none" xmlns="http://www.w3.org/2000/svg">
<path fill-rule="evenodd" clip-rule="evenodd" d="M7.52249 1.14911C7.80335 0.950297 8.19665 0.950297 8.47751 1.14911L14.6997 5.5536C14.8892 5.68771 15 5.89392 15 6.11236V13.0337C15 13.5552 14.7724 14.0553 14.3672 14.4241C13.962 14.7928 13.4125 15 12.8395 15H3.16049C2.5875 15 2.03796 14.7928 1.63279 14.4241C1.22762 14.0553 1 13.5552 1 13.0337V6.11236C1 5.89392 1.11081 5.68771 1.30027 5.5536L7.52249 1.14911ZM2.55556 6.45857V13.0337C2.55556 13.1797 2.61929 13.3198 2.73274 13.423C2.84619 13.5263 3.00005 13.5843 3.16049 13.5843H12.8395C12.9999 13.5843 13.1538 13.5263 13.2673 13.423C13.3807 13.3198 13.4444 13.1797 13.4444 13.0337V6.45856L8 2.60463L2.55556 6.45857Z" fill="white"/>
<path fill-rule="evenodd" clip-rule="evenodd" d="M5 7.73469C5 7.32893 5.36631 7 5.81818 7H10.1818C10.6337 7 11 7.32893 11 7.73469V14.2653C11 14.6711 10.6337 15 10.1818 15C9.72995 15 9.36364 14.6711 9.36364 14.2653V8.46939H6.63636V14.2653C6.63636 14.6711 6.27005 15 5.81818 15C5.36631 15 5 14.6711 5 14.2653V7.73469Z" fill="white"/>
</svg>
